<svg width="24" height="24" viewBox="0 0 24 24" fill="none" xmlns="http://www.w3.org/2000/svg">
<g clip-path="url(#clip0)">
<path d="M21.8931 9.96578L12.5327 0.604023C11.9806 0.0533346 11.0876 0.0598503 10.5428 0.60332C9.99486 1.15265 9.99486 2.04459 10.5428 2.59321L19.9045 11.9543C20.453 12.5028 21.3446 12.5028 21.8931 11.9543C22.443 11.4044 22.443 10.5156 21.8931 9.96578Z" fill="#C4C4C4" fill-opacity="0.5"/>
<path d="M9.84943 3.88672L9.77898 4.23988C9.28271 6.72229 8.07661 9.08062 6.44531 10.992L11.5382 16.0849C13.4493 14.4539 15.7752 13.2154 18.2577 12.7185L18.6115 12.6481L9.84943 3.88672Z" fill="#C4C4C4" fill-opacity="0.5"/>
<path d="M5.51083 12.0469L2.03021 15.5268C1.20779 16.3492 1.20437 17.6844 2.03021 18.5102L4.01875 20.4988C4.84117 21.3212 6.17636 21.3246 7.00221 20.4988L10.4825 17.0185L5.51083 12.0469ZM6.00798 17.516C5.73334 17.7907 5.28836 17.7907 5.01372 17.516C4.73908 17.2414 4.73908 16.7964 5.01372 16.5218L6.00798 15.5275C6.28263 15.2528 6.72761 15.2528 7.00225 15.5275C7.27689 15.8021 7.27689 16.2471 7.00225 16.5218L6.00798 17.516Z" fill="#C4C4C4" fill-opacity="0.5"/>
<path d="M13.4197 20.8728L14.3762 19.9163C15.2021 19.0906 15.1993 17.7554 14.3762 16.9336L13.6658 16.2227C13.2731 16.4864 12.8981 16.773 12.5335 17.0788L13.3819 17.9285C13.6559 18.2011 13.6579 18.6447 13.3819 18.9221L12.4097 19.8944L10.9808 18.51L8.99219 20.4986L12.1824 23.5899C12.7268 24.1357 13.6206 24.1388 14.1702 23.5892C14.7188 23.0406 14.7188 22.1487 14.1702 21.6L13.4197 20.8728Z" fill="#C4C4C4" fill-opacity="0.5"/>
<path d="M16.2598 0C15.8711 0 15.5566 0.314485 15.5566 0.703126V2.10938C15.5566 2.49802 15.8711 2.81251 16.2598 2.81251C16.6484 2.81251 16.9629 2.49802 16.9629 2.10938V0.703126C16.9629 0.314485 16.6484 0 16.2598 0Z" fill="#C4C4C4" fill-opacity="0.5"/>
<path d="M21.8838 5.625H20.4775C20.0889 5.625 19.7744 5.93948 19.7744 6.32813C19.7744 6.71677 20.0889 7.03125 20.4775 7.03125H21.8838C22.2724 7.03125 22.5869 6.71677 22.5869 6.32813C22.5869 5.93948 22.2724 5.625 21.8838 5.625Z" fill="#C4C4C4" fill-opacity="0.5"/>
<path d="M20.9756 1.61223C20.701 1.33759 20.256 1.33759 19.9814 1.61223L18.5751 3.01848C18.3005 3.29312 18.3005 3.73811 18.5751 4.01275C18.8498 4.28739 19.2947 4.28744 19.5694 4.01275L20.9756 2.6065C21.2503 2.33186 21.2503 1.88687 20.9756 1.61223Z" fill="#C4C4C4" fill-opacity="0.5"/>
</g>
<defs>
<clipPath id="clip0">
</clipPath>
</defs>
</svg>
