<svg width="24" height="27" viewBox="0 0 24 27" fill="none" xmlns="http://www.w3.org/2000/svg">
<path d="M21.8347 18.0304C21.109 19.9972 20.0115 21.7074 18.5722 23.1129C16.9339 24.7126 14.7887 25.9838 12.1961 26.8906C12.111 26.9203 12.0222 26.9446 11.933 26.9625C11.8152 26.9858 11.6953 26.9984 11.5764 27H11.5531C11.4265 27 11.2992 26.9872 11.1729 26.9625C11.0837 26.9446 10.9961 26.9203 10.9115 26.8912C8.31575 25.9859 6.16785 24.7153 4.52793 23.1156C3.08804 21.7101 1.99071 20.0009 1.26602 18.0341C-0.0517196 14.4581 0.0232622 10.5186 0.0836184 7.35293L0.0846483 7.30432C0.096802 7.04291 0.10463 6.76832 0.108956 6.4651C0.130997 4.97638 1.31464 3.74475 2.80356 3.66173C5.90789 3.48849 8.30936 2.47603 10.3613 0.476037L10.3792 0.459558C10.7199 0.147065 11.1492 -0.00619425 11.5764 0.000191579C11.9884 0.00554743 12.3988 0.158601 12.7273 0.459558L12.7448 0.476037C14.7971 2.47603 17.1986 3.48849 20.3029 3.66173C21.7919 3.74475 22.9755 4.97638 22.9975 6.4651C23.0019 6.77038 23.0097 7.04456 23.0219 7.30432L23.0225 7.32492C23.0826 10.4966 23.1572 14.4439 21.8347 18.0304Z" fill="#F75252"/>
<path d="M21.8345 18.0302C21.1087 19.9971 20.0112 21.7072 18.5719 23.1127C16.9337 24.7125 14.7884 25.9837 12.1958 26.8904C12.1107 26.9201 12.0219 26.9444 11.9327 26.9623C11.8149 26.9856 11.695 26.9982 11.5762 26.9998V0C11.9882 0.00535585 12.3985 0.158409 12.7271 0.459366L12.7446 0.475846C14.7969 2.47584 17.1984 3.4883 20.3027 3.66154C21.7916 3.74456 22.9753 4.97619 22.9973 6.46491C23.0016 6.77019 23.0094 7.04437 23.0216 7.30413L23.0222 7.32473C23.0824 10.4964 23.1569 14.4437 21.8345 18.0302Z" fill="#B03636"/>
<path d="M18.2814 13.5005C18.2814 17.2028 15.2754 20.2165 11.5761 20.2297H11.5524C7.84229 20.2297 4.82324 17.2108 4.82324 13.5005C4.82324 9.79033 7.84229 6.77148 11.5524 6.77148H11.5761C15.2754 6.78467 18.2814 9.79836 18.2814 13.5005Z" fill="white"/>
<path d="M18.2815 13.5005C18.2815 17.2028 15.2754 20.2165 11.5762 20.2297V6.77148C15.2754 6.78467 18.2815 9.79836 18.2815 13.5005Z" fill="#E1EBF0"/>
</svg>
