<svg width="52" height="52" viewBox="0 0 52 52" fill="none" xmlns="http://www.w3.org/2000/svg">
<mask id="mask0" mask-type="alpha" maskUnits="userSpaceOnUse" x="0" y="0" width="52" height="52">
<path d="M0 26C0 11.6406 11.6406 0 26 0C40.3594 0 52 11.6406 52 26C52 40.3594 40.3594 52 26 52C11.6406 52 0 40.3594 0 26Z" fill="#7289DA"/>
</mask>
<g mask="url(#mask0)">
<path d="M24.0868 24.2666C23.2186 24.2666 22.5332 25.0474 22.5332 25.9999C22.5332 26.9525 23.2338 27.7333 24.0868 27.7333C24.955 27.7333 25.6404 26.9525 25.6404 25.9999C25.6556 25.0474 24.955 24.2666 24.0868 24.2666ZM29.6463 24.2666C28.7781 24.2666 28.0927 25.0474 28.0927 25.9999C28.0927 26.9525 28.7933 27.7333 29.6463 27.7333C30.5145 27.7333 31.1999 26.9525 31.1999 25.9999C31.1999 25.0474 30.5145 24.2666 29.6463 24.2666Z" fill="#7289DA"/>
<path d="M36.7194 11.2666H16.1472C14.4124 11.2666 13 12.6619 13 14.3909V34.8963C13 36.6253 14.4124 38.0206 16.1472 38.0206H33.5568L32.7432 35.2148L34.7083 37.0196L36.5659 38.7183L39.8667 41.5999V14.3909C39.8667 12.6619 38.4542 11.2666 36.7194 11.2666ZM30.7934 31.0743C30.7934 31.0743 30.2407 30.4221 29.7802 29.8458C31.7913 29.2846 32.5589 28.0409 32.5589 28.0409C31.9295 28.4504 31.3307 28.7386 30.7934 28.9358C30.0258 29.2543 29.2889 29.4666 28.5673 29.5879C27.0935 29.8609 25.7425 29.7851 24.591 29.5728C23.716 29.4059 22.9637 29.1633 22.3342 28.9206C21.9811 28.7841 21.5973 28.6173 21.2135 28.4049C21.1675 28.3746 21.1214 28.3594 21.0754 28.3291C21.0446 28.3139 21.0293 28.2988 21.0139 28.2836C20.7376 28.1319 20.5841 28.0258 20.5841 28.0258C20.5841 28.0258 21.321 29.2391 23.2707 29.8154C22.8102 30.3918 22.2421 31.0743 22.2421 31.0743C18.8493 30.9681 17.5597 28.7689 17.5597 28.7689C17.5597 23.8853 19.7704 19.9268 19.7704 19.9268C21.9811 18.2888 24.0844 18.3343 24.0844 18.3343L24.2379 18.5163C21.4745 19.3049 20.2003 20.5031 20.2003 20.5031C20.2003 20.5031 20.538 20.3211 21.1061 20.0633C22.7488 19.3504 24.0537 19.1533 24.591 19.1078C24.6832 19.0926 24.7599 19.0774 24.852 19.0774C25.7885 18.9561 26.8478 18.9258 27.9532 19.0471C29.4117 19.2139 30.9776 19.6386 32.5743 20.5031C32.5743 20.5031 31.3614 19.3656 28.7515 18.5769L28.9665 18.3343C28.9665 18.3343 31.0698 18.2888 33.2805 19.9268C33.2805 19.9268 35.4912 23.8853 35.4912 28.7689C35.4912 28.7689 34.1863 30.9681 30.7934 31.0743Z" fill="#7289DA"/>
</g>
</svg>
