<svg width="50" height="50" viewBox="0 0 50 50" fill="none" xmlns="http://www.w3.org/2000/svg">
<path fill-rule="evenodd" clip-rule="evenodd" d="M23.7614 0.367173C24.5146 -0.122391 25.4854 -0.122391 26.2386 0.367173L48.9657 15.1399C49.6107 15.5591 49.9998 16.2762 49.9998 17.0455V32.9545C49.9998 33.7238 49.6107 34.4409 48.9657 34.8601L26.2386 49.6328C25.4854 50.1224 24.5146 50.1224 23.7614 49.6328L1.0343 34.8601C0.389326 34.4409 0.000195216 33.7238 0.000195216 32.9545V17.0455C0.000195216 16.2762 0.389326 15.5591 1.0343 15.1399L23.7614 0.367173ZM4.54561 18.2788V31.7212L25 45.0166L45.4544 31.7212V18.2788L25 4.98338L4.54561 18.2788Z" fill="#C8D1D6"/>
<path fill-rule="evenodd" clip-rule="evenodd" d="M25 30.6818C26.2552 30.6818 27.2727 31.6994 27.2727 32.9545V47.7273C27.2727 48.9825 26.2552 50 25 50C23.7448 50 22.7273 48.9825 22.7273 47.7273V32.9545C22.7273 31.6994 23.7448 30.6818 25 30.6818Z" fill="#C8D1D6"/>
<path fill-rule="evenodd" clip-rule="evenodd" d="M0.411028 15.7421C1.13083 14.7138 2.54793 14.4638 3.57622 15.1836L25 30.1803L46.4238 15.1836C47.4521 14.4638 48.8692 14.7138 49.589 15.7421C50.3088 16.7704 50.0587 18.1875 49.0304 18.9073L26.3033 34.8164C25.5208 35.3642 24.4792 35.3642 23.6967 34.8164L0.969591 18.9073C-0.0586946 18.1875 -0.308772 16.7704 0.411028 15.7421Z" fill="#C8D1D6"/>
<path fill-rule="evenodd" clip-rule="evenodd" d="M23.6967 15.1836C24.4792 14.6358 25.5208 14.6358 26.3033 15.1836L49.0304 31.0927C50.0587 31.8125 50.3088 33.2296 49.589 34.2579C48.8692 35.2862 47.4521 35.5362 46.4238 34.8164L25 19.8197L3.57622 34.8164C2.54793 35.5362 1.13083 35.2862 0.411028 34.2579C-0.308772 33.2296 -0.0586946 31.8125 0.969591 31.0927L23.6967 15.1836Z" fill="#C8D1D6"/>
<path fill-rule="evenodd" clip-rule="evenodd" d="M25 0C26.2552 0 27.2727 1.01753 27.2727 2.27273V17.0455C27.2727 18.3006 26.2552 19.3182 25 19.3182C23.7448 19.3182 22.7273 18.3006 22.7273 17.0455V2.27273C22.7273 1.01753 23.7448 0 25 0Z" fill="#C8D1D6"/>
</svg>
