<svg width="12" height="22" viewBox="0 0 12 22" fill="none" xmlns="http://www.w3.org/2000/svg">
<path d="M11.499 0.00457747L8.64615 0C5.44104 0 3.36976 2.12509 3.36976 5.41423V7.91055H0.501322C0.253454 7.91055 0.0527344 8.1115 0.0527344 8.35937V11.9763C0.0527344 12.2241 0.253683 12.4249 0.501322 12.4249H3.36976V21.5514C3.36976 21.7993 3.57048 22 3.81835 22H7.56085C7.80871 22 8.00943 21.799 8.00943 21.5514V12.4249H11.3633C11.6112 12.4249 11.8119 12.2241 11.8119 11.9763L11.8133 8.35937C11.8133 8.24036 11.7659 8.12638 11.6819 8.04215C11.5979 7.95793 11.4835 7.91055 11.3645 7.91055H8.00943V5.79439C8.00943 4.77727 8.25181 4.26094 9.57674 4.26094L11.4986 4.26025C11.7462 4.26025 11.9469 4.0593 11.9469 3.81166V0.453169C11.9469 0.205757 11.7464 0.00503522 11.499 0.00457747Z" fill="#055071"/>
</svg>
