<svg width="60" height="60" viewBox="0 0 60 60" fill="none" xmlns="http://www.w3.org/2000/svg">
<circle cx="30" cy="30" r="30" fill="#0261F0" fill-opacity="0.03"/>
<g clip-path="url(#clip0)">
<path d="M23.5262 31.3848H28.3627C29.6863 31.3848 30.7627 32.4611 30.7627 33.7848V37.4939C30.7627 38.8176 29.6863 39.894 28.3627 39.894H23.5262C22.2026 39.894 21.1262 38.8176 21.1262 37.4939V33.7848C21.1262 32.4611 22.2026 31.3848 23.5262 31.3848ZM22.8717 37.4939C22.8717 37.8576 23.1699 38.1485 23.5262 38.1485H28.3627C28.7263 38.1485 29.0172 37.8503 29.0172 37.4939V33.7848C29.0172 33.4212 28.719 33.1302 28.3627 33.1302H23.5262C23.1626 33.1302 22.8717 33.4284 22.8717 33.7848V37.4939Z" fill="#0261F0"/>
<path d="M13.2203 24.6429C13.2203 24.4902 13.2566 24.3447 13.3366 24.2138L18.6312 14.9046C18.784 14.6355 19.0749 14.4609 19.3876 14.4609H42.6534C42.9661 14.4609 43.257 14.6282 43.4098 14.9046L48.6971 24.2138C48.7698 24.3447 48.8135 24.4902 48.8135 24.6429C48.8135 26.7302 47.5553 28.5193 45.7589 29.3121V44.665C45.7589 45.145 45.3662 45.5377 44.8861 45.5377H40.0643C40.057 45.5377 40.0497 45.5377 40.0424 45.5377H33.2787C33.2714 45.5377 33.2642 45.5377 33.2569 45.5377H17.1549C16.6749 45.5377 16.2821 45.145 16.2821 44.665V29.4211C16.2821 29.3848 16.2821 29.3557 16.2894 29.3266C14.4857 28.5339 13.2203 26.7375 13.2203 24.6429ZM42.1443 16.2137H19.8967L15.7585 23.4938H46.2753L42.1443 16.2137ZM23.4822 25.232C23.7586 26.8029 25.1332 27.9957 26.7841 27.9957C28.435 27.9957 29.8096 26.8029 30.0859 25.232H23.4822ZM31.9405 25.232C32.2169 26.8029 33.5914 27.9957 35.2424 27.9957C36.8933 27.9957 38.2679 26.8029 38.5515 25.232H31.9405ZM47.0098 25.232H40.3988C40.6752 26.8029 42.057 27.9957 43.708 27.9957C45.3589 28.0029 46.7334 26.8029 47.0098 25.232ZM34.1515 43.7923H39.1697V34.3739C39.1697 33.6903 38.617 33.1303 37.9261 33.1303H35.3878C34.7042 33.1303 34.1442 33.683 34.1442 34.3739V43.7923H34.1515ZM18.0276 43.7923H32.406V34.3739C32.406 32.7303 33.7442 31.3848 35.3951 31.3848H37.9333C39.577 31.3848 40.9225 32.723 40.9225 34.3739V43.7995H44.0134V29.7411C43.9116 29.7484 43.8098 29.7484 43.708 29.7484C41.9479 29.7484 40.3915 28.8539 39.4752 27.4938C38.5588 28.8539 37.0024 29.7484 35.2424 29.7484C33.4824 29.7484 31.9332 28.8539 31.0096 27.4938C30.0932 28.8539 28.5368 29.7484 26.7841 29.7484C25.0241 29.7484 23.4749 28.8539 22.5586 27.4938C21.6422 28.8539 20.0858 29.7484 18.3258 29.7484C18.224 29.7484 18.1294 29.7411 18.0276 29.7411V43.7923ZM18.3258 28.0029C19.9767 28.0029 21.3513 26.8102 21.6276 25.2393H15.0166C15.3003 26.8029 16.6749 28.0029 18.3258 28.0029Z" fill="#0261F0"/>
</g>
<defs>
<clipPath id="clip0">
<rect width="35.5932" height="35.5932" fill="white" transform="matrix(-1 0 0 1 48.8135 12.2031)"/>
</clipPath>
</defs>
</svg>
