<svg width="118" height="118" viewBox="0 0 118 118" fill="none" xmlns="http://www.w3.org/2000/svg">
<circle cx="59" cy="59" r="59" fill="#0261F0" fill-opacity="0.03"/>
<g clip-path="url(#clip0)">
<path d="M46.2683 61.7246H55.7799C58.3831 61.7246 60.5 63.8415 60.5 66.4447V73.7393C60.5 76.3425 58.3831 78.4594 55.7799 78.4594H46.2683C43.6651 78.4594 41.5482 76.3425 41.5482 73.7393V66.4447C41.5482 63.8415 43.6651 61.7246 46.2683 61.7246ZM44.981 73.7393C44.981 74.4545 45.5674 75.0266 46.2683 75.0266H55.7799C56.4951 75.0266 57.0672 74.4402 57.0672 73.7393V66.4447C57.0672 65.7295 56.4808 65.1574 55.7799 65.1574H46.2683C45.5531 65.1574 44.981 65.7438 44.981 66.4447V73.7393Z" fill="#0261F0"/>
<path d="M26 48.465C26 48.1646 26.0715 47.8785 26.2289 47.6211L36.6416 29.3129C36.942 28.7837 37.5141 28.4404 38.1291 28.4404H83.8852C84.5002 28.4404 85.0723 28.7694 85.3727 29.3129L95.7711 47.6211C95.9142 47.8785 96 48.1646 96 48.465C96 52.57 93.5255 56.0886 89.9926 57.6476V87.8417C89.9926 88.7858 89.2203 89.5581 88.2763 89.5581H78.7932C78.7789 89.5581 78.7646 89.5581 78.7503 89.5581H65.4483C65.434 89.5581 65.4197 89.5581 65.4054 89.5581H33.738C32.794 89.5581 32.0217 88.7858 32.0217 87.8417V57.8622C32.0217 57.7907 32.0217 57.7334 32.036 57.6762C28.4888 56.1172 26 52.5843 26 48.465ZM82.8839 31.8875H39.1304L30.9918 46.205H91.0082L82.8839 31.8875ZM46.1819 49.6235C46.7254 52.713 49.4287 55.0587 52.6755 55.0587C55.9224 55.0587 58.6257 52.713 59.1692 49.6235H46.1819ZM62.8165 49.6235C63.36 52.713 66.0633 55.0587 69.3102 55.0587C72.557 55.0587 75.2603 52.713 75.8181 49.6235H62.8165ZM92.4528 49.6235H79.4512C79.9947 52.713 82.7123 55.0587 85.9591 55.0587C89.206 55.073 91.9093 52.713 92.4528 49.6235ZM67.1647 86.1254H77.0339V67.6027C77.0339 66.2582 75.9469 65.1568 74.5881 65.1568H69.5962C68.2517 65.1568 67.1504 66.2439 67.1504 67.6027V86.1254H67.1647ZM35.4544 86.1254H63.7319V67.6027C63.7319 64.3701 66.3637 61.724 69.6105 61.724H74.6024C77.8349 61.724 80.481 64.3558 80.481 67.6027V86.1397H86.5599V58.4915C86.3596 58.5058 86.1594 58.5058 85.9591 58.5058C82.4978 58.5058 79.4369 56.7465 77.6347 54.0718C75.8324 56.7465 72.7716 58.5058 69.3102 58.5058C65.8488 58.5058 62.8022 56.7465 60.9857 54.0718C59.1835 56.7465 56.1226 58.5058 52.6755 58.5058C49.2141 58.5058 46.1676 56.7465 44.3653 54.0718C42.5631 56.7465 39.5022 58.5058 36.0409 58.5058C35.8406 58.5058 35.6547 58.4915 35.4544 58.4915V86.1254ZM36.0409 55.073C39.2877 55.073 41.991 52.7273 42.5345 49.6378H29.5329C30.0907 52.713 32.794 55.073 36.0409 55.073Z" fill="#0261F0"/>
</g>
<defs>
<clipPath id="clip0">
<rect width="70" height="70" fill="white" transform="matrix(-1 0 0 1 96 24)"/>
</clipPath>
</defs>
</svg>
