<svg width="40" height="40" viewBox="0 0 40 40" fill="none" xmlns="http://www.w3.org/2000/svg">
<path fill-rule="evenodd" clip-rule="evenodd" d="M9.99967 3.33203C10.9201 3.33203 11.6663 4.07822 11.6663 4.9987V24.9987C11.6663 25.9192 10.9201 26.6654 9.99967 26.6654C9.0792 26.6654 8.33301 25.9192 8.33301 24.9987V4.9987C8.33301 4.07822 9.0792 3.33203 9.99967 3.33203Z" fill="#0985BB"/>
<path fill-rule="evenodd" clip-rule="evenodd" d="M29.9997 6.66536C28.1587 6.66536 26.6663 8.15775 26.6663 9.9987C26.6663 11.8396 28.1587 13.332 29.9997 13.332C31.8406 13.332 33.333 11.8396 33.333 9.9987C33.333 8.15775 31.8406 6.66536 29.9997 6.66536ZM23.333 9.9987C23.333 6.3168 26.3178 3.33203 29.9997 3.33203C33.6816 3.33203 36.6663 6.3168 36.6663 9.9987C36.6663 13.6806 33.6816 16.6654 29.9997 16.6654C26.3178 16.6654 23.333 13.6806 23.333 9.9987Z" fill="#0985BB"/>
<path fill-rule="evenodd" clip-rule="evenodd" d="M9.99967 26.6654C8.15872 26.6654 6.66634 28.1577 6.66634 29.9987C6.66634 31.8396 8.15872 33.332 9.99967 33.332C11.8406 33.332 13.333 31.8396 13.333 29.9987C13.333 28.1577 11.8406 26.6654 9.99967 26.6654ZM3.33301 29.9987C3.33301 26.3168 6.31778 23.332 9.99967 23.332C13.6816 23.332 16.6663 26.3168 16.6663 29.9987C16.6663 33.6806 13.6816 36.6654 9.99967 36.6654C6.31778 36.6654 3.33301 33.6806 3.33301 29.9987Z" fill="#0985BB"/>
<path fill-rule="evenodd" clip-rule="evenodd" d="M29.9997 13.332C30.9202 13.332 31.6663 14.0782 31.6663 14.9987C31.6663 19.419 29.9104 23.6582 26.7848 26.7838C23.6592 29.9094 19.4199 31.6654 14.9997 31.6654C14.0792 31.6654 13.333 30.9192 13.333 29.9987C13.333 29.0782 14.0792 28.332 14.9997 28.332C18.5359 28.332 21.9273 26.9273 24.4278 24.4268C26.9283 21.9263 28.333 18.5349 28.333 14.9987C28.333 14.0782 29.0792 13.332 29.9997 13.332Z" fill="#0985BB"/>
</svg>
