<svg width="50" height="50" viewBox="0 0 50 50" fill="none" xmlns="http://www.w3.org/2000/svg">
<path fill-rule="evenodd" clip-rule="evenodd" d="M23.9836 0.239938C24.6234 -0.0799794 25.3766 -0.0799794 26.0164 0.239938L48.7432 11.6036C49.5131 11.9886 49.9995 12.7755 49.9995 13.6364C49.9995 14.4972 49.5131 15.2842 48.7432 15.6692L26.0164 27.0328C25.3766 27.3527 24.6234 27.3527 23.9836 27.0328L1.25681 15.6692C0.486857 15.2842 0.000497829 14.4972 0.000497829 13.6364C0.000497829 12.7755 0.486857 11.9886 1.25681 11.6036L23.9836 0.239938ZM7.35505 13.6364L25 22.459L42.6449 13.6364L25 4.81371L7.35505 13.6364Z" fill="#C8D1D6"/>
<path fill-rule="evenodd" clip-rule="evenodd" d="M0.240431 35.3472C0.801759 34.2246 2.1669 33.7695 3.28955 34.3308L25 45.1863L46.7104 34.3308C47.8331 33.7695 49.1982 34.2246 49.7596 35.3472C50.3209 36.4699 49.8659 37.8351 48.7432 38.3964L26.0164 49.7601C25.3766 50.08 24.6234 50.08 23.9836 49.7601L1.25681 38.3964C0.13415 37.8351 -0.320897 36.4699 0.240431 35.3472Z" fill="#C8D1D6"/>
<path fill-rule="evenodd" clip-rule="evenodd" d="M0.240431 23.9836C0.801759 22.8609 2.1669 22.4059 3.28955 22.9672L25 33.8226L46.7104 22.9672C47.8331 22.4059 49.1982 22.8609 49.7596 23.9836C50.3209 25.1063 49.8659 26.4715 48.7432 27.0328L26.0164 38.3964C25.3766 38.7163 24.6234 38.7163 23.9836 38.3964L1.25681 27.0328C0.13415 26.4715 -0.320897 25.1063 0.240431 23.9836Z" fill="#C8D1D6"/>
</svg>
