<svg width="187" height="282" viewBox="0 0 187 282" fill="none" xmlns="http://www.w3.org/2000/svg">
<g clip-path="url(#clip0)">
<path d="M178.515 68.2316C178.515 55.4906 167.586 45.1262 154.152 45.1262C147.254 45.1262 141.02 47.864 136.584 52.2478L41.5073 0.189675C39.7127 -0.792392 37.5034 -0.792392 35.7088 0.189675L-59.3699 52.2478C-63.8066 47.864 -70.038 45.1262 -76.9355 45.1262C-90.3702 45.1262 -101.299 55.4906 -101.299 68.2316C-101.299 79.0752 -93.3794 88.1932 -82.7363 90.6688V194.748C-82.7363 196.713 -81.6305 198.528 -79.8359 199.513L15.2111 251.556C14.5812 253.606 14.2368 255.772 14.2368 258.013C14.2368 270.752 25.1654 281.119 38.6001 281.119C52.0326 281.119 62.9612 270.752 62.9612 258.013C62.9612 255.774 62.619 253.612 61.9891 251.562L157.052 199.513C158.847 198.531 159.952 196.713 159.952 194.748V90.6688C170.595 88.1932 178.515 79.0752 178.515 68.2316ZM-89.6972 68.2316C-89.6972 61.557 -83.9735 56.1288 -76.9355 56.1288C-69.8997 56.1288 -64.176 61.557 -64.176 68.2316C-64.176 74.9041 -69.8997 80.3345 -76.9355 80.3345C-83.9735 80.3345 -89.6972 74.9041 -89.6972 68.2316ZM38.6001 270.116C31.5621 270.116 25.8384 264.688 25.8384 258.013C25.8384 251.341 31.5621 245.911 38.6001 245.911C45.6358 245.911 51.3619 251.341 51.3619 258.013C51.3619 264.688 45.6358 270.116 38.6001 270.116ZM56.1793 242.04C51.7403 237.65 45.5044 234.908 38.6001 234.908C31.7003 234.908 25.4645 237.648 21.0278 242.034L-71.1347 191.572V90.6688C-60.4938 88.1932 -52.5744 79.0752 -52.5744 68.2316C-52.5744 65.9881 -52.9188 63.8199 -53.551 61.7655L38.6069 11.3062L130.767 61.7655C130.135 63.8199 129.79 65.986 129.79 68.2316C129.79 79.0752 137.71 88.1932 148.351 90.6688V191.572L56.1793 242.04ZM154.152 80.3345C147.116 80.3345 141.39 74.9041 141.39 68.2316C141.39 61.557 147.116 56.1288 154.152 56.1288C161.19 56.1288 166.913 61.557 166.913 68.2316C166.913 74.9041 161.19 80.3345 154.152 80.3345Z" fill="#D0E1EA" fill-opacity="0.3"/>
<path d="M118.077 84.7911L41.5068 42.8674C39.7121 41.8853 37.5029 41.8853 35.7082 42.8674L-40.8623 84.7911C-42.6569 85.7753 -43.7627 87.5912 -43.7627 89.5553V173.405C-43.7627 175.369 -42.6569 177.187 -40.8623 178.169L35.7082 220.095C36.6055 220.585 37.6048 220.832 38.6064 220.832C39.6102 220.832 40.6095 220.585 41.5068 220.095L118.077 178.169C119.872 177.187 120.978 175.369 120.978 173.405V89.5553C120.978 87.5912 119.872 85.7753 118.077 84.7911ZM38.6064 53.9839L103.575 89.5553L38.6064 125.129L-26.3603 89.5553L38.6064 53.9839ZM44.4072 205.802V180.993C44.4072 177.954 41.8104 175.492 38.6064 175.492C35.4046 175.492 32.8078 177.954 32.8078 180.993V205.802L-32.1611 170.229V99.0837L35.7082 136.245C36.6055 136.735 37.6048 136.982 38.6064 136.982C39.6102 136.982 40.6095 136.735 41.5068 136.245L109.376 99.0837V170.229L44.4072 205.802Z" fill="#D0E1EA" fill-opacity="0.3"/>
<path d="M38.6015 150.736C37.0698 150.736 35.5788 151.323 34.4934 152.348C33.4148 153.371 32.7939 154.789 32.7939 156.238C32.7939 157.684 33.4148 159.102 34.4934 160.125C35.5788 161.15 37.0698 161.739 38.6015 161.739C40.1265 161.739 41.6243 161.15 42.7029 160.125C43.7815 159.102 44.4023 157.684 44.4023 156.238C44.4023 154.789 43.7815 153.371 42.7029 152.348C41.6243 151.323 40.1265 150.736 38.6015 150.736Z" fill="#D0E1EA" fill-opacity="0.3"/>
</g>
<defs>
<clipPath id="clip0">
<rect x="-110" width="297" height="281.665" fill="white"/>
</clipPath>
</defs>
</svg>
