<svg width="674" height="106" viewBox="0 0 674 106" fill="none" xmlns="http://www.w3.org/2000/svg">
<path d="M5 101L74.5 41.5L123 68.5L152 33.5L191.5 56L243.5 13L296 48L347 1.5L405 68.5L431.5 43L457.5 68.5L497 21L543 68.5L598 21L673.5 82" stroke="#0261F0" stroke-width="1.5"/>
<circle r="3.25" transform="matrix(1 0 0 -1 4 102)" fill="white" stroke="#0261F0" stroke-width="1.5"/>
<circle r="3.25" transform="matrix(1 0 0 -1 75 42)" fill="white" stroke="#0261F0" stroke-width="1.5"/>
<circle r="3.25" transform="matrix(1 0 0 -1 122 67)" fill="white" stroke="#0261F0" stroke-width="1.5"/>
<circle r="3.25" transform="matrix(1 0 0 -1 151 35)" fill="white" stroke="#0261F0" stroke-width="1.5"/>
<circle r="3.25" transform="matrix(1 0 0 -1 191 56)" fill="white" stroke="#0261F0" stroke-width="1.5"/>
<circle r="3.25" transform="matrix(1 0 0 -1 243 15)" fill="white" stroke="#0261F0" stroke-width="1.5"/>
<circle r="3.25" transform="matrix(1 0 0 -1 296 47)" fill="white" stroke="#0261F0" stroke-width="1.5"/>
<circle r="3.25" transform="matrix(1 0 0 -1 346 5)" fill="white" stroke="#0261F0" stroke-width="1.5"/>
<circle r="3.25" transform="matrix(1 0 0 -1 404 68)" fill="white" stroke="#0261F0" stroke-width="1.5"/>
<circle r="3.25" transform="matrix(1 0 0 -1 430 45)" fill="white" stroke="#0261F0" stroke-width="1.5"/>
<circle r="3.25" transform="matrix(1 0 0 -1 457 68)" fill="white" stroke="#0261F0" stroke-width="1.5"/>
<circle r="3.25" transform="matrix(1 0 0 -1 496 22)" fill="white" stroke="#0261F0" stroke-width="1.5"/>
<circle r="3.25" transform="matrix(1 0 0 -1 543 68)" fill="white" stroke="#0261F0" stroke-width="1.5"/>
<circle r="3.25" transform="matrix(1 0 0 -1 597 22)" fill="white" stroke="#0261F0" stroke-width="1.5"/>
<circle r="3.25" transform="matrix(1 0 0 -1 670 81)" fill="white" stroke="#0261F0" stroke-width="1.5"/>
</svg>
