<svg width="20" height="20" viewBox="0 0 20 20" fill="none" xmlns="http://www.w3.org/2000/svg">
<g clip-path="url(#clip0)">
<path d="M19.0027 17.2615H5.62881C5.07761 17.2615 4.63086 16.8148 4.63086 16.2636C4.63086 15.7124 5.07761 15.2656 5.62881 15.2656H19.0024C19.5536 15.2656 20.0004 15.7124 20.0004 16.2636C20.0004 16.8148 19.5539 17.2615 19.0027 17.2615Z" fill="#C4C4C4" fill-opacity="0.5"/>
<path d="M19.0027 10.9979H5.62881C5.07761 10.9979 4.63086 10.5511 4.63086 9.99991C4.63086 9.4487 5.07761 9.00195 5.62881 9.00195H19.0024C19.5536 9.00195 20.0004 9.4487 20.0004 9.99991C20.0007 10.5511 19.5539 10.9979 19.0027 10.9979Z" fill="#C4C4C4" fill-opacity="0.5"/>
<path d="M19.0027 4.73419H5.62881C5.07761 4.73419 4.63086 4.28744 4.63086 3.73624C4.63086 3.18503 5.07761 2.73828 5.62881 2.73828H19.0024C19.5536 2.73828 20.0004 3.18503 20.0004 3.73624C20.0004 4.28744 19.5539 4.73419 19.0027 4.73419Z" fill="#C4C4C4" fill-opacity="0.5"/>
<path d="M1.34025 5.15316C2.08045 5.15316 2.6805 4.55311 2.6805 3.81291C2.6805 3.07271 2.08045 2.47266 1.34025 2.47266C0.600051 2.47266 0 3.07271 0 3.81291C0 4.55311 0.600051 5.15316 1.34025 5.15316Z" fill="#C4C4C4" fill-opacity="0.5"/>
<path d="M1.34025 11.3407C2.08045 11.3407 2.6805 10.7406 2.6805 10.0004C2.6805 9.26021 2.08045 8.66016 1.34025 8.66016C0.600051 8.66016 0 9.26021 0 10.0004C0 10.7406 0.600051 11.3407 1.34025 11.3407Z" fill="#C4C4C4" fill-opacity="0.5"/>
<path d="M1.34025 17.5282C2.08045 17.5282 2.6805 16.9281 2.6805 16.1879C2.6805 15.4477 2.08045 14.8477 1.34025 14.8477C0.600051 14.8477 0 15.4477 0 16.1879C0 16.9281 0.600051 17.5282 1.34025 17.5282Z" fill="#C4C4C4" fill-opacity="0.5"/>
</g>
<defs>
<clipPath id="clip0">
</clipPath>
</defs>
</svg>
