<svg width="60" height="60" viewBox="0 0 60 60" fill="none" xmlns="http://www.w3.org/2000/svg">
<circle cx="30" cy="30" r="30" fill="#0261F0" fill-opacity="0.03"/>
<path d="M44.4037 41.6192H23.0054C22.1235 41.6192 21.4087 40.9044 21.4087 40.0225C21.4087 39.1406 22.1235 38.4258 23.0054 38.4258H44.4032C45.2851 38.4258 45.9999 39.1406 45.9999 40.0225C45.9999 40.9044 45.2856 41.6192 44.4037 41.6192Z" fill="#0261F0"/>
<path d="M44.4037 31.5978H23.0054C22.1235 31.5978 21.4087 30.883 21.4087 30.001C21.4087 29.1191 22.1235 28.4043 23.0054 28.4043H44.4032C45.2851 28.4043 45.9999 29.1191 45.9999 30.001C46.0004 30.883 45.2856 31.5978 44.4037 31.5978Z" fill="#0261F0"/>
<path d="M44.4037 21.5743H23.0054C22.1235 21.5743 21.4087 20.8595 21.4087 19.9776C21.4087 19.0957 22.1235 18.3809 23.0054 18.3809H44.4032C45.2851 18.3809 45.9999 19.0957 45.9999 19.9776C45.9999 20.8595 45.2856 21.5743 44.4037 21.5743Z" fill="#0261F0"/>
<path d="M16.1444 22.2458C17.3287 22.2458 18.2888 21.2858 18.2888 20.1014C18.2888 18.9171 17.3287 17.957 16.1444 17.957C14.9601 17.957 14 18.9171 14 20.1014C14 21.2858 14.9601 22.2458 16.1444 22.2458Z" fill="#0261F0"/>
<path d="M16.1444 32.1462C17.3287 32.1462 18.2888 31.1861 18.2888 30.0018C18.2888 28.8175 17.3287 27.8574 16.1444 27.8574C14.9601 27.8574 14 28.8175 14 30.0018C14 31.1861 14.9601 32.1462 16.1444 32.1462Z" fill="#0261F0"/>
<path d="M16.1444 42.0447C17.3287 42.0447 18.2888 41.0846 18.2888 39.9003C18.2888 38.7159 17.3287 37.7559 16.1444 37.7559C14.9601 37.7559 14 38.7159 14 39.9003C14 41.0846 14.9601 42.0447 16.1444 42.0447Z" fill="#0261F0"/>
</svg>
