<svg width="40" height="40" viewBox="0 0 40 40" fill="none" xmlns="http://www.w3.org/2000/svg">
<path fill-rule="evenodd" clip-rule="evenodd" d="M10 8.33333C9.07952 8.33333 8.33333 9.07952 8.33333 10V30C8.33333 30.9205 9.07952 31.6667 10 31.6667H30C30.9205 31.6667 31.6667 30.9205 31.6667 30V10C31.6667 9.07952 30.9205 8.33333 30 8.33333H10ZM5 10C5 7.23858 7.23858 5 10 5H30C32.7614 5 35 7.23858 35 10V30C35 32.7614 32.7614 35 30 35H10C7.23858 35 5 32.7614 5 30V10Z" fill="#0985BB"/>
<path fill-rule="evenodd" clip-rule="evenodd" d="M13.3333 15C13.3333 14.0795 14.0795 13.3333 15 13.3333H25C25.9205 13.3333 26.6667 14.0795 26.6667 15V25C26.6667 25.9205 25.9205 26.6667 25 26.6667H15C14.0795 26.6667 13.3333 25.9205 13.3333 25V15ZM16.6667 16.6667V23.3333H23.3333V16.6667H16.6667Z" fill="#0985BB"/>
<path fill-rule="evenodd" clip-rule="evenodd" d="M15 0C15.9205 0 16.6667 0.746192 16.6667 1.66667V6.66667C16.6667 7.58714 15.9205 8.33333 15 8.33333C14.0795 8.33333 13.3333 7.58714 13.3333 6.66667V1.66667C13.3333 0.746192 14.0795 0 15 0Z" fill="#0985BB"/>
<path fill-rule="evenodd" clip-rule="evenodd" d="M25 0C25.9205 0 26.6667 0.746192 26.6667 1.66667V6.66667C26.6667 7.58714 25.9205 8.33333 25 8.33333C24.0795 8.33333 23.3333 7.58714 23.3333 6.66667V1.66667C23.3333 0.746192 24.0795 0 25 0Z" fill="#0985BB"/>
<path fill-rule="evenodd" clip-rule="evenodd" d="M15 31.6667C15.9205 31.6667 16.6667 32.4129 16.6667 33.3333V38.3333C16.6667 39.2538 15.9205 40 15 40C14.0795 40 13.3333 39.2538 13.3333 38.3333V33.3333C13.3333 32.4129 14.0795 31.6667 15 31.6667Z" fill="#0985BB"/>
<path fill-rule="evenodd" clip-rule="evenodd" d="M25 31.6667C25.9205 31.6667 26.6667 32.4129 26.6667 33.3333V38.3333C26.6667 39.2538 25.9205 40 25 40C24.0795 40 23.3333 39.2538 23.3333 38.3333V33.3333C23.3333 32.4129 24.0795 31.6667 25 31.6667Z" fill="#0985BB"/>
<path fill-rule="evenodd" clip-rule="evenodd" d="M31.6667 15C31.6667 14.0795 32.4129 13.3333 33.3333 13.3333H38.3333C39.2538 13.3333 40 14.0795 40 15C40 15.9205 39.2538 16.6667 38.3333 16.6667H33.3333C32.4129 16.6667 31.6667 15.9205 31.6667 15Z" fill="#0985BB"/>
<path fill-rule="evenodd" clip-rule="evenodd" d="M31.6667 23.3333C31.6667 22.4129 32.4129 21.6667 33.3333 21.6667H38.3333C39.2538 21.6667 40 22.4129 40 23.3333C40 24.2538 39.2538 25 38.3333 25H33.3333C32.4129 25 31.6667 24.2538 31.6667 23.3333Z" fill="#0985BB"/>
<path fill-rule="evenodd" clip-rule="evenodd" d="M0 15C0 14.0795 0.746192 13.3333 1.66667 13.3333H6.66667C7.58714 13.3333 8.33333 14.0795 8.33333 15C8.33333 15.9205 7.58714 16.6667 6.66667 16.6667H1.66667C0.746192 16.6667 0 15.9205 0 15Z" fill="#0985BB"/>
<path fill-rule="evenodd" clip-rule="evenodd" d="M0 23.3346C0 22.4142 0.746192 21.668 1.66667 21.668H6.66667C7.58714 21.668 8.33333 22.4142 8.33333 23.3346C8.33333 24.2551 7.58714 25.0013 6.66667 25.0013H1.66667C0.746192 25.0013 0 24.2551 0 23.3346Z" fill="#0985BB"/>
</svg>
