<svg width="24" height="24" viewBox="0 0 24 24" fill="none" xmlns="http://www.w3.org/2000/svg">
<path d="M21.5029 19.791L20.4313 6.28584C20.3648 5.4157 19.6286 4.73438 18.7561 4.73438H16.6391V7.87111C16.6391 8.25956 16.3246 8.574 15.9362 8.574C15.5482 8.574 15.2333 8.25956 15.2333 7.87111V4.73438H8.76682V7.87111C8.76682 8.25956 8.45191 8.574 8.06393 8.574C7.67548 8.574 7.36104 8.25956 7.36104 7.87111V4.73438H5.24397C4.37149 4.73438 3.63532 5.4157 3.5688 6.28397L2.49668 19.7928C2.41376 20.8748 2.78908 21.9516 3.52615 22.7473C4.26326 23.5429 5.30819 23.9998 6.39297 23.9998H17.6072C18.6919 23.9998 19.7369 23.5429 20.474 22.7472C21.2111 21.9516 21.5864 20.8748 21.5029 19.791ZM15.1668 12.9135L11.5315 16.5488C11.3942 16.6861 11.2142 16.755 11.0343 16.755C10.8543 16.755 10.6744 16.6861 10.5371 16.5488L8.83338 14.845C8.55879 14.5704 8.55879 14.1257 8.83338 13.8511C9.10797 13.5765 9.55315 13.5765 9.82727 13.8511L11.0343 15.0577L14.1729 11.9192C14.447 11.6451 14.8922 11.6451 15.1668 11.9192C15.4413 12.1938 15.4413 12.6389 15.1668 12.9135Z" fill="#C4C4C4" fill-opacity="0.5"/>
<path d="M12.0003 0C9.4423 0 7.36133 2.08144 7.36133 4.63945V4.73456H8.76711V4.63945C8.76711 2.85647 10.2174 1.40573 12.0004 1.40573C13.7833 1.40573 15.2336 2.85647 15.2336 4.63945V4.73456H16.6393V4.63945C16.6393 2.08144 14.5583 0 12.0003 0Z" fill="#C4C4C4" fill-opacity="0.5"/>
</svg>
