<svg width="22" height="18" viewBox="0 0 22 18" fill="none" xmlns="http://www.w3.org/2000/svg">
<path d="M22 8.31569C22 6.80567 20.772 5.57767 19.262 5.57767C18.6582 5.57767 18.0846 5.77481 17.6164 6.13212C16.0886 5.07114 14.0871 4.43866 11.9583 4.27848L13.1069 1.58427L16.4487 2.3646C16.5554 3.39821 17.4207 4.20866 18.4816 4.20866C19.6138 4.20866 20.5352 3.28732 20.5352 2.15515C20.5352 1.02297 19.6138 0.10163 18.4816 0.10163C17.7643 0.10163 17.1332 0.472631 16.7663 1.03256L12.8605 0.119427C12.5292 0.0441313 12.2047 0.21252 12.0733 0.517809L10.4853 4.24152C8.18668 4.32092 5.99627 4.96846 4.3425 6.09653C3.8921 5.76249 3.33354 5.57767 2.73802 5.57767C1.228 5.57767 0 6.80567 0 8.31569C0 9.31644 0.546235 10.2214 1.38407 10.6855C1.37312 10.8059 1.36901 10.9291 1.36901 11.0537C1.36901 14.8281 5.6677 17.8988 10.9521 17.8988C16.2351 17.8988 20.5352 14.8281 20.5352 11.0537C20.5352 10.9469 20.5311 10.8415 20.5242 10.7361C21.4168 10.2816 22 9.35477 22 8.31569ZM18.4816 1.47064C18.8581 1.47064 19.1661 1.7773 19.1661 2.15515C19.1661 2.53299 18.8581 2.83965 18.4816 2.83965C18.1052 2.83965 17.7971 2.53299 17.7971 2.15515C17.7971 1.7773 18.1052 1.47064 18.4816 1.47064ZM6.16055 10.3692C6.16055 9.61488 6.77523 9.0002 7.52956 9.0002C8.28388 9.0002 8.89857 9.61488 8.89857 10.3692C8.89857 11.1249 8.28388 11.7382 7.52956 11.7382C6.77523 11.7382 6.16055 11.1249 6.16055 10.3692ZM14.1131 14.9102C13.1685 15.5934 12.0596 15.9356 10.9521 15.9356C9.84455 15.9356 8.73566 15.5934 7.79104 14.9102C7.48438 14.6884 7.41593 14.2599 7.63771 13.9546C7.85949 13.6494 8.28799 13.5809 8.59328 13.8013C10.0047 14.8212 11.8994 14.824 13.3109 13.8013C13.6162 13.5809 14.0433 13.6466 14.2665 13.9546C14.4882 14.2613 14.4184 14.6884 14.1131 14.9102ZM14.3746 11.7382C13.6189 11.7382 13.0056 11.1249 13.0056 10.3692C13.0056 9.61488 13.6189 9.0002 14.3746 9.0002C15.1303 9.0002 15.7436 9.61488 15.7436 10.3692C15.7436 11.1249 15.1303 11.7382 14.3746 11.7382Z" fill="#055071"/>
</svg>
