<svg width="24" height="24" viewBox="0 0 24 24" fill="none" xmlns="http://www.w3.org/2000/svg">
<path d="M0 9V21C0 21.8284 0.671539 22.5 1.5 22.5H6V7.5H1.5C0.671539 7.5 0 8.17154 0 9Z" fill="#C4C4C4" fill-opacity="0.5"/>
<path d="M21.23 8.9999H16.7988C16.4114 8.9999 16.2173 8.74135 16.1521 8.63002C16.0869 8.51943 15.9551 8.22426 16.1426 7.88588L17.7048 5.07265C18.0476 4.45668 18.0828 3.73231 17.8022 3.08558C17.5217 2.43812 16.968 1.96864 16.2832 1.79798L15.1816 1.52259C14.9136 1.45521 14.6294 1.5409 14.4426 1.74818L8.46167 8.39271C7.84131 9.08339 7.5 9.97402 7.5 10.9013V18.7499C7.5 20.8175 9.18237 22.4999 11.25 22.4999L18.7112 22.4992C20.3958 22.4992 21.8833 21.3646 22.3279 19.7408L23.9289 12.3932C23.9758 12.1888 24 11.9794 24 11.7699C24 10.2428 22.7571 8.99988 21.23 8.99988L21.23 8.9999Z" fill="#C4C4C4" fill-opacity="0.5"/>
</svg>

