<svg width="442" height="465" viewBox="0 0 442 465" fill="none" xmlns="http://www.w3.org/2000/svg">
<g clip-path="url(#clip0)" filter="url(#filter0_d)">
<path d="M291.095 126H246.205C236.35 126 223.172 131.29 216.205 138.043L124.104 227.294C120.167 231.107 118 236.194 118 241.617C118 247.04 120.168 252.126 124.104 255.94L177.912 308.085C181.847 311.899 187.097 314 192.692 314C198.288 314 203.537 311.899 207.474 308.085L299.573 218.832C306.541 212.081 312 199.31 312 189.76V146.256C311.999 135.086 302.621 126 291.095 126ZM280.2 164.922C279.143 165.95 277.676 166.537 276.18 166.537C274.684 166.537 273.22 165.949 272.163 164.922C271.102 163.898 270.496 162.479 270.496 161.029C270.496 159.578 271.103 158.158 272.163 157.133C273.217 156.109 274.684 155.521 276.18 155.521C277.676 155.521 279.143 156.109 280.2 157.133C281.257 158.158 281.864 159.579 281.864 161.029C281.864 162.479 281.257 163.898 280.2 164.922Z" fill="#0261F0"/>
<path d="M280.2 157.134C281.257 158.159 281.863 159.58 281.863 161.03C281.863 162.48 281.257 163.899 280.2 164.923C279.143 165.951 277.676 166.538 276.18 166.538C274.683 166.538 273.22 165.95 272.163 164.923L151.175 282.175L177.911 308.086C181.847 311.9 187.097 313.999 192.692 314.001C198.288 314.001 203.536 311.9 207.473 308.084L299.573 218.833C306.541 212.081 312 199.311 312 189.761V146.256C311.998 140.753 309.717 135.757 306.029 132.103L280.2 157.134Z" fill="#035ADD"/>
<path d="M194.204 254.479C196.786 256.982 195.71 260.276 193.128 262.781C188.736 267.035 184.259 264.949 182.495 266.659C181.159 267.953 181.849 270.79 183.054 271.959C185.551 274.379 192.697 272.96 198.336 267.494C204.277 261.738 205.396 254.477 199.24 248.512C196.175 245.542 193.048 244.539 190.013 244.533L177.579 256.584C184.077 255.045 190.184 250.583 194.204 254.479Z" fill="#D5EDED"/>
<path d="M214.305 229.492L206.815 236.751L203.673 231.296L198.241 236.56L207.159 252.854C207.288 253.062 207.418 253.27 207.504 253.355C208.882 254.689 211.852 253.646 213.357 252.186C214.305 251.269 214.737 250.267 214.135 249.265L210.044 242.131L219.903 232.578L227.263 236.541C228.298 237.125 229.329 236.709 230.277 235.79C231.783 234.33 232.816 231.409 231.481 230.117C231.353 229.992 231.181 229.908 230.966 229.783L214.152 221.14L208.677 226.445L214.305 229.492Z" fill="#D5EDED"/>
<path d="M235.011 227.781C236.173 228.909 237.982 228.325 239.229 227.114L252.876 213.888C253.995 212.806 253.307 211.053 252.102 209.885C250.853 208.675 249.088 208.048 247.968 209.134L237.464 219.313L226.751 208.931L221.154 214.355L235.011 227.781Z" fill="#D5EDED"/>
<path d="M270.482 187.319L258.299 199.124L249.646 190.739L256.19 184.398C257.358 183.265 256.826 181.664 255.889 180.693L241.988 194.165L255.845 207.593C257.007 208.72 258.816 208.136 260.065 206.926L275.388 192.075C276.595 190.907 275.905 189.154 274.744 188.029C273.409 186.735 271.601 186.234 270.482 187.319Z" fill="#D5EDED"/>
<path d="M170.785 247.719C168.718 245.718 169.235 242.798 172.333 239.793C175.95 236.289 178.576 236.915 179.911 235.622C181.461 234.12 180.169 231.533 179.178 230.575C176.337 227.821 170.095 232.702 167.555 235.163C162.604 239.961 159.29 247.428 165.703 253.645C175.906 263.531 187.745 248.221 194.203 254.479C196.786 256.982 195.71 260.277 193.125 262.781C188.735 267.035 184.258 264.95 182.492 266.66C181.159 267.953 181.847 270.79 183.052 271.959C185.549 274.379 192.696 272.961 198.335 267.494C204.276 261.738 205.395 254.478 199.24 248.513C188.09 237.708 176.122 252.894 170.785 247.719Z" fill="#FEF4F5"/>
<path d="M230.966 229.782L195.578 211.593C193.9 210.717 191.705 211.676 190.069 213.263C188.477 214.805 187.485 216.933 188.39 218.561L207.159 252.853C207.288 253.061 207.418 253.269 207.504 253.354C208.882 254.688 211.852 253.645 213.357 252.185C214.305 251.268 214.737 250.266 214.134 249.264L210.043 242.131L219.902 232.577L227.263 236.542C228.298 237.124 229.329 236.708 230.276 235.79C231.783 234.33 232.816 231.408 231.481 230.116C231.354 229.991 231.181 229.907 230.966 229.782ZM206.815 236.75L197.344 220.311L214.306 229.491L206.815 236.75Z" fill="#FEF4F5"/>
<path d="M247.967 209.136L237.463 219.316L212.624 195.243C211.417 194.076 209.481 194.952 208.103 196.286C206.683 197.663 205.821 199.499 207.026 200.668L235.009 227.785C236.171 228.911 237.979 228.328 239.229 227.117L252.875 213.893C253.994 212.808 253.304 211.055 252.1 209.888C250.852 208.677 249.088 208.051 247.967 209.136Z" fill="#FEF4F5"/>
<path d="M274.744 188.028C273.409 186.734 271.6 186.234 270.481 187.318L258.298 199.124L249.646 190.739L256.189 184.398C257.394 183.23 256.792 181.561 255.802 180.601C254.64 179.475 252.917 179.059 251.798 180.144L245.254 186.483L236.645 178.14L248.827 166.335C249.946 165.249 249.43 163.498 248.096 162.204C246.933 161.078 245.126 160.41 243.919 161.578L228.594 176.43C227.345 177.639 226.743 179.392 227.906 180.518L255.844 207.592C257.008 208.72 258.815 208.136 260.064 206.925L275.389 192.074C276.594 190.907 275.906 189.154 274.744 188.028Z" fill="#FEF4F5"/>
</g>
<g filter="url(#filter1_d)">
<circle cx="365" cy="187" r="37" fill="white"/>
</g>
<g filter="url(#filter2_d)">
<circle cx="321" cy="83" r="27" fill="white"/>
</g>
<g filter="url(#filter3_d)">
<circle cx="101" cy="84" r="59" fill="white"/>
</g>
<path d="M121.007 55.2679C120.775 55.0647 120.469 54.9722 120.159 55.0088L86.8368 59.3203C86.3004 59.3902 85.8995 59.8459 85.8995 60.3866V66.8544V71.3819V99.3674C84.0323 97.2283 81.1204 95.847 77.8387 95.847C72.1986 95.847 67.627 99.9113 67.627 104.924C67.627 109.936 72.1986 114 77.8387 114C83.4787 114 88.0504 109.936 88.0504 104.924C88.0504 104.567 88.0213 104.216 87.9762 103.869C88.0192 103.753 88.0504 103.632 88.0504 103.5V72.3257L119.223 68.2915V88.6171C117.355 86.4791 114.443 85.0978 111.161 85.0978C105.521 85.0978 100.949 89.1621 100.949 94.1744C100.949 99.1868 105.521 103.251 111.161 103.251C116.801 103.251 121.373 99.1868 121.373 94.1744C121.373 94.0756 121.36 93.9799 121.357 93.8821C121.359 93.853 121.373 93.8283 121.373 93.7993V67.0683V62.5418V56.0751C121.373 55.7655 121.239 55.471 121.007 55.2679Z" fill="#03E5F3"/>
<g filter="url(#filter4_d)">
<circle cx="76" cy="295" r="36" fill="white"/>
</g>
<g clip-path="url(#clip1)">
<path d="M89.4954 284.286C89.493 284.07 89.4093 283.858 89.2504 283.699L82.7981 277.247C82.7979 277.247 82.7976 277.247 82.7974 277.246C82.645 277.094 82.4345 277 82.2021 277H64.2775C63.2989 277 62.5029 277.796 62.5029 278.774V311.225C62.5029 312.204 63.2989 313 64.2774 313H87.7227C88.7012 313 89.4972 312.204 89.4972 311.225V284.295C89.4973 284.292 89.4957 284.289 89.4954 284.286ZM83.045 279.878L86.6193 283.452H83.1337C83.0849 283.452 83.045 283.412 83.045 283.363V279.878ZM87.8114 311.226C87.8114 311.274 87.7716 311.314 87.7228 311.314H64.2775C64.2286 311.314 64.1888 311.274 64.1888 311.226V278.774C64.1888 278.726 64.2286 278.686 64.2775 278.686H81.3592V283.363C81.3592 284.342 82.1553 285.138 83.1338 285.138H87.8115V311.226H87.8114Z" fill="#03E5F3" stroke="#03E5F3" stroke-width="0.5"/>
<path d="M83.4598 288.531H68.5411C68.0757 288.531 67.6982 288.909 67.6982 289.374C67.6982 289.84 68.0757 290.217 68.5411 290.217H83.4597C83.9252 290.217 84.3026 289.84 84.3026 289.374C84.3027 288.909 83.9252 288.531 83.4598 288.531Z" fill="#03E5F3" stroke="#03E5F3" stroke-width="0.5"/>
<path d="M83.4598 293.619H68.5411C68.0757 293.619 67.6982 293.997 67.6982 294.462C67.6982 294.928 68.0757 295.305 68.5411 295.305H83.4597C83.9252 295.305 84.3026 294.928 84.3026 294.462C84.3027 293.997 83.9252 293.619 83.4598 293.619Z" fill="#03E5F3" stroke="#03E5F3" stroke-width="0.5"/>
<path d="M83.4598 298.704H68.5411C68.0757 298.704 67.6982 299.082 67.6982 299.547C67.6982 300.013 68.0757 300.39 68.5411 300.39H83.4597C83.9252 300.39 84.3026 300.013 84.3026 299.547C84.3027 299.082 83.9252 298.704 83.4598 298.704Z" fill="#03E5F3" stroke="#03E5F3" stroke-width="0.5"/>
<path d="M76.0005 303.791H68.5411C68.0757 303.791 67.6982 304.168 67.6982 304.634C67.6982 305.099 68.0757 305.477 68.5411 305.477H76.0005C76.4659 305.477 76.8434 305.099 76.8434 304.634C76.8434 304.168 76.4659 303.791 76.0005 303.791Z" fill="#03E5F3" stroke="#03E5F3" stroke-width="0.5"/>
</g>
<g clip-path="url(#clip2)">
<path d="M376.329 186.49L358.376 174.109C358.186 173.978 357.94 173.965 357.736 174.071C357.533 174.178 357.405 174.388 357.405 174.618V199.381C357.405 199.611 357.533 199.822 357.736 199.929C357.827 199.976 357.926 200 358.024 200C358.148 200 358.27 199.963 358.376 199.89L376.329 187.509C376.497 187.393 376.596 187.203 376.596 187C376.596 186.796 376.496 186.606 376.329 186.49Z" fill="#03E5F3"/>
</g>
<g filter="url(#filter5_d)">
<circle cx="242" cy="365" r="45" fill="white"/>
</g>
<path d="M226.847 361.327C230.645 361.327 233.734 358.031 233.734 353.981C233.734 349.928 230.645 346.633 226.847 346.633C223.049 346.633 219.959 349.928 219.959 353.98C219.959 358.031 223.049 361.327 226.847 361.327ZM226.847 349.271C229.281 349.271 231.261 351.385 231.261 353.98C231.261 356.575 229.281 358.688 226.847 358.688C224.413 358.688 222.433 356.576 222.433 353.981C222.433 351.386 224.413 349.271 226.847 349.271Z" fill="#03E5F3"/>
<path d="M215.661 382.449C215.945 382.449 216.231 382.351 216.461 382.151L236.223 364.947L248.704 377.286C249.177 377.755 249.943 377.755 250.417 377.286C250.89 376.818 250.89 376.061 250.417 375.593L244.593 369.834L255.716 357.791L269.358 370.157C269.851 370.603 270.618 370.57 271.07 370.082C271.521 369.595 271.489 368.836 270.994 368.39L256.457 355.213C256.22 354.998 255.903 354.892 255.585 354.899C255.264 354.913 254.961 355.053 254.744 355.288L242.879 368.138L237.133 362.456C236.68 362.01 235.956 361.987 235.476 362.404L214.861 380.352C214.358 380.789 214.309 381.546 214.752 382.043C214.991 382.313 215.326 382.449 215.661 382.449Z" fill="#03E5F3"/>
<path d="M309.74 82.88C309.58 82.96 309.407 83.03 309.22 83.09C309.04 83.15 308.85 83.2067 308.65 83.26C309.05 83.3533 309.413 83.48 309.74 83.64L313.01 85.35C313.183 85.43 313.303 85.53 313.37 85.65C313.443 85.77 313.48 85.9033 313.48 86.05V87.99L305.47 83.8V82.71L313.48 78.53V80.47C313.48 80.61 313.443 80.74 313.37 80.86C313.303 80.98 313.183 81.08 313.01 81.16L309.74 82.88ZM319.772 89.96C319.645 90.2933 319.442 90.5433 319.162 90.71C318.888 90.8833 318.608 90.97 318.322 90.97H317.152L322.922 76.04C323.035 75.74 323.215 75.5067 323.462 75.34C323.708 75.1733 323.992 75.09 324.312 75.09H325.492L319.772 89.96ZM337.165 82.71V83.8L329.155 87.99V86.05C329.155 85.9033 329.188 85.77 329.255 85.65C329.328 85.53 329.452 85.43 329.625 85.35L332.895 83.64C333.062 83.56 333.235 83.49 333.415 83.43C333.595 83.3633 333.788 83.3067 333.995 83.26C333.788 83.2133 333.595 83.16 333.415 83.1C333.235 83.0333 333.062 82.96 332.895 82.88L329.625 81.16C329.452 81.08 329.328 80.98 329.255 80.86C329.188 80.74 329.155 80.61 329.155 80.47V78.53L337.165 82.71Z" fill="#03E5F3"/>
<defs>
<filter id="filter0_d" x="78" y="101" width="274" height="268" filterUnits="userSpaceOnUse" color-interpolation-filters="sRGB">
<feFlood flood-opacity="0" result="BackgroundImageFix"/>
<feColorMatrix in="SourceAlpha" type="matrix" values="0 0 0 0 0 0 0 0 0 0 0 0 0 0 0 0 0 0 127 0"/>
<feOffset dy="15"/>
<feGaussianBlur stdDeviation="20"/>
<feColorMatrix type="matrix" values="0 0 0 0 0 0 0 0 0 0 0 0 0 0 0 0 0 0 0.15 0"/>
<feBlend mode="normal" in2="BackgroundImageFix" result="effect1_dropShadow"/>
<feBlend mode="normal" in="SourceGraphic" in2="effect1_dropShadow" result="shape"/>
</filter>
<filter id="filter1_d" x="288" y="125" width="154" height="154" filterUnits="userSpaceOnUse" color-interpolation-filters="sRGB">
<feFlood flood-opacity="0" result="BackgroundImageFix"/>
<feColorMatrix in="SourceAlpha" type="matrix" values="0 0 0 0 0 0 0 0 0 0 0 0 0 0 0 0 0 0 127 0"/>
<feOffset dy="15"/>
<feGaussianBlur stdDeviation="20"/>
<feColorMatrix type="matrix" values="0 0 0 0 0 0 0 0 0 0 0 0 0 0 0 0 0 0 0.15 0"/>
<feBlend mode="normal" in2="BackgroundImageFix" result="effect1_dropShadow"/>
<feBlend mode="normal" in="SourceGraphic" in2="effect1_dropShadow" result="shape"/>
</filter>
<filter id="filter2_d" x="254" y="31" width="134" height="134" filterUnits="userSpaceOnUse" color-interpolation-filters="sRGB">
<feFlood flood-opacity="0" result="BackgroundImageFix"/>
<feColorMatrix in="SourceAlpha" type="matrix" values="0 0 0 0 0 0 0 0 0 0 0 0 0 0 0 0 0 0 127 0"/>
<feOffset dy="15"/>
<feGaussianBlur stdDeviation="20"/>
<feColorMatrix type="matrix" values="0 0 0 0 0 0 0 0 0 0 0 0 0 0 0 0 0 0 0.15 0"/>
<feBlend mode="normal" in2="BackgroundImageFix" result="effect1_dropShadow"/>
<feBlend mode="normal" in="SourceGraphic" in2="effect1_dropShadow" result="shape"/>
</filter>
<filter id="filter3_d" x="2" y="0" width="198" height="198" filterUnits="userSpaceOnUse" color-interpolation-filters="sRGB">
<feFlood flood-opacity="0" result="BackgroundImageFix"/>
<feColorMatrix in="SourceAlpha" type="matrix" values="0 0 0 0 0 0 0 0 0 0 0 0 0 0 0 0 0 0 127 0"/>
<feOffset dy="15"/>
<feGaussianBlur stdDeviation="20"/>
<feColorMatrix type="matrix" values="0 0 0 0 0 0 0 0 0 0 0 0 0 0 0 0 0 0 0.15 0"/>
<feBlend mode="normal" in2="BackgroundImageFix" result="effect1_dropShadow"/>
<feBlend mode="normal" in="SourceGraphic" in2="effect1_dropShadow" result="shape"/>
</filter>
<filter id="filter4_d" x="0" y="234" width="152" height="152" filterUnits="userSpaceOnUse" color-interpolation-filters="sRGB">
<feFlood flood-opacity="0" result="BackgroundImageFix"/>
<feColorMatrix in="SourceAlpha" type="matrix" values="0 0 0 0 0 0 0 0 0 0 0 0 0 0 0 0 0 0 127 0"/>
<feOffset dy="15"/>
<feGaussianBlur stdDeviation="20"/>
<feColorMatrix type="matrix" values="0 0 0 0 0 0 0 0 0 0 0 0 0 0 0 0 0 0 0.15 0"/>
<feBlend mode="normal" in2="BackgroundImageFix" result="effect1_dropShadow"/>
<feBlend mode="normal" in="SourceGraphic" in2="effect1_dropShadow" result="shape"/>
</filter>
<filter id="filter5_d" x="157" y="295" width="170" height="170" filterUnits="userSpaceOnUse" color-interpolation-filters="sRGB">
<feFlood flood-opacity="0" result="BackgroundImageFix"/>
<feColorMatrix in="SourceAlpha" type="matrix" values="0 0 0 0 0 0 0 0 0 0 0 0 0 0 0 0 0 0 127 0"/>
<feOffset dy="15"/>
<feGaussianBlur stdDeviation="20"/>
<feColorMatrix type="matrix" values="0 0 0 0 0 0 0 0 0 0 0 0 0 0 0 0 0 0 0.15 0"/>
<feBlend mode="normal" in2="BackgroundImageFix" result="effect1_dropShadow"/>
<feBlend mode="normal" in="SourceGraphic" in2="effect1_dropShadow" result="shape"/>
</filter>
<clipPath id="clip0">
<rect width="194" height="188" fill="white" transform="translate(118 126)"/>
</clipPath>
<clipPath id="clip1">
<rect width="36" height="36" fill="white" transform="translate(58 277)"/>
</clipPath>
<clipPath id="clip2">
<rect width="26" height="26" fill="white" transform="translate(354 174)"/>
</clipPath>
</defs>
</svg>
