<svg width="13" height="13" viewBox="0 0 13 13" fill="none" xmlns="http://www.w3.org/2000/svg">
<path d="M12.8857 12.337L9.72648 9.17783C10.5739 8.20355 11.087 6.93237 11.087 5.54302C11.087 2.4847 8.59943 0 5.54399 0C2.48568 0 0.000976562 2.48758 0.000976562 5.54302C0.000976562 8.59845 2.48856 11.086 5.54399 11.086C6.93335 11.086 8.20453 10.5729 9.17881 9.7255L12.338 12.8847C12.413 12.9596 12.5138 13 12.6118 13C12.7098 13 12.8107 12.9625 12.8857 12.8847C13.0356 12.7348 13.0356 12.4869 12.8857 12.337ZM0.776365 5.54302C0.776365 2.91419 2.91517 0.778271 5.54111 0.778271C8.16994 0.778271 10.3059 2.91707 10.3059 5.54302C10.3059 8.16896 8.16994 10.3106 5.54111 10.3106C2.91517 10.3106 0.776365 8.17184 0.776365 5.54302Z" fill="#5C6E85"/>
</svg>
