<svg width="123" height="282" viewBox="0 0 123 282" fill="none" xmlns="http://www.w3.org/2000/svg">
<g clip-path="url(#clip0)">
<path d="M288.514 68.2316C288.514 55.4906 277.586 45.1262 264.151 45.1262C257.254 45.1262 251.02 47.864 246.583 52.2478L151.507 0.189675C149.712 -0.792392 147.503 -0.792392 145.708 0.189675L50.6296 52.2478C46.1929 47.864 39.9615 45.1262 33.064 45.1262C19.6293 45.1262 8.70068 55.4906 8.70068 68.2316C8.70068 79.0752 16.6201 88.1932 27.2632 90.6688V194.748C27.2632 196.713 28.369 198.528 30.1636 199.513L125.211 251.556C124.581 253.606 124.236 255.772 124.236 258.013C124.236 270.752 135.165 281.119 148.6 281.119C162.032 281.119 172.961 270.752 172.961 258.013C172.961 255.774 172.619 253.612 171.989 251.562L267.051 199.513C268.846 198.531 269.952 196.713 269.952 194.748V90.6688C280.595 88.1932 288.514 79.0752 288.514 68.2316ZM20.3023 68.2316C20.3023 61.557 26.026 56.1288 33.064 56.1288C40.0998 56.1288 45.8235 61.557 45.8235 68.2316C45.8235 74.9041 40.0998 80.3345 33.064 80.3345C26.026 80.3345 20.3023 74.9041 20.3023 68.2316ZM148.6 270.116C141.562 270.116 135.838 264.688 135.838 258.013C135.838 251.341 141.562 245.911 148.6 245.911C155.635 245.911 161.361 251.341 161.361 258.013C161.361 264.688 155.635 270.116 148.6 270.116ZM166.179 242.04C161.74 237.65 155.504 234.908 148.6 234.908C141.7 234.908 135.464 237.648 131.027 242.034L38.8648 191.572V90.6688C49.5057 88.1932 57.4251 79.0752 57.4251 68.2316C57.4251 65.9881 57.0807 63.8199 56.4485 61.7655L148.606 11.3062L240.767 61.7655C240.134 63.8199 239.79 65.986 239.79 68.2316C239.79 79.0752 247.709 88.1932 258.35 90.6688V191.572L166.179 242.04ZM264.151 80.3345C257.115 80.3345 251.389 74.9041 251.389 68.2316C251.389 61.557 257.115 56.1288 264.151 56.1288C271.189 56.1288 276.913 61.557 276.913 68.2316C276.913 74.9041 271.189 80.3345 264.151 80.3345Z" fill="#D0E1EA" fill-opacity="0.3"/>
<path d="M228.077 84.7911L151.507 42.8674C149.712 41.8853 147.503 41.8853 145.708 42.8674L69.1377 84.7911C67.3431 85.7753 66.2373 87.5912 66.2373 89.5553V173.405C66.2373 175.369 67.3431 177.187 69.1377 178.169L145.708 220.095C146.606 220.585 147.605 220.832 148.606 220.832C149.61 220.832 150.609 220.585 151.507 220.095L228.077 178.169C229.872 177.187 230.978 175.369 230.978 173.405V89.5553C230.978 87.5912 229.872 85.7753 228.077 84.7911ZM148.606 53.9839L213.575 89.5553L148.606 125.129L83.6397 89.5553L148.606 53.9839ZM154.407 205.802V180.993C154.407 177.954 151.81 175.492 148.606 175.492C145.405 175.492 142.808 177.954 142.808 180.993V205.802L77.8389 170.229V99.0837L145.708 136.245C146.606 136.735 147.605 136.982 148.606 136.982C149.61 136.982 150.609 136.735 151.507 136.245L219.376 99.0837V170.229L154.407 205.802Z" fill="#D0E1EA" fill-opacity="0.3"/>
</g>
<defs>
<clipPath id="clip0">
<rect width="297" height="281.665" fill="white"/>
</clipPath>
</defs>
</svg>
