<svg width="16" height="16" viewBox="0 0 16 16" fill="none" xmlns="http://www.w3.org/2000/svg">
<path d="M13.0146 10.169C12.0883 10.169 11.2713 10.6103 10.7374 11.2861L5.78618 8.75407C5.851 8.51231 5.89759 8.26252 5.89759 7.99963C5.89759 7.71344 5.84225 7.444 5.76504 7.18182L10.6945 4.66143C11.2253 5.36782 12.0635 5.82953 13.0153 5.82953C14.6276 5.82953 15.9319 4.52527 15.9319 2.91441C15.9319 1.305 14.6276 0 13.0154 0C11.4067 0 10.101 1.305 10.101 2.91438C10.101 3.17801 10.1476 3.42851 10.2131 3.67101L5.26259 6.20308C4.72807 5.52657 3.90952 5.0838 2.98176 5.0838C1.37089 5.0838 0.0673828 6.38951 0.0673828 7.99963C0.0673828 9.60975 1.37093 10.9147 2.98176 10.9147C3.93501 10.9147 4.7725 10.4516 5.30554 9.74449L10.2328 12.2649C10.1555 12.5263 10.0995 12.798 10.0995 13.0849C10.0995 14.695 11.4052 16 13.0139 16C14.6262 16 15.9305 14.695 15.9305 13.0849C15.9312 11.4733 14.6269 10.169 13.0146 10.169Z" fill="#81A2B8"/>
</svg>
