<svg width="156" height="156" viewBox="0 0 156 156" fill="none" xmlns="http://www.w3.org/2000/svg">
<g clip-path="url(#clip0)">
<path d="M63.013 80.7754H72.69C75.3385 80.7754 77.4922 82.9291 77.4922 85.5775V92.9991C77.4922 95.6475 75.3385 97.8012 72.69 97.8012H63.013C60.3645 97.8012 58.2108 95.6475 58.2108 92.9991V85.5775C58.2108 82.9291 60.3645 80.7754 63.013 80.7754ZM61.7033 92.9991C61.7033 93.7267 62.2999 94.3087 63.013 94.3087H72.69C73.4176 94.3087 73.9997 93.7121 73.9997 92.9991V85.5775C73.9997 84.8499 73.4031 84.2679 72.69 84.2679H63.013C62.2854 84.2679 61.7033 84.8645 61.7033 85.5775V92.9991Z" fill="#D0DCE2"/>
<path d="M42.392 67.2829C42.392 66.9773 42.4647 66.6863 42.6248 66.4244L53.2187 47.7978C53.5242 47.2594 54.1063 46.9102 54.7321 46.9102H101.284C101.91 46.9102 102.492 47.2449 102.797 47.7978L113.377 66.4244C113.522 66.6863 113.609 66.9773 113.609 67.2829C113.609 71.4593 111.092 75.0391 107.498 76.6253V107.345C107.498 108.305 106.712 109.091 105.751 109.091H96.1033C96.0888 109.091 96.0742 109.091 96.0597 109.091H82.5263C82.5118 109.091 82.4972 109.091 82.4827 109.091H50.2646C49.3042 109.091 48.5184 108.305 48.5184 107.345V76.8436C48.5184 76.7708 48.5184 76.7126 48.5329 76.6544C44.924 75.0682 42.392 71.4739 42.392 67.2829ZM100.265 50.4172H55.7507L47.4706 64.9837H108.531L100.265 50.4172ZM62.9248 68.4616C63.4778 71.6049 66.2281 73.9914 69.5314 73.9914C72.8347 73.9914 75.585 71.6049 76.138 68.4616H62.9248ZM79.8488 68.4616C80.4018 71.6049 83.1521 73.9914 86.4554 73.9914C89.7587 73.9914 92.509 71.6049 93.0765 68.4616H79.8488ZM110 68.4616H96.7727C97.3257 71.6049 100.091 73.9914 103.394 73.9914C106.697 74.0059 109.448 71.6049 110 68.4616ZM84.2726 105.598H94.3134V86.7535C94.3134 85.3856 93.2075 84.2651 91.8251 84.2651H86.7464C85.3785 84.2651 84.258 85.371 84.258 86.7535V105.598H84.2726ZM52.0108 105.598H80.7801V86.7535C80.7801 83.4647 83.4577 80.7726 86.761 80.7726H91.8396C95.1284 80.7726 97.8205 83.4502 97.8205 86.7535V105.613H104.005V77.4839C103.801 77.4984 103.598 77.4984 103.394 77.4984C99.8723 77.4984 96.7582 75.7085 94.9246 72.9873C93.0911 75.7085 89.977 77.4984 86.4554 77.4984C82.9338 77.4984 79.8342 75.7085 77.9861 72.9873C76.1526 75.7085 73.0385 77.4984 69.5314 77.4984C66.0098 77.4984 62.9103 75.7085 61.0767 72.9873C59.2432 75.7085 56.129 77.4984 52.6075 77.4984C52.4037 77.4984 52.2146 77.4839 52.0108 77.4839V105.598ZM52.6075 74.0059C55.9108 74.0059 58.6611 71.6194 59.2141 68.4762H45.9863C46.5538 71.6049 49.3042 74.0059 52.6075 74.0059Z" fill="#D0DCE2"/>
</g>
<circle cx="78" cy="78" r="76.5" stroke="#E7F0F5" stroke-width="3"/>
<defs>
<clipPath id="clip0">
<rect width="71.2174" height="71.2174" fill="white" transform="matrix(-1 0 0 1 113.609 42.3926)"/>
</clipPath>
</defs>
</svg>
