<svg width="154" height="24" viewBox="0 0 154 24" fill="none" xmlns="http://www.w3.org/2000/svg">
<g clip-path="url(#clip0)">
<path d="M11.6669 0.90332L15.2717 8.20823L23.3333 9.37994L17.4999 15.0657L18.8769 23.0948L11.6669 19.3042L4.45641 23.0948L5.83344 15.0657L0 9.37994L8.06165 8.20823L11.6669 0.90332Z" fill="#EFCE4A"/>
</g>
<g clip-path="url(#clip1)">
<path d="M44.3334 0.90332L47.9382 8.20823L55.9998 9.37994L50.1664 15.0657L51.5434 23.0948L44.3334 19.3042L37.1229 23.0948L38.4999 15.0657L32.6665 9.37994L40.7281 8.20823L44.3334 0.90332Z" fill="#EFCE4A"/>
</g>
<g clip-path="url(#clip2)">
<path d="M77.0004 0.90332L80.6052 8.20823L88.6668 9.37994L82.8334 15.0657L84.2104 23.0948L77.0004 19.3042L69.7899 23.0948L71.1669 15.0657L65.3335 9.37994L73.3951 8.20823L77.0004 0.90332Z" fill="#EFCE4A"/>
</g>
<g clip-path="url(#clip3)">
<path d="M109.667 0.90332L113.272 8.20823L121.333 9.37994L115.5 15.0657L116.877 23.0948L109.667 19.3042L102.456 23.0948L103.833 15.0657L98 9.37994L106.062 8.20823L109.667 0.90332Z" fill="#EFCE4A"/>
</g>
<g clip-path="url(#clip4)">
<path d="M135.381 23.1142C135.294 23.1142 135.208 23.0875 135.135 23.0344C135.007 22.9409 134.942 22.7826 134.97 22.626L136.261 15.1006L130.793 9.7717C130.679 9.6606 130.638 9.49479 130.687 9.34402C130.737 9.19282 130.867 9.08256 131.025 9.05959L138.58 7.96157L141.959 1.11489C142.03 0.97205 142.175 0.881836 142.334 0.881836C142.493 0.881836 142.638 0.97205 142.708 1.11489L146.087 7.96157L153.643 9.05959C153.8 9.08256 153.93 9.19241 153.98 9.34402C154.029 9.49479 153.988 9.66102 153.874 9.7717L148.407 15.1014L149.697 22.6264C149.724 22.783 149.66 22.9413 149.532 23.0349C149.403 23.1293 149.232 23.1414 149.091 23.0666L142.334 19.514L135.575 23.0666C135.514 23.0983 135.447 23.1142 135.381 23.1142ZM131.982 9.76418L137.001 14.6562C137.099 14.7519 137.144 14.8905 137.12 15.0258L135.936 21.9331L142.139 18.672C142.261 18.6077 142.406 18.6077 142.528 18.672L148.731 21.9331L147.547 15.0258C147.524 14.8905 147.569 14.7523 147.667 14.6562L152.685 9.76418L145.75 8.75637C145.614 8.73674 145.497 8.65112 145.436 8.52791L142.334 2.24382L139.232 8.52833C139.171 8.65154 139.053 8.73716 138.917 8.75679L131.982 9.76418Z" fill="#83959F"/>
</g>
<defs>
<clipPath id="clip0">
</clipPath>
<clipPath id="clip1">
</clipPath>
<clipPath id="clip2">
</clipPath>
<clipPath id="clip3">
</clipPath>
<clipPath id="clip4">
</clipPath>
</defs>
</svg>
