<svg width="108" height="17" viewBox="0 0 108 17" fill="none" xmlns="http://www.w3.org/2000/svg">
<g clip-path="url(#clip0)">
<path d="M8.18197 0.400391L10.71 5.52331L16.3636 6.34503L12.2727 10.3324L13.2384 15.9633L8.18197 13.3049L3.12527 15.9633L4.09098 10.3324L0 6.34503L5.65362 5.52331L8.18197 0.400391Z" fill="#F2B744"/>
</g>
<g clip-path="url(#clip1)">
<path d="M31.0911 0.400391L33.6191 5.52331L39.2728 6.34503L35.1818 10.3324L36.1475 15.9633L31.0911 13.3049L26.0344 15.9633L27.0001 10.3324L22.9091 6.34503L28.5627 5.52331L31.0911 0.400391Z" fill="#F2B744"/>
</g>
<g clip-path="url(#clip2)">
<path d="M54.0001 0.400391L56.5282 5.52331L62.1818 6.34503L58.0908 10.3324L59.0565 15.9633L54.0001 13.3049L48.9434 15.9633L49.9092 10.3324L45.8182 6.34503L51.4718 5.52331L54.0001 0.400391Z" fill="#F2B744"/>
</g>
<g clip-path="url(#clip3)">
<path d="M76.9093 0.400391L79.4373 5.52331L85.0909 6.34503L80.9999 10.3324L81.9657 15.9633L76.9093 13.3049L71.8526 15.9633L72.8183 10.3324L68.7273 6.34503L74.3809 5.52331L76.9093 0.400391Z" fill="#F2B744"/>
</g>
<g clip-path="url(#clip4)">
<path d="M94.9426 15.9783C94.882 15.9783 94.8213 15.9595 94.7704 15.9223C94.6802 15.8567 94.6351 15.7457 94.6541 15.6359L95.5595 10.3583L91.7251 6.62117C91.6454 6.54326 91.6167 6.42697 91.651 6.32123C91.6855 6.2152 91.7772 6.13788 91.8876 6.12177L97.1862 5.35172L99.5561 0.550159C99.6053 0.449986 99.7073 0.386719 99.8186 0.386719C99.9302 0.386719 100.032 0.449986 100.081 0.550159L102.451 5.35172L107.75 6.12177C107.86 6.13788 107.951 6.21491 107.986 6.32123C108.02 6.42697 107.992 6.54355 107.912 6.62117L104.078 10.3589L104.983 15.6361C105.001 15.746 104.956 15.857 104.866 15.9226C104.776 15.9888 104.656 15.9973 104.558 15.9449L99.8186 13.4534L95.0788 15.9449C95.036 15.9671 94.9892 15.9783 94.9426 15.9783ZM92.559 6.6159L96.0785 10.0467C96.1473 10.1137 96.179 10.211 96.1625 10.3059L95.3316 15.1499L99.6824 12.8629C99.7676 12.8178 99.8692 12.8178 99.9551 12.8629L104.305 15.1499L103.475 10.3059C103.458 10.211 103.49 10.114 103.559 10.0467L107.078 6.6159L102.215 5.90912C102.119 5.89535 102.037 5.83531 101.994 5.7489L99.8186 1.34188L97.6432 5.74919C97.6004 5.8356 97.5181 5.89565 97.4226 5.90941L92.559 6.6159Z" fill="#83959F"/>
</g>
<defs>
<clipPath id="clip0">
<rect width="16.3636" height="16.3636" fill="white"/>
</clipPath>
<clipPath id="clip1">
<rect width="16.3636" height="16.3636" fill="white" transform="translate(22.9091)"/>
</clipPath>
<clipPath id="clip2">
<rect width="16.3636" height="16.3636" fill="white" transform="translate(45.8182)"/>
</clipPath>
<clipPath id="clip3">
<rect width="16.3636" height="16.3636" fill="white" transform="translate(68.7273)"/>
</clipPath>
<clipPath id="clip4">
<rect width="16.3636" height="16.3636" fill="white" transform="translate(91.6364)"/>
</clipPath>
</defs>
</svg>
