<svg width="24" height="20" viewBox="0 0 24 20" fill="none" xmlns="http://www.w3.org/2000/svg">
<path d="M23.5824 3.33038H20.6749L18.9092 0H21.5259L23.5824 3.33038ZM9.88031 0L8.83874 3.33038H4.61505L6.74548 0H9.88031ZM13.0149 0L14.0565 3.33038H9.94887L10.9904 0H13.0149ZM17.7092 0L19.475 3.33038H15.1666L14.1251 0H17.7092ZM9.75332 4.38765H14.2467V5.97355C14.2467 7.21439 13.2408 8.22023 12 8.22023C10.7592 8.22023 9.75332 7.21439 9.75332 5.97355V4.38765ZM4.20805 4.38765H8.70142V5.97355C8.70142 7.21439 7.69557 8.22023 6.45473 8.22023C5.21389 8.22023 4.20805 7.21439 4.20805 5.97355V4.38765ZM5.95253 9.24053C6.1169 9.26614 6.28313 9.27853 6.44936 9.2775C7.57106 9.27688 8.61593 8.70757 9.22468 7.76573C9.83592 8.71294 10.888 9.28287 12.0153 9.2775C13.1426 9.27213 14.1891 8.69208 14.7912 7.7393C15.3961 8.69703 16.4496 9.2777 17.5824 9.2775C17.7398 9.2777 17.8969 9.26717 18.0528 9.2459V14.9657H5.95253V9.24053ZM17.5771 8.22023C16.3375 8.21755 15.3331 7.21335 15.3304 5.97355V4.38765H19.8238V5.97355C19.8229 7.21397 18.8175 8.21941 17.5771 8.22023ZM2.98682 0H5.48193L3.3517 3.33038H0.52352L2.98682 0ZM5.00712e-05 5.49778V4.38765H3.11898V5.49778C3.12745 6.2709 2.56247 6.93066 1.7974 7.04134C1.73814 7.02028 1.67557 7.00954 1.61238 7.00975C1.5399 7.00995 1.46804 7.02441 1.40093 7.05208C0.601782 6.97526 -0.00635135 6.30064 5.00712e-05 5.49778ZM2.14638 19.3479V8.05111C2.62814 7.94683 3.06901 7.7042 3.4151 7.35336L3.44153 7.32693C3.74384 7.99391 4.25616 8.54361 4.90043 8.89155V15.4943C4.90146 15.7859 5.13749 16.0221 5.42906 16.0229H18.5815C18.8731 16.0221 19.1093 15.7859 19.1101 15.4943V8.90229C19.7618 8.56219 20.2824 8.01559 20.5903 7.34799L20.5956 7.35336C20.9432 7.70213 21.3834 7.94435 21.8644 8.05111V19.3479H2.14638ZM24 5.49778C24.0059 6.3025 23.3951 6.97774 22.5939 7.05208C22.5268 7.02441 22.4549 7.00995 22.3825 7.00975C22.3193 7.00954 22.2567 7.02028 22.1974 7.04134C21.4324 6.93045 20.8676 6.27069 20.8759 5.49778V4.38765H23.9948V5.49778H24Z" fill="white" fill-opacity="0.7"/>
</svg>
