<svg width="40" height="40" viewBox="0 0 40 40" fill="none" xmlns="http://www.w3.org/2000/svg">
<path fill-rule="evenodd" clip-rule="evenodd" d="M19.0922 1.93723C19.6445 1.57822 20.3565 1.57822 20.9088 1.93723L37.5755 12.7706C38.0484 13.078 38.3338 13.6038 38.3338 14.168V25.8346C38.3338 26.3988 38.0484 26.9246 37.5755 27.232L20.9088 38.0654C20.3565 38.4244 19.6445 38.4244 19.0922 38.0654L2.42549 27.232C1.9525 26.9246 1.66714 26.3988 1.66714 25.8346V14.168C1.66714 13.6038 1.9525 13.078 2.42549 12.7706L19.0922 1.93723ZM5.00047 15.0724V24.9302L20.0005 34.6802L35.0005 24.9302V15.0724L20.0005 5.32245L5.00047 15.0724Z" fill="#0985BB"/>
<path fill-rule="evenodd" clip-rule="evenodd" d="M20.0005 24.168C20.9209 24.168 21.6671 24.9142 21.6671 25.8346V36.668C21.6671 37.5884 20.9209 38.3346 20.0005 38.3346C19.08 38.3346 18.3338 37.5884 18.3338 36.668V25.8346C18.3338 24.9142 19.08 24.168 20.0005 24.168Z" fill="#0985BB"/>
<path fill-rule="evenodd" clip-rule="evenodd" d="M1.96842 13.2122C2.49627 12.4581 3.53549 12.2747 4.28957 12.8026L20.0005 23.8002L35.7114 12.8026C36.4654 12.2747 37.5047 12.4581 38.0325 13.2122C38.5604 13.9663 38.377 15.0055 37.6229 15.5334L20.9562 27.2C20.3824 27.6017 19.6186 27.6017 19.0447 27.2L2.37803 15.5334C1.62395 15.0055 1.44056 13.9663 1.96842 13.2122Z" fill="#0985BB"/>
<path fill-rule="evenodd" clip-rule="evenodd" d="M19.0447 12.8026C19.6186 12.4009 20.3824 12.4009 20.9562 12.8026L37.6229 24.4692C38.377 24.9971 38.5604 26.0363 38.0325 26.7904C37.5047 27.5445 36.4654 27.7279 35.7114 27.2L20.0005 16.2024L4.28957 27.2C3.53549 27.7279 2.49627 27.5445 1.96842 26.7904C1.44056 26.0363 1.62395 24.9971 2.37803 24.4692L19.0447 12.8026Z" fill="#0985BB"/>
<path fill-rule="evenodd" clip-rule="evenodd" d="M20.0005 1.66797C20.9209 1.66797 21.6671 2.41416 21.6671 3.33464V14.168C21.6671 15.0884 20.9209 15.8346 20.0005 15.8346C19.08 15.8346 18.3338 15.0884 18.3338 14.168V3.33464C18.3338 2.41416 19.08 1.66797 20.0005 1.66797Z" fill="#0985BB"/>
</svg>
