<svg width="50" height="42" viewBox="0 0 50 42" fill="none" xmlns="http://www.w3.org/2000/svg">
<path fill-rule="evenodd" clip-rule="evenodd" d="M15.688 7.66223C16.1701 7.1801 16.1701 6.39841 15.688 5.91628C15.2059 5.43416 14.4242 5.43416 13.942 5.91628L5.30007 14.5583C4.81794 15.0404 4.81794 15.8221 5.30007 16.3042L13.942 24.9462C14.4242 25.4283 15.2059 25.4283 15.688 24.9462C16.1701 24.4641 16.1701 23.6824 15.688 23.2002L9.15356 16.6658H23.457C24.1388 16.6658 24.6916 16.1131 24.6916 15.4312C24.6916 14.7494 24.1388 14.1967 23.457 14.1967H9.15355L15.688 7.66223Z" fill="#0985BB"/>
<path fill-rule="evenodd" clip-rule="evenodd" d="M34.312 18.463C33.8299 17.9809 33.8299 17.1992 34.312 16.7171C34.7941 16.2349 35.5758 16.2349 36.058 16.7171L44.6999 25.359C45.1821 25.8412 45.1821 26.6229 44.6999 27.105L36.058 35.747C35.5758 36.2291 34.7941 36.2291 34.312 35.747C33.8299 35.2648 33.8299 34.4831 34.312 34.001L40.8464 27.4666H26.543C25.8612 27.4666 25.3084 26.9138 25.3084 26.232C25.3084 25.5502 25.8612 24.9974 26.543 24.9974H40.8464L34.312 18.463Z" fill="#0985BB"/>
</svg>
