<svg width="21" height="17" viewBox="0 0 21 17" fill="none" xmlns="http://www.w3.org/2000/svg">
<path d="M20.8402 2.005C20.0736 2.34491 19.249 2.57481 18.3843 2.67748C19.2672 2.14849 19.9448 1.31148 20.2646 0.312484C19.4384 0.802575 18.523 1.15811 17.5495 1.34974C16.7696 0.519107 15.6583 0 14.4279 0C12.067 0 10.1522 1.91476 10.1522 4.27562C10.1522 4.61074 10.1902 4.93693 10.2635 5.25006C6.71012 5.07181 3.55945 3.36973 1.4505 0.782167C1.08254 1.41351 0.871449 2.14849 0.871449 2.93193C0.871449 4.41496 1.62683 5.7242 2.77346 6.49075C2.07292 6.46875 1.41319 6.27647 0.837012 5.95538C0.836693 5.97355 0.836693 5.99173 0.836693 6.00958C0.836693 8.08123 2.31111 9.80914 4.26669 10.2017C3.90829 10.2999 3.5298 10.3518 3.14047 10.3518C2.86433 10.3518 2.59681 10.3254 2.33598 10.2756C2.87996 11.9739 4.45864 13.2101 6.33004 13.2449C4.86647 14.3918 3.02313 15.0751 1.0194 15.0751C0.67503 15.0751 0.333848 15.055 0 15.0152C1.89117 16.2288 4.13914 16.9363 6.55356 16.9363C14.418 16.9363 18.7188 10.4214 18.7188 4.77081C18.7188 4.58555 18.7146 4.40093 18.7063 4.2179C19.5424 3.61525 20.2672 2.86242 20.8402 2.005Z" fill="#055071"/>
</svg>
