<svg width="31" height="25" viewBox="0 0 31 25" fill="none" xmlns="http://www.w3.org/2000/svg">
<path d="M30.6801 3.65753C29.5758 4.13097 28.3898 4.45053 27.1429 4.59265C28.4142 3.85759 29.391 2.69343 29.8517 1.30659C28.661 1.98643 27.3437 2.48251 25.941 2.74775C24.8169 1.59355 23.2163 0.87207 21.4439 0.87207C18.0427 0.87207 15.287 3.5317 15.287 6.81323C15.287 7.27853 15.3405 7.73296 15.4456 8.16748C10.3274 7.91945 5.78998 5.55403 2.7519 1.95928C2.22272 2.83737 1.91872 3.85759 1.91872 4.9466C1.91872 7.00876 3.00616 8.82651 4.6575 9.89289C3.64887 9.86121 2.69935 9.59506 1.86899 9.14968C1.86806 9.17412 1.86806 9.20037 1.86806 9.22391C1.86806 12.1035 3.9904 14.5051 6.80799 15.051C6.29195 15.1859 5.74776 15.2592 5.18574 15.2592C4.78792 15.2592 4.40323 15.2221 4.02793 15.1533C4.81044 17.5124 7.08572 19.2305 9.77946 19.2794C7.67307 20.8727 5.01779 21.8241 2.13264 21.8241C1.63537 21.8241 1.14466 21.796 0.66333 21.7408C3.38804 23.4246 6.62503 24.4086 10.1032 24.4086C21.4298 24.4086 27.6252 15.3552 27.6252 7.50303C27.6252 7.24594 27.6177 6.98885 27.6064 6.73357C28.8102 5.89621 29.8535 4.85065 30.6801 3.65753Z" fill="#55ACEE"/>
</svg>
