<?xml version="1.0" standalone="no"?>
<!DOCTYPE svg PUBLIC "-//W3C//DTD SVG 20010904//EN"
 "http://www.w3.org/TR/2001/REC-SVG-20010904/DTD/svg10.dtd">
<svg version="1.0" xmlns="http://www.w3.org/2000/svg"
 width="818.000000pt" height="1955.000000pt" viewBox="0 0 818.000000 1955.000000"
 preserveAspectRatio="xMidYMid meet">

<g transform="translate(0.000000,1955.000000) scale(0.100000,-0.100000)"
fill="#000000" stroke="none">
<path d="M2860 19522 c-19 -20 -37 -58 -57 -120 -15 -51 -32 -92 -37 -92 -4 0
-31 20 -58 45 -82 73 -110 64 -188 -62 -21 -34 -50 -69 -64 -79 -24 -15 -28
-15 -52 1 -14 9 -38 43 -52 75 -15 33 -31 58 -37 57 -21 -6 -96 -131 -116
-195 -25 -81 -27 -226 -5 -317 8 -33 14 -61 12 -62 -1 -1 -39 31 -85 72 -46
41 -87 75 -91 75 -12 0 8 -96 28 -137 11 -21 50 -69 86 -106 60 -61 65 -70 55
-90 -24 -44 -50 -48 -82 -11 -49 57 -101 63 -127 14 -16 -30 -12 -44 30 -106
49 -73 52 -112 11 -192 -68 -136 -99 -314 -86 -496 14 -186 14 -185 -30 -220
-147 -117 -181 -199 -206 -503 -11 -136 -8 -248 12 -563 25 -392 109 -769 284
-1277 l66 -192 -39 -39 c-51 -51 -62 -98 -62 -261 0 -202 35 -331 124 -455 55
-77 186 -190 202 -174 7 8 -34 635 -57 873 -20 197 -21 250 -16 835 3 344 11
684 16 755 27 330 88 625 177 855 55 141 56 141 190 161 92 14 200 2 301 -35
38 -13 125 -44 195 -69 203 -74 314 -92 558 -92 225 0 276 7 541 65 237 53
384 71 574 71 265 1 459 -40 708 -150 26 -11 50 -28 54 -38 4 -10 15 -24 25
-31 10 -7 18 -20 18 -28 0 -8 4 -14 10 -14 17 0 80 -147 105 -245 15 -57 29
-153 35 -233 5 -76 15 -189 21 -252 22 -227 -1 -666 -57 -1065 -46 -334 -166
-874 -238 -1074 -25 -68 -22 -81 19 -81 47 0 106 31 137 72 36 47 93 164 188
383 138 321 156 345 255 345 137 -1 213 -97 246 -310 35 -227 -52 -511 -200
-660 -73 -72 -174 -130 -266 -151 -114 -26 -158 -44 -179 -72 -21 -28 -21 -38
-20 -480 0 -343 4 -495 17 -632 9 -99 17 -184 17 -189 0 -14 289 2 346 19 54
16 136 65 131 78 -1 5 -42 21 -89 37 -161 51 -242 120 -278 238 -11 35 -20 68
-20 72 0 5 46 -16 103 -45 123 -64 190 -85 272 -85 60 0 149 23 161 41 3 5
-17 35 -46 65 -79 87 -83 100 -88 254 -6 223 14 339 187 1055 150 625 177 818
201 1440 27 699 -42 1297 -205 1765 -115 328 -290 542 -550 670 -109 54 -122
58 -465 154 -271 76 -336 91 -480 106 -118 13 -265 57 -382 116 -40 20 -154
83 -253 139 -277 158 -396 205 -567 225 -123 15 -135 21 -144 67 -12 70 -13
71 -126 75 -88 3 -111 7 -160 31 -74 36 -158 120 -194 193 -23 46 -28 71 -27
119 2 82 -7 95 -63 95 -37 0 -51 -6 -74 -28z"/>
<path d="M4507 16729 c-112 -13 -166 -61 -153 -134 13 -66 42 -77 291 -110
232 -31 479 -99 760 -210 88 -35 171 -66 185 -70 58 -14 120 44 120 112 0 45
-44 86 -160 150 -229 126 -503 218 -771 257 -114 17 -164 18 -272 5z"/>
<path d="M3000 16526 c-108 -20 -183 -40 -375 -103 -134 -43 -189 -67 -258
-110 -48 -30 -92 -63 -97 -73 -19 -36 -12 -97 16 -129 31 -37 61 -40 136 -10
98 39 412 138 515 163 56 13 166 32 245 42 93 11 155 23 178 35 23 13 55 19
94 19 l59 0 -6 46 c-7 61 -43 99 -110 114 -83 18 -313 21 -397 6z"/>
<path d="M3635 16048 c-51 -53 -111 -158 -159 -277 -22 -55 -59 -235 -116
-566 -17 -105 -22 -276 -10 -445 6 -96 17 -274 24 -395 14 -236 22 -270 72
-317 61 -57 183 -82 293 -58 73 15 191 78 210 111 19 35 7 77 -25 89 -21 8
-42 3 -117 -31 -76 -33 -103 -41 -154 -41 -77 1 -118 20 -131 64 -16 52 -25
756 -13 953 13 202 36 387 57 470 35 134 98 258 187 363 43 51 46 74 12 107
-39 40 -71 33 -130 -27z"/>
<path d="M4655 15696 c-57 -18 -120 -62 -148 -104 -44 -68 -52 -100 -52 -226
1 -142 -2 -138 137 -184 126 -41 234 -55 329 -42 82 12 84 13 132 105 28 54
32 69 32 145 0 78 -3 90 -34 148 -38 69 -93 124 -156 153 -47 22 -177 25 -240
5z"/>
<path d="M2864 15690 c-65 -13 -136 -54 -181 -103 -66 -71 -78 -101 -77 -192
0 -88 21 -154 74 -239 l31 -48 82 7 c143 12 276 43 357 83 70 35 76 40 88 82
8 26 12 73 9 110 -12 191 -200 337 -383 300z"/>
<path d="M5942 14718 c-59 -20 -97 -75 -121 -176 -28 -119 -28 -220 -1 -255
64 -81 197 -9 271 146 46 98 38 220 -19 270 -25 23 -86 30 -130 15z"/>
<path d="M4700 14709 c-27 -11 -90 -68 -90 -81 0 -4 11 -8 25 -8 38 0 92 -25
104 -48 29 -55 -10 -161 -110 -302 -137 -194 -334 -331 -599 -419 -202 -67
-407 -77 -605 -30 -49 11 -99 23 -111 26 -48 11 -72 -59 -33 -96 50 -46 223
-81 405 -81 206 0 392 45 577 139 243 124 436 316 559 556 35 69 66 114 99
146 38 35 49 52 49 75 0 79 -177 160 -270 123z"/>
<path d="M4279 13654 c-40 -21 -238 -69 -373 -90 l-118 -18 23 -20 c13 -10 53
-32 89 -49 172 -79 298 -30 389 151 12 23 20 42 19 41 -2 -1 -15 -7 -29 -15z"/>
<path d="M5670 12336 c0 -69 -19 -104 -98 -178 -117 -110 -228 -166 -526 -265
-138 -46 -144 -47 -271 -47 -122 -1 -134 1 -190 27 -32 15 -74 39 -91 52 -58
44 -147 28 -190 -34 -25 -35 -85 -28 -190 22 -126 62 -136 63 -187 29 -23 -16
-69 -44 -102 -63 -82 -47 -190 -159 -248 -256 -26 -45 -77 -148 -113 -229 -84
-190 -112 -245 -190 -371 -170 -278 -376 -474 -618 -589 -50 -23 -112 -49
-138 -55 -28 -8 -48 -19 -48 -27 0 -7 19 -111 41 -230 l42 -217 -23 -118 c-12
-65 -20 -120 -18 -123 3 -2 44 7 93 21 269 78 525 204 795 389 l95 65 3 -77
c2 -42 -5 -214 -15 -382 -32 -546 -23 -1444 18 -1754 22 -169 86 -258 221
-308 l58 -21 0 -46 c0 -25 -5 -143 -10 -261 -41 -899 -79 -2320 -130 -4825
-34 -1662 -37 -1768 -56 -1782 -9 -6 -42 -14 -73 -17 -387 -38 -622 -89 -842
-182 -171 -72 -219 -118 -219 -212 0 -104 36 -134 182 -151 467 -56 685 -71
1008 -71 219 0 620 16 774 30 170 17 249 63 277 162 18 64 16 242 -4 314 -15
55 -16 100 -7 475 18 752 29 2039 36 3967 l7 1903 71 -6 c178 -16 238 -38 270
-101 21 -39 21 -45 19 -1144 -1 -608 -10 -2000 -20 -3095 -22 -2408 -22 -2310
-4 -2358 31 -91 107 -136 257 -156 287 -39 1046 -56 1284 -30 52 6 158 14 236
18 113 6 148 11 175 27 49 29 72 75 72 144 0 110 -48 155 -275 250 -160 68
-256 96 -468 135 -226 41 -330 67 -322 79 4 6 8 58 8 116 1 58 7 197 13 310
10 179 38 1308 71 2775 23 1041 54 3454 45 3464 -11 10 -93 3 -170 -15 -91
-21 -130 -13 -162 35 -44 65 -28 104 79 195 60 51 88 82 88 100 0 13 -100 5
-177 -15 -92 -24 -117 -19 -174 29 -51 43 -36 81 100 250 50 62 91 116 91 119
0 3 -30 2 -67 -2 -131 -15 -169 -12 -197 14 -35 33 -60 102 -52 144 4 20 21
48 44 69 56 54 224 134 331 157 209 46 244 104 176 293 -52 143 -56 200 -17
248 21 25 84 30 124 9 13 -6 84 -71 158 -143 184 -178 263 -216 460 -216 123
0 217 42 295 132 51 59 58 76 93 218 71 286 91 482 106 1055 10 409 12 438 27
415 21 -32 54 -128 71 -205 13 -58 14 -59 53 -68 27 -5 62 -3 109 8 97 22 195
19 336 -10 68 -14 142 -25 165 -25 l43 0 -15 78 c-95 522 -303 952 -621 1283
l-99 104 -7 96 c-13 184 -58 345 -120 436 -124 181 -432 249 -1178 260 l-378
6 0 -47z"/>
</g>
</svg>
