<svg xmlns="http://www.w3.org/2000/svg" xmlns:xlink="http://www.w3.org/1999/xlink" width="120" height="100" viewBox="0 0 120 100">
    <defs>
        <path id="a" d="M0 0h120v100H0z"/>
        <linearGradient id="c" x1=".006%" x2="99.994%" y1="49.995%" y2="49.995%">
            <stop offset="0%" stop-color="#FFAF00"/>
            <stop offset="100%" stop-color="#F70"/>
        </linearGradient>
        <filter id="d" width="141.4%" height="158.5%" x="-20.7%" y="-29.3%" filterUnits="objectBoundingBox">
            <feOffset dy="2" in="SourceAlpha" result="shadowOffsetOuter1"/>
            <feGaussianBlur in="shadowOffsetOuter1" result="shadowBlurOuter1" stdDeviation="2"/>
            <feColorMatrix in="shadowBlurOuter1" result="shadowMatrixOuter1" values="0 0 0 0 0.901960784 0 0 0 0 0.419607843 0 0 0 0 0 0 0 0 0.6 0"/>
            <feMerge>
                <feMergeNode in="shadowMatrixOuter1"/>
                <feMergeNode in="SourceGraphic"/>
            </feMerge>
        </filter>
        <filter id="e" width="214.3%" height="214.3%" x="-57.1%" y="-57.1%" filterUnits="objectBoundingBox">
            <feOffset dy="2" in="SourceAlpha" result="shadowOffsetOuter1"/>
            <feGaussianBlur in="shadowOffsetOuter1" result="shadowBlurOuter1" stdDeviation="2"/>
            <feColorMatrix in="shadowBlurOuter1" result="shadowMatrixOuter1" values="0 0 0 0 0.901960784 0 0 0 0 0.419607843 0 0 0 0 0 0 0 0 0.6 0"/>
            <feMerge>
                <feMergeNode in="shadowMatrixOuter1"/>
                <feMergeNode in="SourceGraphic"/>
            </feMerge>
        </filter>
    </defs>
    <g fill="none" fill-rule="evenodd">
        <mask id="b" fill="#fff">
            <use xlink:href="#a"/>
        </mask>
        <g mask="url(#b)">
            <path fill="#FFF6EF" d="M60 0c27.614 0 50 22.386 50 50s-22.386 50-50 50-50-22.386-50-50S32.386 0 60 0"/>
            <path fill="#7AB800" d="M97.812 47.406A1.406 1.406 0 1 1 95 47.404a1.406 1.406 0 0 1 2.812.002M58.514 8.137a.844.844 0 1 1 0 1.688.844.844 0 0 1 0-1.688"/>
            <path fill="#FFC7A1" d="M94.617 70.74a.844.844 0 1 1 0 1.689.844.844 0 0 1 0-1.689M17.074 46.685a.983.983 0 1 1-1.966.001.983.983 0 0 1 1.966-.001"/>
            <path fill="url(#c)" d="M17.774 9.353l-.442 1.641a.478.478 0 0 1-.337.337l-1.642.442c-.47.127-.47.796 0 .923l1.642.442a.48.48 0 0 1 .337.337l.442 1.641c.127.472.796.472.923 0l.441-1.641a.481.481 0 0 1 .337-.337l1.642-.442c.472-.127.472-.796 0-.923l-1.642-.442a.48.48 0 0 1-.337-.337l-.44-1.641A.467.467 0 0 0 18.235 9a.468.468 0 0 0-.462.353" transform="translate(10)"/>
            <g>
                <path fill="#5D9BEC" d="M32.606 62.429l.312-1.154c.088-.332.56-.332.648 0l.311 1.154a.337.337 0 0 0 .237.237l1.154.31c.332.09.332.56 0 .65l-1.154.31a.336.336 0 0 0-.237.238l-.31 1.154c-.09.33-.56.33-.649 0l-.312-1.154a.334.334 0 0 0-.237-.237l-1.155-.311c-.33-.09-.33-.56 0-.65l1.155-.31a.336.336 0 0 0 .237-.237"/>
                <g fill="#000">
                    <path d="M62.9 71.1h2.391v.253c0 2.494-.002 4.988.004 7.482 0 .298.02.6.081.892.096.463.423.649.87.492.21-.074.4-.22.576-.36.14-.11.184-.274.184-.461-.004-2.686-.003-5.37-.003-8.056v-.24h2.39V81.77H67.53l-.207-1.283c-.016-.004-.032-.01-.048-.013-.038.06-.077.12-.112.182-.667 1.16-1.776 1.474-2.812 1.234-.802-.186-1.192-.77-1.336-1.53a7.052 7.052 0 0 1-.12-1.271c-.01-2.602-.006-5.205-.005-7.807 0-.057.005-.113.01-.181M50.538 71.1h2.396v.233c0 2.514-.002 5.028.003 7.54 0 .279.021.563.077.835.096.477.421.67.876.51.21-.072.4-.218.576-.358.143-.114.19-.286.188-.48-.004-2.666-.003-5.332-.003-8v-.277h2.38v10.66h-1.859c-.069-.424-.138-.851-.206-1.28l-.05-.01c-.038.063-.076.124-.112.187-.673 1.164-1.783 1.465-2.814 1.228-.674-.155-1.087-.608-1.258-1.257a5.152 5.152 0 0 1-.19-1.26c-.018-2.724-.01-5.45-.01-8.172 0-.026.002-.051.006-.1M38.092 81.747c0-1.215-.02-2.414.008-3.612a7.044 7.044 0 0 0-.283-2.066c-.82-2.905-1.613-5.816-2.414-8.726-.017-.06-.031-.12-.05-.2.078-.005.139-.01.2-.01.658-.002 1.315.003 1.973-.005.145 0 .21.034.24.187.475 2.328.957 4.654 1.437 6.98.01.046.03.09.089.136.029-.159.052-.318.085-.475l1.22-5.717c.067-.317.136-.636.217-.949.015-.062.093-.15.143-.15.734-.01 1.467-.005 2.2-.003.012 0 .024.008.057.02-.065.24-.13.484-.197.725-.837 2.985-1.675 5.97-2.51 8.957a1.447 1.447 0 0 0-.048.376c-.004 1.428-.003 2.857-.003 4.286v.246h-2.364z"/>
                    <path d="M58.88 69.067h-2.39c-.005-.063-.015-.106-.015-.148-.001-.537.002-1.073-.003-1.608-.002-.127.025-.18.167-.18 2.27.002 4.54.001 6.812.001.043 0 .086.011.14.018v1.913h-2.376v12.69H58.88V69.066zM81.03 75.746c.024-.815.05-1.63.08-2.444.002-.076.025-.15.047-.224.115-.395.317-.57.661-.576.461-.008.716.14.822.554.081.317.12.651.131.98.02.578.005 1.158.005 1.76h-1.723c-.008-.018-.024-.034-.024-.05zm4.023 1.428c.011 0 .022-2.032.017-2.223-.018-.723-.089-1.467-.26-2.17-.235-.962-.799-1.626-1.808-1.83a4.952 4.952 0 0 0-1.937-.018c-.916.175-1.556.69-1.91 1.555a5.444 5.444 0 0 0-.408 1.916 79.832 79.832 0 0 0-.034 3.46c.02 1.564.456 3.631 2.285 3.936.472.078.966.108 1.442.067 1.258-.107 2.317-.715 2.514-2.262.042-.329.036-.665.053-1.005l-2.087-.124c-.004.093-.002.168-.012.243-.049.34-.08.682-.158 1.015a.694.694 0 0 1-.559.543c-.593.13-1.017-.144-1.072-.767-.066-.748-.066-1.5-.092-2.252 0-.023.015-.045.028-.084h3.998zM75.197 77.022c-.02.748-.105 1.495-.172 2.243-.01.124-.064.246-.108.365-.124.332-.349.547-.716.57-.42.027-.739-.16-.959-.51-.04-.064-.037-.16-.037-.24 0-.475 0-.95-.002-1.425l.001-1.424v-2.85c0-.455.356-.968.781-1.13.415-.16.826-.001.952.433.122.424.206.87.227 1.31.043.886.056 1.773.033 2.658m2.343-2.948c-.018-.65-.106-1.297-.337-1.913-.2-.535-.51-.975-1.078-1.164-.676-.226-1.33-.173-1.949.2a2.525 2.525 0 0 0-.948 1.002l-.049-.01v-5.586h-2.308v15.152h1.971l.255-1.03c.058.07.091.106.116.144.54.845 1.664 1.274 2.624.995.695-.202 1.078-.72 1.324-1.357.304-.79.412-1.62.42-2.456.011-1.326-.006-2.652-.04-3.977M46.812 78.936c-.004.28-.078.568-.164.838-.118.366-.368.536-.69.534-.335-.004-.606-.176-.698-.545a6.703 6.703 0 0 1-.193-1.297c-.044-.95-.037-1.9-.016-2.85.014-.625-.015-1.255.069-1.876.069-.511.17-1.195.81-1.211.335-.01.56.15.69.448.182.416.222.865.223 1.31.003 1.55-.007 3.1-.031 4.648m2.44-4.02a6.975 6.975 0 0 0-.298-1.96c-.308-1.01-.897-1.739-1.98-1.966a4.803 4.803 0 0 0-1.993 0c-.717.15-1.335.554-1.704 1.193-.44.762-.55 1.678-.611 2.54l-.01.133a28.666 28.666 0 0 0-.058 2.27c.009.597.036 1.194.118 1.784.076.547.168 1.158.43 1.65.312.581.806 1.012 1.44 1.201.79.237 1.593.263 2.403.095.874-.182 1.468-.695 1.816-1.509a5.196 5.196 0 0 0 .414-1.914c.036-1.172.045-2.346.033-3.518"/>
                </g>
                <g filter="url(#d)" transform="translate(31 19)">
                    <path fill="#FC3A52" d="M29.358.832c6.572.084 13.145.108 19.69.823 4.582.499 6.85 2.56 7.538 7.148a80.328 80.328 0 0 1-.054 24.273c-.603 3.898-2.738 5.999-6.61 6.651-1.32.222-2.668.386-4.004.406-12.152.175-24.308.623-36.447-.296-4.684-.355-7.003-2.646-7.67-7.256a82.12 82.12 0 0 1-.004-23.659c.673-4.643 2.951-6.759 7.66-7.272C16.073.929 22.717.915 29.358.832"/>
                    <path fill="#FEFEFE" d="M36.688 21.612l-11.6 6.59a1.001 1.001 0 0 1-1.497-.867V14.157a1 1 0 0 1 1.494-.869l11.602 6.58a1.005 1.005 0 0 1 0 1.744"/>
                </g>
                <g filter="url(#e)" transform="translate(72 15)">
                    <path fill="#FFF" d="M20.13 10.484c0 5.392-4.37 9.763-9.762 9.763-5.391 0-9.762-4.37-9.762-9.763 0-5.392 4.37-9.762 9.762-9.762s9.763 4.37 9.763 9.762"/>
                    <path fill="#FFBE1D" d="M12.6 15.912l-1.853-1.032a1.087 1.087 0 0 0-1.01-.024l-1.902.943a1.085 1.085 0 0 1-1.546-1.18l.409-2.083a1.087 1.087 0 0 0-.29-.968l-1.484-1.516a1.085 1.085 0 0 1 .645-1.836l2.106-.255c.355-.043.665-.258.83-.574l.986-1.88a1.084 1.084 0 0 1 1.944.046l.895 1.924c.15.324.45.553.802.613l2.092.354a1.085 1.085 0 0 1 .558 1.864l-1.555 1.446a1.083 1.083 0 0 0-.335.952l.31 2.1c.13.89-.816 1.543-1.601 1.106"/>
                </g>
            </g>
        </g>
    </g>
</svg>
