<svg xmlns="http://www.w3.org/2000/svg" xmlns:xlink="http://www.w3.org/1999/xlink" width="120" height="100" viewBox="0 0 120 100">
    <defs>
        <path id="a" d="M0 0h120v100H0z"/>
        <path id="c" d="M100 50.993c0 27.615-22.386 50-50 50s-50-22.385-50-50c0-27.614 22.386-50 50-50s50 22.386 50 50z"/>
        <filter id="e" width="132%" height="125.5%" x="-16%" y="-12.8%" filterUnits="objectBoundingBox">
            <feOffset dy="2" in="SourceAlpha" result="shadowOffsetOuter1"/>
            <feGaussianBlur in="shadowOffsetOuter1" result="shadowBlurOuter1" stdDeviation="2"/>
            <feColorMatrix in="shadowBlurOuter1" result="shadowMatrixOuter1" values="0 0 0 0 0.9 0 0 0 0 0.42 0 0 0 0 0 0 0 0 0.5 0"/>
            <feMerge>
                <feMergeNode in="shadowMatrixOuter1"/>
                <feMergeNode in="SourceGraphic"/>
            </feMerge>
        </filter>
        <path id="f" d="M45.226 4.514l-15.057.063L25.342.511 8.381 5.785c-2.54.826-4.383 2.794-5.018 5.145L.632 22.165c8.703 10.737 22.169 16.842 37.097 16.842s30.314-8.349 37.206-16.454L72.096 10.93c-.571-2.414-2.478-4.319-5.019-5.145L49.545.511l-4.319 4.003z"/>
        <linearGradient id="g" x1="0%" x2="99.999%" y1="50.001%" y2="50.001%">
            <stop offset="0%" stop-color="#FF9A00"/>
            <stop offset="100%" stop-color="#F70"/>
        </linearGradient>
    </defs>
    <g fill="none" fill-rule="evenodd">
        <mask id="b" fill="#fff">
            <use xlink:href="#a"/>
        </mask>
        <g mask="url(#b)">
            <g transform="translate(10 -1)">
                <mask id="d" fill="#fff">
                    <use xlink:href="#c"/>
                </mask>
                <use fill="#FFF6EF" xlink:href="#c"/>
                <g mask="url(#d)">
                    <path fill="#FCD4C5" d="M77.342 64.825c-2.687 4.56-9.321 4.56-12.008 0V56.97h12.008v7.856z"/>
                    <path fill="#F9D4BB" d="M93.38 69.303c-.366-1.547-1.588-2.77-3.216-3.297l-11.234-3.38-2.768 2.566-9.647.04-3.094-2.605-10.867 3.379c-1.63.528-2.81 1.79-3.216 3.297l-1.67 6.716c5.577 6.879 13.044 24.67 22.01 21.339 13.735-5.106 19.916-14.124 24.554-22.122l-.852-5.933z"/>
                    <path fill="#393D47" d="M71.196 27.825c8.317 0 15.061 6.743 15.061 15.06 0 8.318-6.744 15.062-15.06 15.062-8.319 0-15.063-6.744-15.063-15.061 0-8.318 6.744-15.061 15.062-15.061"/>
                    <path fill="#F9D4BB" d="M76.568 37.105c-4.273 8.915-14.53 7.816-17.625 7.247v4.68c0 6.758 5.495 12.253 12.253 12.253 6.757 0 12.252-5.495 12.252-12.253v-5.576c-5.658-.449-6.88-6.35-6.88-6.35"/>
                    <path fill="#FCFCFD" d="M65.375 60.267l5.821 5.006-4.681 6.879-3.094-9.525zM77.18 60.267l-5.821 5.006 4.68 6.879 3.094-9.525z"/>
                    <path fill="#FFE7D7" d="M68.222 55.715h7.145c.21 0 .315.255.163.4-1.011.974-3.936 3.146-7.47.004-.157-.141-.05-.404.162-.404"/>
                </g>
                <g mask="url(#d)">
                    <path fill="#FCD4C5" d="M34.03 67.87c-2.687 4.558-9.32 4.558-12.007 0v-7.856H34.03v7.855z"/>
                    <path fill="#F9D4BB" d="M50.068 72.347c-.367-1.547-1.588-2.768-3.216-3.297l-11.234-3.38-2.768 2.566-9.647.04-3.094-2.605L9.241 69.05c-1.628.529-2.808 1.79-3.215 3.297l-.509 2.36c5.241 8.815 15.86 22.815 24.907 19.71 13.712-4.704 16.266-7.464 20.903-15.463l-1.259-6.607z"/>
                    <path fill="#393D47" d="M27.884 30.87c8.317 0 15.061 6.742 15.061 15.06 0 8.317-6.744 15.06-15.06 15.06-8.319 0-15.062-6.743-15.062-15.06 0-8.318 6.743-15.06 15.061-15.06"/>
                    <path fill="#F9D4BB" d="M33.257 40.15c-4.274 8.914-14.532 7.814-17.625 7.245v4.68c0 6.758 5.495 12.253 12.252 12.253 6.757 0 12.252-5.495 12.252-12.253V46.5c-5.658-.448-6.879-6.35-6.879-6.35"/>
                    <path fill="#FCFCFD" d="M22.064 63.31l5.82 5.006-4.68 6.88-3.095-9.526zM33.868 63.31l-5.821 5.006 4.68 6.88 3.095-9.526z"/>
                    <path fill="#FFE7D7" d="M24.357 57.807H31.5c.21 0 .316.256.164.402-1.011.972-3.936 3.145-7.47.002-.157-.14-.05-.404.162-.404"/>
                </g>
                <g filter="url(#e)" mask="url(#d)">
                    <path fill="#FCD4C5" d="M59.067 66.942c-4.192 7.114-14.547 7.114-18.74 0v-12.26h18.74v12.26z"/>
                    <g transform="translate(12 63)">
                        <mask id="h" fill="#fff">
                            <use xlink:href="#f"/>
                        </mask>
                        <path fill="url(#g)" d="M45.226 4.514l-15.057.063L25.342.511 8.381 5.785c-2.54.826-4.383 2.794-5.018 5.145L.632 22.165c8.703 10.737 22.169 16.842 37.097 16.842s30.314-8.349 37.206-16.454L72.096 10.93c-.571-2.414-2.478-4.319-5.019-5.145L49.545.511l-4.319 4.003z" mask="url(#h)"/>
                    </g>
                    <path fill="#393D47" d="M49.475 9.199c12.981 0 23.504 10.523 23.504 23.504 0 12.98-10.523 23.503-23.504 23.503-12.98 0-23.504-10.522-23.504-23.503S36.494 9.199 49.475 9.199"/>
                    <path fill="#FFDCC5" d="M57.86 23.682C51.19 37.594 35.182 35.88 30.354 34.99v7.305c0 10.546 8.576 19.121 19.121 19.121 10.545 0 19.12-8.575 19.12-19.12v-8.703c-8.83-.699-10.735-9.91-10.735-9.91"/>
                    <path fill="#FCFCFD" d="M41.091 60.43l7.88 6.777a.745.745 0 0 1 .13.984l-5.662 8.32a1.105 1.105 0 0 1-1.966-.28l-3.977-12.245a.909.909 0 0 1 .163-.858l2.143-2.59a.907.907 0 0 1 1.29-.108M58.113 60.43l-7.88 6.777a.746.746 0 0 0-.13.984l5.662 8.32a1.105 1.105 0 0 0 1.966-.28l3.978-12.245a.91.91 0 0 0-.164-.858l-2.143-2.59a.906.906 0 0 0-1.289-.108"/>
                    <path fill="#FFF" d="M44.706 52.197h9.648c.286 0 .427.345.221.543-1.364 1.312-5.315 4.247-10.086.003-.214-.19-.069-.546.217-.546"/>
                </g>
            </g>
            <path fill="#6E2585" d="M92.413 21.36a1.687 1.687 0 1 1-3.373 0 1.687 1.687 0 0 1 3.373 0"/>
            <path fill="#7AB800" d="M72.137 4.274a.843.843 0 1 1 0 1.687.843.843 0 0 1 0-1.687M103.733 56.092a.844.844 0 1 1 0 1.688.844.844 0 0 1 0-1.688"/>
            <path fill="#F03B20" d="M32.118 6.486l.593-2.204c.17-.633 1.069-.633 1.24 0l.593 2.204a.64.64 0 0 0 .453.453l2.204.593c.633.171.633 1.07 0 1.24l-2.204.593a.64.64 0 0 0-.453.453l-.593 2.204c-.171.633-1.07.633-1.24 0l-.593-2.204a.642.642 0 0 0-.453-.453l-2.204-.593c-.633-.17-.633-1.069 0-1.24l2.204-.593a.642.642 0 0 0 .453-.453"/>
            <path fill="#5D9BEC" d="M21.224 56.167l.31-1.154c.09-.331.56-.331.65 0l.31 1.154a.336.336 0 0 0 .238.237l1.154.311c.332.09.332.56 0 .649l-1.154.311a.337.337 0 0 0-.237.237l-.311 1.154c-.09.332-.56.332-.65 0l-.31-1.154a.336.336 0 0 0-.237-.237l-1.154-.311c-.332-.089-.332-.559 0-.649l1.154-.311a.334.334 0 0 0 .237-.237"/>
        </g>
    </g>
</svg>
