<svg xmlns="http://www.w3.org/2000/svg" xmlns:xlink="http://www.w3.org/1999/xlink" width="996" height="280" viewBox="0 0 996 280">
    <defs>
        <filter id="a" width="118%" height="113.6%" x="-9%" y="-6.8%" filterUnits="objectBoundingBox">
            <feOffset in="SourceAlpha" result="shadowOffsetOuter1"/>
            <feGaussianBlur in="shadowOffsetOuter1" result="shadowBlurOuter1" stdDeviation="3"/>
            <feColorMatrix in="shadowBlurOuter1" result="shadowMatrixOuter1" values="0 0 0 0 0.266666667 0 0 0 0 0.270588235 0 0 0 0 0.270588235 0 0 0 0.15 0"/>
            <feMerge>
                <feMergeNode in="shadowMatrixOuter1"/>
                <feMergeNode in="SourceGraphic"/>
            </feMerge>
        </filter>
        <rect id="b" width="132.318" height="175.362" rx="4.783"/>
        <path id="d" d="M0 0h132.318v17.536H0z"/>
        <filter id="e" width="100.8%" height="105.7%" x="-.4%" y="-2.9%" filterUnits="objectBoundingBox">
            <feOffset dy="-1" in="SourceAlpha" result="shadowOffsetInner1"/>
            <feComposite in="shadowOffsetInner1" in2="SourceAlpha" k2="-1" k3="1" operator="arithmetic" result="shadowInnerInner1"/>
            <feColorMatrix in="shadowInnerInner1" values="0 0 0 0 0.933 0 0 0 0 0.933 0 0 0 0 0.933 0 0 0 1 0"/>
        </filter>
        <filter id="f" width="127.3%" height="157.1%" x="-13.6%" y="-28.6%" filterUnits="objectBoundingBox">
            <feOffset in="SourceAlpha" result="shadowOffsetOuter1"/>
            <feGaussianBlur in="shadowOffsetOuter1" result="shadowBlurOuter1" stdDeviation="3"/>
            <feColorMatrix in="shadowBlurOuter1" result="shadowMatrixOuter1" values="0 0 0 0 0.266666667 0 0 0 0 0.270588235 0 0 0 0 0.270588235 0 0 0 0.15 0"/>
            <feMerge>
                <feMergeNode in="shadowMatrixOuter1"/>
                <feMergeNode in="SourceGraphic"/>
            </feMerge>
        </filter>
        <filter id="g" width="124.2%" height="137.5%" x="-12.1%" y="-18.8%" filterUnits="objectBoundingBox">
            <feOffset in="SourceAlpha" result="shadowOffsetOuter1"/>
            <feGaussianBlur in="shadowOffsetOuter1" result="shadowBlurOuter1" stdDeviation="3"/>
            <feColorMatrix in="shadowBlurOuter1" result="shadowMatrixOuter1" values="0 0 0 0 0.266666667 0 0 0 0 0.270588235 0 0 0 0 0.270588235 0 0 0 0.15 0"/>
            <feMerge>
                <feMergeNode in="shadowMatrixOuter1"/>
                <feMergeNode in="SourceGraphic"/>
            </feMerge>
        </filter>
        <linearGradient id="h" x1="50.032%" x2="50.032%" y1="-37.394%" y2="108.527%">
            <stop offset="0%" stop-color="#FFF"/>
            <stop offset="100%" stop-color="#E8EFEE"/>
        </linearGradient>
        <linearGradient id="i" x1="71.399%" x2="-3.281%" y1="28.599%" y2="103.279%">
            <stop offset="0%" stop-color="#FFF"/>
            <stop offset="100%" stop-color="#E8EFEE"/>
        </linearGradient>
        <linearGradient id="j" x1="50.032%" x2="50.032%" y1="-37.424%" y2="108.507%">
            <stop offset="0%" stop-color="#FFF"/>
            <stop offset="100%" stop-color="#E8EFEE"/>
        </linearGradient>
        <linearGradient id="k" x1="50.032%" x2="50.032%" y1="-37.388%" y2="108.532%">
            <stop offset="0%" stop-color="#FFF"/>
            <stop offset="100%" stop-color="#E8EFEE"/>
        </linearGradient>
        <linearGradient id="l" x1="133.003%" x2="-12.942%" y1="1527.371%" y2="-1071.463%">
            <stop offset="0%" stop-color="#FFF"/>
            <stop offset="100%" stop-color="#E8EFEE"/>
        </linearGradient>
        <linearGradient id="m" x1="132.956%" x2="-12.959%" y1="1527.37%" y2="-1071.464%">
            <stop offset="0%" stop-color="#FFF"/>
            <stop offset="100%" stop-color="#E8EFEE"/>
        </linearGradient>
    </defs>
    <g fill="none" fill-rule="evenodd">
        <path fill="#FFF" d="M-185-921h1366v6225H-185z"/>
        <path d="M0 0h996v280H0z" opacity=".5"/>
        <path fill="#F5F5F5" d="M188.613 272C174.871 256.32 168 238.273 168 217.857c0-30.624 22.405-51.433 41.226-56.247 18.82-4.814 47.5-7.647 62.735-1.309 15.236 6.339 51.084 18.828 62.735 4.997 11.651-13.831 15.236-29.924 10.755-51.637-4.481-21.712-17.028-78.587 4.481-96.002C371.442.245 394.635-2.308 409.978 5.777c15.344 8.086 19.717 27.663 55.566 34.117 35.849 6.455 73.49-6.342 95.895-18.441 22.405-12.1 47.107-29.269 69.009-17.52 21.902 11.75 5.344 67.904 24.164 88.79 18.82 20.884 46.916 28.429 73.486 25.056 26.57-3.373 70.103 10.826 85.49 31.803 15.386 20.977 26.128 44.572-9.274 122.418H188.613z"/>
        <path fill="#CCD1D9" d="M488.315 53.56c-4.86-4.793-4.915-12.621-.12-17.482 4.795-4.861 12.622-4.914 17.483-.12 4.86 4.794 4.915 12.622.12 17.483-4.794 4.861-12.622 4.914-17.483.12zm36.363 10.272c.089-.735-1.457-3.107-3.668-5.366a27.488 27.488 0 0 0 2.923-7.478c2.763.089 5.687-.106 6.476-1.224 1.603-2.268.653-9.761-.073-10.687-.464-.594-3.33-1.188-6.562-1.202a27.47 27.47 0 0 0-3.063-7.34c2.023-1.894 3.963-4.107 3.73-5.459-.47-2.737-6.441-7.364-7.61-7.506-.73-.089-3.091 1.448-5.344 3.647a27.457 27.457 0 0 0-7.491-3.201c.066-2.672-.155-5.416-1.232-6.177-2.269-1.603-9.761-.653-10.688.073-.551.432-1.104 2.94-1.191 5.889a27.498 27.498 0 0 0-7.925 3.136c-1.751-1.787-3.666-3.34-4.884-3.13-2.738.47-7.364 6.441-7.506 7.61-.08.657 1.153 2.63 3.002 4.66a27.49 27.49 0 0 0-3.445 8.165c-2.367.005-4.611.284-5.288 1.242-1.603 2.268-.653 9.761.073 10.688.4.51 2.574 1.02 5.232 1.163a27.46 27.46 0 0 0 3.51 8.235c-1.665 1.672-3.045 3.45-2.847 4.602.47 2.738 6.441 7.364 7.61 7.506.659.08 2.64-1.16 4.675-3.015a27.507 27.507 0 0 0 8.15 3.134c-.02 2.483.24 4.905 1.242 5.612 2.268 1.603 9.761.653 10.688-.073.554-.434 1.11-2.965 1.192-5.932 2.66-.733 5.23-1.87 7.615-3.41 1.832 1.916 3.904 3.67 5.194 3.448 2.737-.471 7.363-6.442 7.505-7.61z"/>
        <path fill="#424242" d="M346.392 276.776H268.44l2.615-35.124-5.308 7.91-28.802-10.545 5.482-10.363c10.907-20.908 26.764-34.912 51.479-35.615 1.02-.029 6.343-.043 7.398-.043 13.071 0 23.574 1.68 31.727 3.889 12.028 3.254 22.522 10.272 30.114 19.645l10.734 15.82-27.989-.466.502 44.892"/>
        <path fill="#FBE3A7" d="M233.258 278.928c-1.854-.98-2.503-2.3-2.567-2.386-5.926-7.909 6.685-37.963 6.685-37.963l28.019 10.419-7.382 12.657 57.52-3.72v9.768s-40.5 7.736-51.884 9.073c-11.384 1.336-28.536 3.131-30.39 2.152z"/>
        <path fill="#EBD08B" d="M316.854 184.372l1.43 10.76s.611 5.584-9.38 5.584c-4.067 0-6.689-.926-8.368-2.023-1.933-1.262-2.89-3.58-2.585-5.866l3.097-23.167 15.806 14.712"/>
        <path fill="#FFC7A1" d="M325.408 231.788h72.034a2 2 0 0 1 1.792 2.888l-20.047 40.48a3.709 3.709 0 0 1-3.323 2.063h-75.877l20.411-42.286a5.563 5.563 0 0 1 5.01-3.145z"/>
        <path fill="#FFC7A1" d="M279.616 277.219h59.013v-3.71h-59.013z"/>
        <path fill="#FBE3A7" d="M315.63 187.03c2.719 1.002 5.374 1.597 7.104 1.059 12.283-8.159 15.643-42.062 15.643-42.062l-10.304-10.176-19.698 3.503-9.07 19.99c-2.423 5.334-1.904 11.591 1.396 16.85 3.866 4.796 9.007 8.65 14.929 10.835"/>
        <path fill="#B34F04" d="M306.225 151.88c2.24-3.073 4.955-11.14 8.213-9.174 2.376 1.433 10.947 5.28 13.88 6.455 6.988 2.799 20.542 5.056 24.809-5.561 2.131-5.308-1.188-11.95-3.907-14.618-2.67-2.62-6.315-4.006-10.056-4.175-8.774-.395-21.36 1.444-25.102-1.002-6.296-4.117-14.738-2.842-16.975 3.005-2.39 6.247-2.896 16.878-2.223 24.03a35.114 35.114 0 0 0 3.318 11.91l8.043-10.87"/>
        <path fill="#FBE3A7" d="M296.453 156.711c1.867-1.232 4.939-.515 6.858 1.598 1.918 2.113 1.96 4.826.09 6.056-1.868 1.23-4.94.514-6.859-1.6-1.918-2.112-1.96-4.824-.09-6.054"/>
        <path fill="#FFFFFE" d="M356.144 255.665c0 2.153-1.749 3.9-3.904 3.9a3.903 3.903 0 0 1-3.906-3.9c0-2.152 1.749-3.9 3.906-3.9a3.903 3.903 0 0 1 3.904 3.9"/>
        <path fill="#FF6E00" d="M521.567 62.758h5.563v-.927h-5.563v.927zm-11.126 0h5.563v-.927h-5.563v.927zm21.325 0h5.563v-.927h-5.563v.927zm10.198 0h5.563v-.927h-5.563v.927zm10.199 0h5.563v-.927h-5.563v.927zm16.393.863a11.451 11.451 0 0 0-4.384-.863h-.883v-.927h.883c1.64 0 3.233.313 4.737.932l-.353.858zm-67.631 3.199l-.707-.6a12.551 12.551 0 0 1 4.608-3.396l.365.853a11.622 11.622 0 0 0-4.266 3.143zm74.409 4.578a11.548 11.548 0 0 0-2.472-4.687l.699-.609a12.484 12.484 0 0 1 2.67 5.065l-.897.231zm-77.15 5.564h-.928v-2.68c0-1.002.12-2 .356-2.965l.9.22c-.218.894-.329 1.817-.329 2.745v2.68zm77.513 5.413h.927v-5.562h-.927v5.562zm-78.44 5.713h.926v-5.563h-.927v5.563zm78.44 6.54h.927v-5.564h-.927v5.563zm1.572 11.09a12.319 12.319 0 0 1-1.56-5.508l.926-.04a11.39 11.39 0 0 0 1.444 5.097l-.81.452zm9.208 6.28a12.444 12.444 0 0 1-5.345-2.053l.523-.765a11.527 11.527 0 0 0 4.944 1.899l-.122.918zm6.546.11h5.563v-.927h-5.563v.928zm13 0h5.563v-.927h-5.563v.928zm13 0h5.563v-.927h-5.563v.928zm13 0h5.563v-.927h-5.563v.928zm18.511.466a11.57 11.57 0 0 0-3.255-.465h-2.13v-.928h2.13c1.195 0 2.377.17 3.516.503l-.26.89zm7.546 7.032a11.583 11.583 0 0 0-2.944-4.405l.631-.679a12.529 12.529 0 0 1 3.183 4.76l-.87.324zm.725 10.871h.927v-5.563h-.927v5.563z"/>
        <g>
            <path fill="#444545" d="M643.902 277.063h69.032l-2.316-33.04 4.7 7.44 25.507-9.92-4.854-9.749c-9.66-19.668-27.495-32.841-49.383-33.503a90.63 90.63 0 0 0-2.757-.042c-11.575 0-20.876 1.583-28.097 3.66-10.652 3.062-19.945 9.663-26.668 18.48l-9.505 14.881 24.786-.437-.445 42.23"/>
            <path fill="#EBD08B" d="M672.57 190.138l-1.342 10.122s-.574 5.253 8.8 5.253c3.818 0 6.278-.87 7.854-1.903 1.814-1.189 2.714-3.369 2.427-5.52l-2.907-21.791-14.833 13.84"/>
            <path fill="#FBE3A7" d="M746.365 276.844c5.246-7.44-6.996-34.572-6.996-34.572l-22.662 8.66 7.357 11.908-52.836-3.501v9.19s24.049 6.669 45.21 9.617C735.605 280 738.53 280 740.518 280c1.99 0 3.711-.927 5.846-3.156zM627.194 277.063l-13.978-21.203s-17.03 11.066-17.043 19.435a2.81 2.81 0 0 0 .614 1.768h30.407"/>
            <g fill="#E3E3E3">
                <path d="M660.193 233.959h-68.35a2 2 0 0 0-1.796 2.88l19.194 39.186a1.854 1.854 0 0 0 1.665 1.038h72.203L663.54 236.07a3.709 3.709 0 0 0-3.347-2.111z"/>
                <path d="M650.059 277.219h59.013v-3.71H650.06z"/>
            </g>
            <path fill="#FBE3A7" d="M670.217 191.187c-2.642.464-5.163.536-6.671-.338-10.064-10.508-8.163-44.837-8.163-44.837l28.49-.755 5.38 21.63a18.716 18.716 0 0 1-3.758 16.464c-4.25 4.004-9.529 6.827-15.278 7.836"/>
            <path fill="#1B2441" d="M648.07 140.75c3.713-4.171 9.587-5.005 12.375-3.376 2.07 1.21 9.217-10.593 23.386-9.716 9.738.602 22.743 15.712 6.767 45.68-1.057-3.342-8.3-21.778-13.217-18.367-4.66 4.06-9.923 5.79-14.117 6.499-5.47.92-13.189-2.115-16.496-6.57-2.788-3.761-4.102-7.993 1.303-14.15"/>
            <path fill="#FBE3A7" d="M689.111 157.921c-1.824-1.158-4.61-.29-6.224 1.936-1.615 2.227-1.445 4.97.378 6.128 1.824 1.157 4.61.291 6.226-1.936 1.614-2.228 1.443-4.97-.38-6.128"/>
            <path fill="#1B2441" d="M686.187 124.041s3.218-6.27 14.265-3.872c19.895 5.417 17.404 29.284 15.357 41.476-1.088 6.48.569 13.09 4.623 18.255 9.848 12.553 24.523 36.718 5.025 50.525-3.692 2.613-8.344 3.755-12.716 2.592-4.264-1.135-6.92-3.826-8.572-6.645-2.217-3.784-2.621-8.381-1.409-12.596.924-3.211 1.804-7.618.544-9.868-2.122-3.792-14.302-11.203-15.095-22.684-.792-11.48 6.487-15.9 8.267-28.007 3.133-21.308-1.498-23.995-1.498-23.995l-8.79-5.181"/>
            <path fill="#FF6E00" d="M693.264 132.798l-9.433-5.14 2.356-3.617 8.79 5.181-1.713 3.576"/>
            <path fill="#FFFFFE" d="M638.933 256.315a3.838 3.838 0 0 1-7.674 0c0-2.12 1.717-3.84 3.838-3.84a3.84 3.84 0 0 1 3.836 3.84"/>
        </g>
        <path fill="#FF6E00" d="M373.783 116.034h5.698v-.927h-5.698v.927zm11.396 0h5.698v-.927h-5.698v.927zm12.053 0h5.698v-.927h-5.698v.927zm-33.78 3.167l-.591-.714a14.611 14.611 0 0 1 5.15-2.761l.266.888c-1.77.531-3.394 1.4-4.826 2.587zm50.595.782a12.661 12.661 0 0 0-4.508-3.064l.342-.862a13.604 13.604 0 0 1 4.841 3.291l-.675.635zm-55.552 8.735l-.925-.072a14.57 14.57 0 0 1 1.616-5.618l.821.43a13.652 13.652 0 0 0-1.512 5.26zm59.9 1.43h-.928V128.6c0-1.345-.211-2.67-.628-3.937l.88-.289c.448 1.36.675 2.782.675 4.226v1.547zm-.928 11.396h.927v-5.698h-.927v5.698zm0 12.324h.927v-5.698h-.927v5.698zm0 12.053h.927v-5.698h-.927v5.698zm0 12.053h.927v-5.699h-.927v5.699zm0 12.98h.927v-5.698h-.927v5.698zm0 31.98h.927v-5.698h-.927v5.698zm.47 12.403a13.51 13.51 0 0 1-.47-3.538v-2.24h.927v2.24c0 1.119.147 2.227.437 3.296l-.895.242zm79.77 2.55l-.912-.169c.09-.484.136-.98.136-1.476v-4.128h.927v4.128c0 .552-.051 1.106-.15 1.645zm0-12.053l-.912-.169c.09-.484.136-.98.136-1.476v-4.128h.927v4.128c0 .552-.051 1.106-.15 1.645zm0-12.053l-.912-.169c.09-.484.136-.98.136-1.476v-4.128h.927v4.128c0 .552-.051 1.106-.15 1.645zm0-12.053l-.912-.169c.09-.484.136-.98.136-1.476v-4.128h.927v4.128c0 .552-.051 1.106-.15 1.645zm0-12.053l-.912-.169c.09-.483.136-.98.136-1.476v-4.128h.927v4.128c0 .552-.051 1.106-.15 1.645zM425.32 244.06a13.621 13.621 0 0 1-4.657-3.543l.708-.6a12.681 12.681 0 0 0 4.338 3.301l-.389.842zm64.042 1.216l-.056-.926a8.029 8.029 0 0 0 4.886-2.025l.617.693a9.078 9.078 0 0 1-5.447 2.258zm-58.323.016h5.698v-.927h-5.698v.927zm11.397 0h5.698v-.927h-5.698v.927zm12.053 0h5.698v-.927h-5.698v.927zm12.053 0h5.698v-.927h-5.698v.927zm11.396 0h5.698v-.927h-5.698v.927z"/>
        <g filter="url(#a)" transform="translate(432 41)">
            <mask id="c" fill="#fff">
                <use xlink:href="#b"/>
            </mask>
            <rect width="131.391" height="174.435" x=".464" y=".464" stroke="#EEE" stroke-width=".927" rx="4.783"/>
            <g mask="url(#c)">
                <use fill="#FFF" xlink:href="#d"/>
                <use fill="#000" filter="url(#e)" xlink:href="#d"/>
            </g>
            <circle cx="8.768" cy="8.768" r="2.391" fill="#FC3A52" mask="url(#c)"/>
            <circle cx="18.333" cy="8.768" r="2.391" fill="#F2AF00" mask="url(#c)"/>
            <circle cx="27.898" cy="8.768" r="2.391" fill="#7AB800" mask="url(#c)"/>
        </g>
        <path fill="#F70" d="M520.097 140.428l-16.22-28.285c-2.402-4.19-8.41-4.19-10.812 0l-16.22 28.285c-2.402 4.19.601 9.429 5.407 9.429h10.138c.872 0 1.629-.606 1.825-1.462l1.538-6.71c0-.694-.56-1.257-1.249-1.257h-3.602c-1.441 0-2.342-1.571-1.622-2.828l7.57-13.2a1.866 1.866 0 0 1 3.243 0l7.569 13.2c.72 1.257-.18 2.828-1.622 2.828h-3.622c-.69 0-1.249.563-1.249 1.257l1.538 6.71a1.875 1.875 0 0 0 1.825 1.462h10.158c4.806 0 7.81-5.238 5.407-9.429"/>
        <g filter="url(#f)" transform="translate(543.59 136.291)">
            <rect width="86.754" height="40.522" x=".464" y=".464" fill="#FFF" stroke="#EEE" stroke-width=".927" rx="4.783"/>
            <g transform="translate(7.971 9.565)">
                <circle cx="11.159" cy="11.159" r="11.159" fill="#FC3A52"/>
                <path fill="#FFF" d="M8.768 15.145V7.174l6.643 3.985z"/>
                <rect width="39.855" height="1.594" x="28.696" y="1.594" fill="#EEE" rx=".797"/>
                <rect width="23.913" height="1.594" x="28.696" y="7.174" fill="#EEE" rx=".797"/>
                <rect width="23.913" height="1.594" x="28.696" y="11.956" fill="#EEE" rx=".797"/>
                <rect width="9.565" height="1.594" x="28.696" y="17.536" fill="#EEE" rx=".797"/>
            </g>
        </g>
        <g filter="url(#g)" transform="translate(351.86 159.523)">
            <rect width="97.913" height="62.841" x=".464" y=".464" fill="#FFF" stroke="#EEE" stroke-width=".927" rx="4.783"/>
            <g transform="translate(21.522 10.362)">
                <path fill="#E3E3E3" d="M57.355 48.623c-.171-3.72-1.005-7.44-2.502-11.16-2.244-5.579-4.74-6.376-6.876-10.362-2.137-3.985-2.644-15.942-7.479-21.521C35.664 0 31.123 0 28.253 0c-2.87 0-7.147.797-10.526 6.377-3.38 5.58-4.462 15.145-6.603 19.13-2.141 3.986-3.74 1.594-6.172 7.971-2.431 6.377-2.431 11.957-2.431 14.348 1.872 0 20.15.266 54.834.797z"/>
                <path fill="#FFC7A1" d="M.114 48.623h57.241c-7.34-5.845-16.88-8.768-28.62-8.768-11.741 0-21.281 2.923-28.621 8.768z"/>
                <ellipse cx="27.101" cy="21.522" fill="#FFF" rx="7.971" ry="11.159"/>
                <path fill="#FFF" d="M23.913 31.087c-.058 5.314-1.474 8.768-4.246 10.362-4.159 2.391 15.16 5.58 17.095 0-2.342-2.391-5.594-3.985-5.594-10.362h-7.255z"/>
                <path fill="#E3E3E3" d="M19.667 12.754c3.87 8.502 9.94 11.956 18.21 10.362 8.27-1.594 7.117-7.44-3.457-17.536l-14.753 7.174z"/>
            </g>
            <path fill="#CCD1D9" d="M6.377 59.782V55l3.985 2.391z"/>
            <g transform="translate(76.522 4.783)">
                <circle cx="1.594" cy="3.188" r="1.594" fill="#FC3A52"/>
                <text fill="#787A80" font-family="Montserrat-SemiBold, Montserrat" font-size="4.783" font-weight="500">
                    <tspan x="4.783" y="5">LIVE</tspan>
                </text>
            </g>
        </g>
        <path fill="#F5F5F5" d="M933.404 224c26.595 0 54.173-25.324 50.561-52.456C980.354 144.412 960 142 933.405 142c-26.595 0-45.145 7.235-48.154 37.985C882.24 210.735 906.81 224 933.404 224zM110.867 56c27.398 0 55.81 26.25 52.089 54.375C159.235 138.5 138.265 141 110.866 141c-27.397 0-46.507-7.5-49.608-39.375C58.158 69.75 83.468 56 110.867 56z"/>
        <g transform="translate(117 49)">
            <circle cx="30" cy="30" r="29.027" fill="#FFF"/>
            <circle cx="30" cy="30" r="26.179" fill="#FFC7A1"/>
            <path fill="url(#h)" d="M30.19 30h-.379c-.704 0-1.274-.57-1.274-1.274v-15.5c0-.704.57-1.275 1.274-1.275h.378c.704 0 1.275.57 1.275 1.275v15.5c0 .704-.571 1.274-1.275 1.274z"/>
            <path fill="url(#i)" d="M30.19 30l.267.267a1.275 1.275 0 0 1 0 1.803l-8.95 8.95a1.275 1.275 0 0 1-1.802 0l-.268-.268a1.275 1.275 0 0 1 0-1.803L28.387 30a1.275 1.275 0 0 1 1.802 0z"/>
            <path fill="#FC3A52" d="M47.786 25.67a.542.542 0 0 1-.397.656l-17.118 4.216a.542.542 0 0 1-.26-1.053l17.12-4.215a.542.542 0 0 1 .655.397z"/>
            <circle cx="30" cy="30" r="2.419" fill="#444545"/>
            <path fill="url(#j)" d="M30.093 10.406h-.186a1.37 1.37 0 0 1-1.37-1.37V7.332c0-.757.613-1.37 1.37-1.37h.186c.757 0 1.37.613 1.37 1.37v1.704a1.37 1.37 0 0 1-1.37 1.37z"/>
            <path fill="url(#k)" d="M30.093 54.038h-.186a1.37 1.37 0 0 1-1.37-1.37v-1.704c0-.757.613-1.37 1.37-1.37h.186c.757 0 1.37.613 1.37 1.37v1.704a1.37 1.37 0 0 1-1.37 1.37z"/>
            <path fill="url(#l)" d="M49.594 30.093v-.186c0-.757.613-1.37 1.37-1.37h1.704c.757 0 1.37.613 1.37 1.37v.186a1.37 1.37 0 0 1-1.37 1.37h-1.704a1.37 1.37 0 0 1-1.37-1.37z"/>
            <path fill="url(#m)" d="M5.962 30.093v-.186c0-.757.613-1.37 1.37-1.37h1.704c.757 0 1.37.613 1.37 1.37v.186a1.37 1.37 0 0 1-1.37 1.37H7.332a1.37 1.37 0 0 1-1.37-1.37z"/>
        </g>
        <g>
            <path fill="#FFC7A1" stroke="#FFF" stroke-width="5" d="M926.34 200.72l-7.317.04c-1.956.011-3.568-1.986-3.582-4.437l-.035-6.496h-.026s1.224-4.237.534-9.638c-.275-2.15-1.435-4.121-3.261-5.289-12.766-8.165-11.713-20.296-11.713-20.296s-1.585-21.783 22.94-20.24c23.004 1.447 24.951 17.676 24.951 17.676s4.388 12.781-13.509 23.97c-1.377.862-2.354 2.287-2.551 3.899-.494 4.044.73 9.246.86 9.775h.01l.035 6.54c.013 2.451-1.576 4.465-3.533 4.476l-1.15.006-1.241 2.996-6.915.037-1.528-2.98 7.03-.038z"/>
            <path fill="#FFC7A1" d="M915.38 189.827l18.261-.099s-1.391-5.554-.87-9.819c.197-1.612 1.174-3.037 2.551-3.899 17.897-11.189 13.509-23.97 13.509-23.97s-1.947-16.229-24.951-17.676c-24.525-1.543-22.94 20.24-22.94 20.24s-1.053 12.131 11.713 20.296c1.826 1.168 2.986 3.139 3.261 5.289.69 5.401-.534 9.638-.534 9.638"/>
            <path fill="#F70" d="M933.641 189.684l.035 6.54c.013 2.451-1.576 4.465-3.533 4.476l-11.12.06c-1.956.011-3.568-1.986-3.582-4.437l-.035-6.541 18.235-.098"/>
            <path fill="#B34F04" d="M928.993 200.706l-1.241 2.996-6.915.037-1.528-2.98 9.684-.053"/>
            <path fill="#FFFFFE" d="M932.517 160.456c-1.404 2.096-3.648 2.696-5.972 2.508l-.022-3.983c-.003-.74.28-1.453.804-1.976.937-.932 2.606-1.919 4.681-.883 1.306.806 1.463 2.909.509 4.334zm-11.253 1.317c-1.762-.574-4.255-1.752-4.496-3.505-.059-.429.127-.868.448-1.158 3.075-2.782 4.005 2.204 3.991 2.828.065.604.064 1.221.057 1.835zm12.321-1.111c2.748-5.184-4.093-7.712-7.305-4.155-.581.644-.839 1.515-.851 2.383-.022 1.535.012 3.928.012 3.928a27.274 27.274 0 0 1-2.866-.648c.031-1.482.007-3.015-.428-4.288-1.933-5.658-9.189-1.238-4.931 2.791.997.943 2.463 1.645 4.043 2.15l.374 26.872 1.247-.007-.23-16.516-.119-8.571c-.007-.449.005-.926.018-1.415.932.227 1.864.385 2.752.48l.141 26.009 1.247-.008-.14-25.909c.252.01.512.025.746.024 2.372-.019 5.105-.887 6.29-3.12z"/>
            <path fill="#FFC7A1" d="M900.499 130.036a.965.965 0 0 0-.008-1.366l-9.269-9.169a.967.967 0 1 0-1.359 1.373l9.27 9.17a.966.966 0 0 0 1.366-.008M941.197 129.815a.964.964 0 0 1-.008-1.365l9.17-9.27a.966.966 0 0 1 1.373 1.358l-9.169 9.27a.964.964 0 0 1-1.366.007M923.747 126.526a.965.965 0 0 0 .961-.97l-.07-13.039a.967.967 0 0 0-1.932.01l.07 13.039a.965.965 0 0 0 .971.96"/>
        </g>
        <g transform="translate(600 104)">
            <circle cx="8" cy="8" r="8" fill="#7AB800"/>
            <path stroke="#FFF" stroke-linecap="round" stroke-linejoin="round" stroke-width="1.5" d="M4.818 8.243l2.121 2.121 4.243-4.243"/>
        </g>
    </g>
</svg>
