<svg xmlns="http://www.w3.org/2000/svg" xmlns:xlink="http://www.w3.org/1999/xlink" width="106" height="361" viewBox="0 0 106 361">
    <defs>
        <path id="a" d="M.381.467h45.18v29.092H.382z"/>
        <path id="c" d="M.443.467h17.332V13.91H.443z"/>
        <path id="e" d="M.38.338h45.191v3.72H.381z"/>
        <path id="g" d="M.381.338h7.871v3.72H.382z"/>
        <path id="i" d="M.44.338h26.834v3.72H.439z"/>
        <path id="k" d="M.465.217H26.09v83.136H.465z"/>
    </defs>
    <g fill="none" fill-rule="evenodd">
        <path fill="#E78052" d="M74.512 322.083c-.561 10.183-.717 18.641-.061 22.337l-13.298.85s-.828-9.172-1.257-22.276c4.88-.84 9.753-1.184 14.616-.911"/>
        <g transform="translate(55.572 331.416)">
            <mask id="b" fill="#fff">
                <use xlink:href="#a"/>
            </mask>
            <path fill="#165B3A" d="M45.562 29.559H.382l2.054-28.17C8.927.272 15.03.052 20.454 1.39c0 0-1.106 8.705 7.903 11.553 9.01 2.849 17.205 1.957 17.205 16.617" mask="url(#b)"/>
        </g>
        <path fill="#2BB673" d="M61.362 360.975h-5.41l2.056-28.17c3.244-.558 6.393-.893 9.41-.92 3.015-.027 5.896.252 8.608.92 0 0-.02.234-.03.55v.14c-.014 1.197.154 3.786 1.69 6.245-5.146-.077-10.288-.162-15.432-.243-.183.325-.394.613-.538.984-1.261 3.237-.762 7.138-.574 10.507.188 3.333.128 6.662.22 9.987"/>
        <path fill="#F1F2F2" d="M92.277 347.536c7.35 0 8.911 5.197 8.68 13.439h-25.84c6.469-13.916 10.57-13.439 17.16-13.439"/>
        <g transform="translate(74.674 347.065)">
            <mask id="d" fill="#fff">
                <use xlink:href="#c"/>
            </mask>
            <path fill="#D1D3D4" d="M6.323 13.91H.443C6.911-.006 11.013.471 17.602.471c1.936 0-13.04-.615-11.28 13.44" mask="url(#d)"/>
        </g>
        <path fill="#2BB673" d="M76.188 348.2c-.842.795-.959 2.038-.263 2.778.697.738 1.943.693 2.784-.1.842-.796.96-2.039.264-2.778-.697-.739-1.943-.693-2.785.1"/>
        <path fill="#D1D3D4" d="M77.17 350.609c9.144-4.911 16.572-3.48 16.572-3.48-5.699-4.19-16.383 1.246-16.53 1.309a1.188 1.188 0 0 0-.041 2.17"/>
        <path fill="#2BB673" d="M71.358 346.226c-.841.794-.959 2.038-.262 2.777.696.739 1.942.695 2.783-.1.842-.795.96-2.037.263-2.777-.696-.74-1.942-.695-2.784.1M66.94 344.086c-.841.794-.958 2.038-.262 2.777.697.739 1.943.694 2.784-.1.842-.795.96-2.037.264-2.777-.697-.739-1.943-.695-2.786.1"/>
        <path fill="#D1D3D4" d="M72.217 348.501c9.143-4.912 14.463-3.37 14.463-3.37-3.797-3.514-14.315 1.08-14.423 1.198-.604.662-.887.95-.634 1.554.118.284.335.498.594.618"/>
        <path fill="#D1D3D4" d="M67.82 344.346c.119-.062 10.15-5.622 13.276-1.31 0 0-5.966-1.431-13.308 3.48a1.105 1.105 0 0 1-.478-.617c-.202-.604.026-1.3.51-1.553"/>
        <g transform="translate(55.572 356.918)">
            <mask id="f" fill="#fff">
                <use xlink:href="#e"/>
            </mask>
            <path fill="#D1D3D4" d="M45.35.338c.174 1.118.25 2.352.212 3.72H.38L.65.337H45.35z" mask="url(#f)"/>
        </g>
        <g transform="translate(55.572 356.918)">
            <mask id="h" fill="#fff">
                <use xlink:href="#g"/>
            </mask>
            <path fill="#808285" d="M8.213.338c.03 1.118.045 2.352.037 3.72H.381L.43.337h7.784z" mask="url(#h)"/>
        </g>
        <path fill="#E78052" d="M37.084 323.572c-1.498 10.576-2.497 18.298-2.497 18.298l-9.337 1.417s-.706-7.875-.636-20.385c4.716-.986 8.877-.78 12.47.67"/>
        <path fill="#165B3A" d="M22.331 335.667c.989-6.642 16.619-5.186 16.619.062 0 13.365 2.993 11.665 2.993 21.72 0 3.027.277.366-10.87.366-11.149 0-15.017 3.476-15.017-.223 0-9.985 4.068-5.894 5.057-12.535l1.218-9.39z"/>
        <path fill="#165B3A" d="M21.112 345.056l.733-5.648.485-3.741c.99-6.642 16.62-5.186 16.62.062 0 1.33.03 2.509.083 3.566.185 3.691-11.996-5.372-17.92 5.761"/>
        <path fill="#2BB673" d="M26.038 338.728c-1.711 3.416-1.054 7.656-2.222 11.244-1.066 3.273-3.68 6.654-6.623 9.25-.752-.12-1.137-.545-1.137-1.63 0-9.986 4.068-5.893 5.057-12.535l1.217-9.39c.887-5.953 13.496-5.39 16.114-1.435-4.749-.218-10.012-.283-12.406 4.496M38.067 341.541c.195 1.04-.272 2.047-1.043 2.25-.771.203-1.555-.475-1.75-1.515-.196-1.04.271-2.047 1.042-2.25.771-.203 1.555.476 1.75 1.515"/>
        <path fill="#2BB673" d="M22.18 341.541c-.194 1.04.273 2.047 1.043 2.25.772.203 1.556-.475 1.751-1.515.196-1.04-.272-2.047-1.042-2.25-.771-.203-1.556.476-1.751 1.515"/>
        <path fill="#D1D3D4" d="M24.115 342.754c.087 0 .178-.02.263-.064 3.944-2.021 8.467-2.021 12.411 0 .333.168.725-.012.87-.407.145-.396-.01-.857-.343-1.028-4.28-2.192-9.185-2.192-13.465 0-.332.171-.487.632-.343 1.028.109.294.351.471.607.471"/>
        <path fill="#2BB673" d="M38.253 348.199c.195 1.04-.272 2.046-1.043 2.25-.77.202-1.555-.475-1.75-1.516-.196-1.039.271-2.047 1.042-2.25.772-.203 1.556.476 1.75 1.516M21.994 348.199c-.195 1.04.272 2.046 1.043 2.25.772.202 1.555-.475 1.75-1.516.197-1.039-.271-2.047-1.042-2.25-.77-.203-1.555.476-1.75 1.516"/>
        <path fill="#D1D3D4" d="M24.115 349.007c.087 0 .178-.021.263-.064 3.944-2.022 8.467-2.022 12.411 0 .333.165.725-.012.87-.407.145-.396-.01-.857-.343-1.028-4.28-2.193-9.185-2.193-13.465 0-.332.17-.487.632-.343 1.028.109.294.351.47.607.47"/>
        <path fill="#2BB673" d="M38.005 344.815c.195 1.04-.272 2.046-1.043 2.25-.772.202-1.555-.476-1.751-1.515-.196-1.04.272-2.048 1.042-2.25.772-.203 1.555.476 1.752 1.515M22.243 344.815c-.196 1.04.272 2.046 1.043 2.25.771.202 1.555-.476 1.75-1.515.196-1.04-.27-2.048-1.042-2.25-.77-.203-1.555.476-1.75 1.515"/>
        <path fill="#D1D3D4" d="M24.115 345.88a.586.586 0 0 0 .263-.064c3.944-2.02 8.467-2.02 12.411 0 .333.168.725-.012.87-.405.145-.397-.01-.859-.343-1.03-4.28-2.191-9.185-2.191-13.465 0-.332.171-.487.633-.343 1.03.109.292.351.47.607.47"/>
        <path fill="#165B3A" d="M19.076 349.311c6.95-2.305 14.963-1.848 21.956.507.508 1.846.911 3.949.911 7.632 0 3.026.277.365-10.87.365-11.149 0-15.017 3.476-15.017-.223 0-6.237 1.587-6.982 3.02-8.28"/>
        <g transform="translate(15.05 356.918)">
            <mask id="j" fill="#fff">
                <use xlink:href="#i"/>
            </mask>
            <path fill="#D1D3D4" d="M27.141.338c.105 1.118.15 2.352.127 3.72H.439L.6.337h26.541z" mask="url(#j)"/>
        </g>
        <path fill="#6C0D1B" d="M24.587 76.038s-31.983 64.865-22.962 88.95c9.021 24.085 49.204 17.516 50.024 1.916.82-15.6-4.92-76.908-19.681-92.234l-7.38 1.368z"/>
        <g transform="translate(79.884 72.924)">
            <mask id="l" fill="#fff">
                <use xlink:href="#k"/>
            </mask>
            <path fill="#6592BF" d="M4.576.217c1.83 1.556 19.089 26.484 21.352 51.41C28.191 76.556 6.124 83.354 6.124 83.354L4.143 64.375l6.79-13.88L.465 37.748 4.576.217z" mask="url(#l)"/>
        </g>
        <path fill="#4C6E8F" d="M91.606 96.736c3.745 6.132.113 15.184-4.3 22.407l-6.957-8.471 2.868-26.184c2.683 4.153 5.75 7.927 8.39 12.248"/>
        <path fill="#4C6E8F" d="M81.384 101.23c5.919 8.238 13.233 17.13 11.507 26.585-1.612 8.83-5.49 17.773-2.509 26.49-2.535 1.386-4.374 1.972-4.374 1.972L84.027 137.3l6.79-13.88-10.468-12.747 1.035-9.442z"/>
        <path fill="#4C6E8F" d="M82.895 130.217s18.674 8.71 15.915 21.032c0 0-5.517 4.674-10.61 4.887-5.092.212-12.095-16.996-11.457-20.183.636-3.186 6.152-5.736 6.152-5.736"/>
        <path fill="#603913" d="M75.681 19.956s4.103 59.556-5.517 64.655c-9.62 5.1-42.438 6.232-42.72-5.382-.283-11.614.494-64.372 9.406-70.533 8.913-6.161 34.87-10.268 38.831 11.26"/>
        <path fill="#301D0A" d="M52.355 27.146C32.583 32.005 32.919 68.37 34.405 86.24c10.233 3.603 28.889 2.014 35.758-1.628.528-.28.998-.786 1.446-1.374 1.128-20.25 2.369-61.404-19.254-56.09"/>
        <path fill="#FBB040" d="M90.118 156.056s-.084 15.943-.084 36.339c0 33.99-13.015 121.803-13.015 134.833-7.447 2.172-13.83 1.608-19.804 0l.642-121.38-6.867 46.032-9.619 75.348c-7.446 2.984-11.41 3.06-18.673 0 0 0-3.779-120.409 4.052-170.395l63.368-.777z"/>
        <path fill="#FFF" d="M33.238 156.753l53.92-.661c1.445 5.42-6.581 102.444-15.862 102.444-9.28 0-9.21-66.903-11.486-80.26-5.901 27.38-13.025 78.675-24.394 78.675-11.367 0-4.258-82.43-2.178-100.198" opacity=".3"/>
        <path fill="#1A1718" d="M78.527 184.013c-8.26 2.298-17.17 2.54-25.678 1.846-9.845-.804-19.385-3.173-28.651-6.408a268.28 268.28 0 0 1 2.553-22.618l63.367-.777s-.054 10.213-.076 24.733c-3.884.817-7.591 2.132-11.515 3.224"/>
        <path fill="#E6E7E8" d="M30.841 131.962c-.718-5.176-7.648-56.052-7.648-56.052s17.889-9.978 21.325-11.694c3.743.641 5.368 2.294 9.193 2.18 4.286-.131 9.585.311 13.298-2.246 4.666 2.401 15.783 8.124 17.451 8.99 2.122 1.102.236.29-.117 8.676-.231 5.488 3.437 12.145 3.584 20.141.148 7.995-2.408 18.468-2.408 18.468 5.016 18.078 6.5 52.731 6.5 54.619-.015 5.178-28.87 4.91-29.918 4.886-13.859-.302-40.847-4.992-39.467-6.373 0-11.472 8.926-36.419 8.207-41.595"/>
        <path fill="#6592BF" d="M69.952 183.117c3.504-9.744 3.521-80.67.603-108.592-.284-2.732 3.602-6.696 3.602-6.696 4.538 2.337 9.262 4.77 10.303 5.312 2.123 1.1.236.29-.117 8.675-.232 5.489 3.437 12.145 3.585 20.14.146 7.996-2.409 18.47-2.409 18.47 5.015 18.077 6.5 52.73 6.5 54.618-.014 4.815-17.731 8.1-22.067 8.073"/>
        <path fill="#4C6E8F" d="M80.503 79.727c-1.328 2.024-3.087 4.903-5.139 7.368a28.714 28.714 0 0 1-3.76 1.408c-.291-5.304-.64-10.072-1.049-13.979-.284-2.73 3.602-6.694 3.602-6.694 3.921 2.018 7.971 4.104 9.674 4.985-.842 2.4-1.893 4.73-3.328 6.912"/>
        <path fill="#6592BF" d="M28.15 133.191c-.717-5.175-4.957-57.281-4.957-57.281s8.491-4.736 14.898-8.244c0 0 5.66 5.705 7.318 10.997 8.675 27.695 17.118 92.499 7.356 104.241-14.381-.771-31.424-8.053-30.131-9.347 0-11.472 6.235-35.19 5.517-40.366"/>
        <path fill="#090023" d="M28.15 133.191c-.431-3.111-2.135-23.182-3.426-38.7 1.875 3.716 3.845 7.37 5.243 10.978 2.517 6.5 3.005 11.265 3.629 17.977.576 6.208 2.535 10.574-.277 16.482-4.828 10.144-8.292 23.142-8.452 35.573-1.696-.898-2.562-1.615-2.233-1.944 0-11.472 6.235-35.19 5.517-40.366" opacity=".2"/>
        <path fill="#4C6E8F" d="M32.667 82.346c-2.664-2.26-5.086-5.206-7.993-7.261 2.713-1.51 8.642-4.804 13.417-7.42 0 0 6.972 5.462 7.318 10.998.187 3.012.419 6.497.68 10.294-4.798-1.624-9.32-3.13-13.422-6.611"/>
        <path fill="#FAB57A" d="M43.984 64.49l-.005-.009c4.53-3.99-.205-18.2-.205-18.2l16.473.586 4.702 16.222 2.382 1.225v.001c2.41 1.241 6.26 3.222 9.747 5.019-5.164 9.294-16.15 15.824-26.436 10.66-5.26-2.64-10.42-6.595-15.195-10.876 3.535-1.945 6.874-3.767 8.537-4.628"/>
        <path fill="#E78052" d="M57.116 63.688c-3.03.119-8.43-2.09-11.415-2.743 1.054-5.687-1.928-14.664-1.928-14.664l16.474.586L63.9 59.474c-.634 2.264-3.456 4.084-6.785 4.214"/>
        <path fill="#6592BF" d="M71.437 87.302s-5.8-17.845-3.819-24.22c0 0 6.649 2.126 8.629 4.959 0 0 2.759-.815 6.012 2.584 3.254 3.4-10.822 16.677-10.822 16.677M45.974 88.01s7.428-18.554-3.182-24.077c0 0-6.153.708-7.569 3.4 0 0-7.213 3.965-7.92 6.514-.708 2.55 18.671 14.163 18.671 14.163M23.193 75.91S0 110.672 0 127.95C0 145.23 23.27 152.1 23.27 152.1l7.427-13.81-10.892-14.02 12.448-16.713s6.495-18.82-9.06-31.646"/>
        <path fill="#BBC7D9" d="M57.26 321.847s20.44-.142 20.511.92c.07 1.062.283 5.381-.778 6.161-1.061.779-19.097 2.125-19.663-.283-.566-2.408-1.414-5.382-.07-6.798M42.51 321.528s-21.158-.142-21.231.92c-.074 1.062-.293 5.382.805 6.161 1.098.78 19.768 2.125 20.354-.283.586-2.408 1.464-5.382.073-6.798"/>
        <path fill="#603913" d="M39.587 44.813s-.848 12.322 6.154 23.369 2.97 20.183 2.97 20.183-5.375-16.359-12.66-21.033c-7.285-4.674-3.466-28.256-3.466-28.256l7.002 5.737zM76.252 48.637s-.743 12.321 5.389 23.369c6.13 11.047 2.6 20.183 2.6 20.183s-4.706-16.36-11.086-21.033c-6.378-4.674-3.034-28.255-3.034-28.255l6.131 5.736z"/>
        <path fill="#FBBE7D" d="M55.938 8.576c16.75.18 17.592 15.926 17.633 17.824.002.115-.002.226-.01.342-.119 1.75-1.27 17.94-2.916 21.017-1.365 2.55-5.663 10.791-15.347 10.791s-13.596-8.537-14.905-11.117c-1.58-3.112-2.382-19.322-2.466-21.076a3.922 3.922 0 0 1-.001-.34c.081-1.897 1.261-17.622 18.012-17.441"/>
        <path fill="#E78052" d="M39.445 43.574c.878-1.764 8.253-27.681 8.253-27.681s23.39 12.322 25.672 13.385c.096-1.216.17-2.199.192-2.537.007-.115.01-.226.007-.34-.04-1.9-.881-17.646-17.63-17.825-16.752-.181-17.93 15.544-18.013 17.44-.005.116-.004.227.001.341.065 1.357.566 11.314 1.518 17.217"/>
        <path fill="#231F20" d="M48.205 31.398c1.174-.118 2.19 1.148 2.268 2.83.08 1.68-.808 3.138-1.981 3.257-1.175.119-2.19-1.147-2.269-2.828-.079-1.682.809-3.141 1.982-3.26M63.545 31.563c1.173-.118 2.19 1.147 2.269 2.83.078 1.68-.81 3.14-1.984 3.258-1.172.118-2.189-1.148-2.268-2.83-.078-1.68.81-3.14 1.983-3.258"/>
        <path fill="#E78052" d="M56.023 41.74c.283.471.266.388.074.743-.134.245-.452.476-.642.676-.415.44 1.391.343 1.711.006.266-.28.908-.742 1.04-1.118.159-.45-.16-.623-.48-.896a5.587 5.587 0 0 1-1.798-2.92c-.117-.459-.87 1.906.095 3.51"/>
        <path fill="#FFF" d="M60.878 46.264c-3.56-.572-7.212-.567-10.951 0 0 0 2.797 4.722 5.435 4.722 2.639 0 5.516-4.722 5.516-4.722"/>
        <path fill="#603913" d="M57.5.69C38.195-.65 36.362 10.575 35.16 12.605c-1.203 2.03.083 31.373 3.388 35.394 2.529-3.587 1.783-28.403 9.549-34.417 0 0 24.33 14.539 25.494 15.402C77.525 16.534 73.28 1.789 57.5.69"/>
        <path fill="#806142" d="M36.667 12.484C43.961-1.01 58.796 2.472 71.145 7.756 68.315 3.885 63.9 1.136 57.5.69 38.195-.652 36.362 10.575 35.16 12.605c-.254.427-.39 2.103-.426 4.454.583-1.57 1.161-3.146 1.933-4.575"/>
        <path fill="#7F3B33" d="M52.537 27.246a3.371 3.371 0 0 1-.327-.062c-6.526-1.416-9.846 2.03-9.758 1.875-.31.263-.745.464-1 .445-.254-.018-.24-.267.06-.555.007.16 2.274-5.019 10.076-3.578.534.124 1.342 1.935.949 1.875M59.35 27.024a2.43 2.43 0 0 0 .294-.064c5.83-1.503 9.42 1.58 9.31 1.473.323.244.77.42 1.022.386.253-.033.218-.282-.103-.552.032.107-2.816-4.53-9.86-2.897-.476.132-1.014 1.712-.663 1.654"/>
        <path fill="#BE1E2D" d="M22.947 74.67s5.877-7.527 10.524-7.253c4.647.274 12.301 48.99-5.194 64.591 0 0-4.237-.958-6.97-5.61-2.734-4.653 12.574-7.116 1.64-51.728"/>
        <path fill="#FAB57A" d="M29 139.352l7.85 6.16c-.362 5.205-2.285 8.233-5.729 9.137l-7.214-4.674L29 139.352z"/>
        <path fill="#4C6E8F" d="M23.051 128.447l7.646 9.843-7.426 13.809s-7.2-2.135-13.59-6.996c3.977-6.027 7.385-12.674 13.37-16.656"/>
        <path fill="#ADB7C4" d="M32.606 136.166s-2.263-6.516-6.082-6.09c-3.82.424-16.339 15.933-13.792 18.907 2.546 2.975 10.114 6.02 11.6 5.666 1.484-.354 9.123-14.447 8.274-18.483"/>
        <path fill="#4C6E8F" d="M37.593 139.671s-3.183 10.73-7.744 16.57l3.924 1.913s6.154-6.267 7.321-16.996l-3.5-1.487z"/>
    </g>
</svg>
