<svg xmlns="http://www.w3.org/2000/svg" xmlns:xlink="http://www.w3.org/1999/xlink" width="118" height="375" viewBox="0 0 118 375">
    <defs>
        <path id="a" d="M.468.458h28.959v76.956H.468z"/>
        <path id="c" d="M0 .295h44.548V28.98H0z"/>
        <path id="e" d="M0 .295h19.792V28.98H0z"/>
        <path id="g" d="M.372.076h17.09V13.33H.372z"/>
        <path id="i" d="M0 .39h44.557v3.667H.001z"/>
        <path id="k" d="M0 .39h7.761v3.667H.001z"/>
        <path id="m" d="M.01.295h44.547V28.98H.01z"/>
        <path id="o" d="M.453.295h19.792V28.98H.453z"/>
        <path id="q" d="M.467.076h17.09V13.33H.467z"/>
        <path id="s" d="M0 .39h44.557v3.667H0z"/>
        <path id="u" d="M.327.39h7.76v3.667H.328z"/>
    </defs>
    <g fill="none" fill-rule="evenodd">
        <path fill="#FBB57A" d="M99.697 79.143s12.3 66.62 10.37 78.597c-1.93 11.978-20.453 47.525-20.453 47.525l-4.245-18.16 10.034-25.887-6.947-53.708 11.241-28.367z"/>
        <path fill="#E78052" d="M109.933 158.474c-4.842 1.047-9.848.884-14.826.458l-6.65-51.422 11.24-28.367s12.3 66.619 10.37 78.597c-.037.235-.084.482-.134.734"/>
        <g transform="translate(87.988 78.685)">
            <mask id="b" fill="#fff">
                <use xlink:href="#a"/>
            </mask>
            <path fill="#E6E6E6" d="M6.679 76.846L.469 28.825 11.708.458c10.347 10.35 19.246 60.05 17.497 73.082-8.875 3.357-18.86 4.753-22.527 3.306" mask="url(#b)"/>
        </g>
        <g transform="translate(61.94 345.872)">
            <mask id="d" fill="#fff">
                <use xlink:href="#c"/>
            </mask>
            <path fill="#1A1A1A" d="M44.548 28.98H0L2.026 1.204c6.4-1.102 12.419-1.319 17.766 0 0 0-1.09 8.583 7.792 11.39 8.883 2.81 16.964 1.93 16.964 16.384" mask="url(#d)"/>
        </g>
        <g transform="translate(61.94 345.872)">
            <mask id="f" fill="#fff">
                <use xlink:href="#e"/>
            </mask>
            <path fill="#000" d="M19.765 2.658c-5.378.395-11.927.586-14.082 6.114-1.244 3.192-.752 7.038-.565 10.36.185 3.286.125 6.568.216 9.847H0L2.026 1.205c6.4-1.102 12.419-1.319 17.766 0 0 0-.07.568-.027 1.453" mask="url(#f)"/>
        </g>
        <path fill="#F1F2F2" d="M97.754 361.6c7.248 0 8.787 5.124 8.559 13.25H80.835c6.378-13.72 10.421-13.25 16.919-13.25"/>
        <g transform="translate(80.463 361.52)">
            <mask id="h" fill="#fff">
                <use xlink:href="#g"/>
            </mask>
            <path fill="#D1D3D4" d="M6.17 13.33H.372C6.75-.39 10.793.08 17.291.08 19.2.08 4.433-.526 6.17 13.33" mask="url(#h)"/>
        </g>
        <path fill="#F1F2F2" d="M81.892 362.256c-.831.783-.946 2.009-.26 2.738.687.728 1.916.684 2.745-.1.83-.783.946-2.009.26-2.737-.687-.729-1.916-.685-2.745.099"/>
        <path fill="#F1F2F2" d="M82.86 364.63c9.015-4.842 16.34-3.431 16.34-3.431-5.62-4.13-16.155 1.229-16.3 1.29a1.17 1.17 0 0 0-.04 2.141M77.13 360.309c-.83.783-.947 2.009-.26 2.738.686.728 1.915.684 2.745-.099.83-.784.946-2.01.26-2.739-.687-.729-1.916-.684-2.746.1M72.774 358.199c-.83.783-.945 2.01-.26 2.738.687.728 1.916.684 2.746-.098.83-.785.946-2.01.26-2.74-.687-.728-1.916-.685-2.746.1"/>
        <path fill="#F1F2F2" d="M77.976 362.552c9.014-4.843 14.26-3.324 14.26-3.324-3.744-3.464-14.114 1.066-14.22 1.183-.596.651-.876.935-.626 1.532.117.28.33.49.586.609"/>
        <path fill="#F1F2F2" d="M73.641 358.454c.117-.06 10.007-5.542 13.089-1.29 0 0-5.881-1.412-13.12 3.43a1.087 1.087 0 0 1-.472-.608c-.2-.595.025-1.282.503-1.532"/>
        <g transform="translate(61.94 370.794)">
            <mask id="j" fill="#fff">
                <use xlink:href="#i"/>
            </mask>
            <path fill="#D1D3D4" d="M44.338.39c.172 1.103.247 2.32.21 3.667H0L.268.39h44.07z" mask="url(#j)"/>
        </g>
        <g transform="translate(61.94 370.794)">
            <mask id="l" fill="#fff">
                <use xlink:href="#k"/>
            </mask>
            <path fill="#808285" d="M7.723.39c.03 1.103.044 2.32.036 3.667H.001L.048.39h7.675z" mask="url(#l)"/>
        </g>
        <g transform="translate(0 345.872)">
            <mask id="n" fill="#fff">
                <use xlink:href="#m"/>
            </mask>
            <path fill="#1A1A1A" d="M.01 28.98h44.547L42.53 1.204c-6.4-1.102-12.418-1.319-17.765 0 0 0 1.09 8.583-7.793 11.39C8.09 15.405.01 14.525.01 28.98" mask="url(#n)"/>
        </g>
        <g transform="translate(24.313 345.872)">
            <mask id="p" fill="#fff">
                <use xlink:href="#o"/>
            </mask>
            <path fill="#000" d="M.48 2.658c5.378.395 11.927.586 14.082 6.114 1.244 3.192.752 7.038.565 10.36-.185 3.286-.125 6.568-.216 9.847h5.334L18.219 1.205C11.818.103 5.799-.114.453 1.205c0 0 .069.568.026 1.453" mask="url(#p)"/>
        </g>
        <path fill="#F1F2F2" d="M8.742 361.6c-7.247 0-8.787 5.124-8.558 13.25H25.66C19.283 361.13 15.24 361.6 8.742 361.6"/>
        <g transform="translate(8.104 361.52)">
            <mask id="r" fill="#fff">
                <use xlink:href="#q"/>
            </mask>
            <path fill="#D1D3D4" d="M11.76 13.33h5.797C11.179-.39 7.136.08.637.08-1.27.08 13.497-.526 11.76 13.33" mask="url(#r)"/>
        </g>
        <path fill="#F1F2F2" d="M24.605 362.256c.83.783.946 2.009.259 2.738-.686.728-1.915.684-2.745-.1-.83-.783-.946-2.009-.26-2.737.687-.729 1.916-.685 2.746.099"/>
        <path fill="#F1F2F2" d="M23.636 364.63c-9.015-4.842-16.34-3.431-16.34-3.431 5.62-4.13 16.155 1.229 16.3 1.29a1.17 1.17 0 0 1 .04 2.141M29.367 360.309c.83.783.946 2.009.259 2.738-.686.728-1.915.684-2.745-.099-.83-.784-.946-2.01-.259-2.739.687-.729 1.915-.684 2.745.1M33.723 358.199c.83.783.945 2.01.26 2.738-.688.728-1.917.684-2.746-.098-.83-.785-.946-2.01-.26-2.74.687-.728 1.915-.685 2.746.1"/>
        <path fill="#F1F2F2" d="M28.52 362.552c-9.014-4.843-14.26-3.324-14.26-3.324 3.744-3.464 14.115 1.066 14.22 1.183.596.651.876.935.627 1.532-.118.28-.332.49-.587.609"/>
        <path fill="#F1F2F2" d="M32.855 358.454c-.116-.06-10.007-5.542-13.089-1.29 0 0 5.882-1.412 13.121 3.43.205-.117.377-.327.471-.608.2-.595-.025-1.282-.503-1.532"/>
        <g transform="translate(0 370.794)">
            <mask id="t" fill="#fff">
                <use xlink:href="#s"/>
            </mask>
            <path fill="#D1D3D4" d="M.219.39a20.09 20.09 0 0 0-.21 3.667h44.548L44.29.39H.219z" mask="url(#t)"/>
        </g>
        <g transform="translate(36.469 370.794)">
            <mask id="v" fill="#fff">
                <use xlink:href="#u"/>
            </mask>
            <path fill="#808285" d="M.365.39C.335 1.493.322 2.71.33 4.057h7.759L8.04.39H.365z" mask="url(#v)"/>
        </g>
        <path fill="#1A1A1A" d="M40.093 164.291l52.41-1.132s2.764 51.04-7.646 104.86c-.649 3.357-4.375 71.12-2.167 83.57-6.263 1.958-12.771 1.826-19.48 0 0 0-8.443-40.036-.975-72.967l2.69-47.662h-2.169c-3.64 16.94-8.303 42.94-8.271 48.87.125 23.242-10.06 76.81-11.584 72.499-6.793 1.963-13.016 2.004-18.653.063 0 0 12.6-172.438 15.845-188.1"/>
        <path fill="#090023" d="M62.235 278.622l2.69-47.661h-2.169c-3.64 16.939-8.303 42.94-8.271 48.87.082 15.19-4.24 43.333-7.67 59.806.237-5.05.52-10.1.673-15.149.17-5.574.244-11.15.436-16.725.19-5.493.006-11.027.557-16.5.508-5.046 1.557-10.01 2.576-14.972 1.016-4.945 1.793-9.843 2.085-14.89.286-4.938.304-9.886.409-14.83.053-2.524.164-4.978-.247-7.482-.412-2.517-1.118-4.972-1.585-7.477-.214-1.15-.475-2.404-.422-3.579.043-.933.197-.896.962-1a235.3 235.3 0 0 0 1.684-.236c2.28-.327 4.557-.673 6.842-.956 4.51-.557 9.178-.983 13.678-.14-4.2 10.353-3.792 21.712-5.049 32.632-.59 5.136-.787 10.242-1.096 15.399-.153 2.548-.392 5.099-.898 7.604-.505 2.506-1.18 4.967-1.633 7.487-.922 5.133-1.45 10.326-2.01 15.508-.575 5.302-1.46 10.57-1.97 15.876-.513 5.335-.682 10.694-.943 16.044l-.012.281c-1.78-14.659-3.216-37.63 1.383-57.91M89.119 216.505c-5.775-.556-11.447-1.915-16.927-3.8-5.493-1.89-11.063-4.161-16.128-7.022-7.511-4.241-13.233-10.576-18.747-17.073 1.17-12.385 2.148-21.288 2.777-24.319l52.408-1.132s1.222 22.573-1.02 53.521c-.788-.044-1.576-.1-2.363-.175" opacity=".2"/>
        <path fill="#F2F2F2" d="M99.697 79.143c-1.198-1.11-28.78-13.878-28.78-13.878l-3.693 8.634-17.957-9.983S21.663 79.82 20.195 81.29c-.936.937 6.44 20.741 11.835 35 3.074 8.127 3.073 62.507 3.073 62.507 16.246 25.148 64.778 51.155 62.229 16.035 0 0 3.565-114.58 2.365-115.69"/>
        <path fill="#CEDAE2" d="M81.44 207.022c-4.259-.296-8.72-1.176-12.588-3.034-3.295-1.583-5.401-4.15-6.604-7.505 6.79 3.45 14.255 7.784 22.111 7.036 6.012-.572 9.478-4.801 12.985-9.054l-.012.368c.308 4.243-.135 7.587-1.172 10.154-4.711 1.585-9.644 2.389-14.72 2.035"/>
        <path fill="#CEDAE2" d="M27.878 103.871a.279.279 0 0 0 .11.064c5.613 11.06 11.194 22.68 11.383 35.308.04 2.759.157 5.609-.14 8.354-.237 2.193-.673 4.369-.71 6.581-.03 1.905.253 3.773 1.434 5.318 1.12 1.464 2.981 2.564 3.656 4.33 1.42 3.716-5.336 5.367-3.362 9.028.754 1.4 2.43 2.1 3.655 2.998 1.96 1.439 2.124 4.036 2.859 6.199.806 2.372 2.36 4.5 3.742 6.567 1.422 2.129 2.94 4.235 4.596 6.19 2.984 3.52 6.499 6.559 10.225 9.263 2.821 2.047 5.763 3.904 8.773 5.649-14.023-5.048-30.71-18.094-38.996-30.922 0 0 0-54.38-3.073-62.507a1597.493 1597.493 0 0 1-4.97-13.282c.257.3.524.592.818.862"/>
        <path fill="#FBB57A" d="M71.028 65.316c-1.212-4.998-1.565-9.47-1.565-9.47l-19.42-5.522s-.01 6.882-.895 13.66c-.59.34-4.8 2.77-9.873 5.732 0 0 4.084 3.287 10.859 5.633.802.3 1.642.56 2.523.775 3.199.89 6.826 1.534 10.879 1.534 14.54 0 15.96-8.394 15.96-8.394-4.611-2.16-8.175-3.811-8.468-3.948"/>
        <path fill="#E78052" d="M70.803 64.318c-1.024-4.576-1.34-8.473-1.34-8.473l-19.42-5.52s-.018 6.283-.79 12.753c6.736 3.019 15.029 9.444 21.55 1.24"/>
        <path fill="#BC8430" d="M81.14 18.537c3.356 15.36-4.3 24.219-4.3 24.219S66.144 30.894 65.26 23.208c-.884-7.685 1.17-9.194 7.052-9.725 5.88-.532 8.828 5.054 8.828 5.054M39.655 18.537c-3.355 15.36 4.3 24.219 4.3 24.219s10.696-11.862 11.58-19.548c.885-7.685-1.171-9.194-7.051-9.725-5.88-.532-8.83 5.054-8.83 5.054"/>
        <path fill="#EB9756" d="M45.953 38.24c0 3.382.155 6.124-1.973 6.124-2.127 0-5.734-2.742-5.734-6.124 0-3.381 1.048-6.123 3.176-6.123s4.531 2.742 4.531 6.123M82.05 38.24c0 3.382-3.608 6.124-5.735 6.124-2.129 0-1.972-2.742-1.972-6.124 0-3.381 2.402-6.123 4.53-6.123s3.176 2.742 3.176 6.123"/>
        <path fill="#FBB57A" d="M60.147 12.56c-16.666 0-17.67 15.657-17.732 17.544a3.31 3.31 0 0 0 .004.34c.102 1.742 1.074 17.86 2.679 20.94 1.33 2.553 9.874 10.9 14.954 10.9 5.081 0 13.815-8.347 15.146-10.9 1.604-3.08 2.577-19.198 2.677-20.94.007-.115.01-.225.005-.34-.06-1.887-1.066-17.544-17.733-17.544"/>
        <path fill="#EB9756" d="M77.8 31.668c-1.783-.266-3.581-.522-5.168-1.407-2.443-1.364-4.441-3.835-6.253-5.915-1.379-1.582-2.603-3.322-4.05-4.84-.937-.983-2.037-1.813-3.429-1.93-3.39-.285-5.742 2.703-7.336 5.255-1.135 1.817-2.053 3.735-3.67 5.192-1.372 1.235-3.016 2.109-4.757 2.698-.228.077-.46.137-.689.205l-.028-.483a3.487 3.487 0 0 1-.005-.339c.061-1.888 1.066-17.544 17.732-17.544 16.667 0 17.673 15.656 17.733 17.544.005.115.002.225-.005.34-.012.211-.038.638-.075 1.224"/>
        <path fill="#3C2415" d="M52.342 32.811c1.166-.159 2.191 1.367 2.286 3.407.097 2.042-.77 3.825-1.937 3.985-1.167.16-2.19-1.366-2.287-3.406-.097-2.042.772-3.826 1.938-3.986M67.604 32.811c1.166-.159 2.19 1.367 2.288 3.407.096 2.042-.771 3.825-1.938 3.985-1.167.16-2.19-1.366-2.288-3.406-.097-2.042.771-3.826 1.938-3.986M74.085 27.42c-.282-.13-4.893-2.78-11.086-1.156-.429.11-.863 2.397-.527 2.426a.94.94 0 0 0 .302-.024c5.749-1.406 10.342.118 10.441.165.474.173 1.074-.003 1.318-.395.245-.39.035-.845-.448-1.016M46.21 28.709c.282-.13 4.893-2.781 11.086-1.156.428.11.864 2.397.527 2.426a.953.953 0 0 1-.301-.024c-5.75-1.406-10.344.117-10.442.165-.474.174-1.074-.002-1.318-.395-.244-.391-.035-.846.448-1.016"/>
        <path fill="#E88252" d="M59.59 42.686c-.289.644-.273.529-.064 1.03.143.347.48.682.682.968.442.628-1.452.42-1.794-.062-.282-.403-.963-1.07-1.108-1.6-.173-.631.16-.859.489-1.228.943-1.054 1.547-2.393 1.837-3.988.115-.632.943 2.687-.041 4.88"/>
        <path fill="#E78052" d="M66.939 49.257c-4.893.803-9.62.78-14.2 0 0 0 2.97 1.64 7.062 1.64 4.093 0 7.138-1.64 7.138-1.64"/>
        <path fill="#E78052" d="M67.115 49.095s-3.798 6.095-7.28 6.095c-3.48 0-7.173-6.095-7.173-6.095 4.934-.731 9.754-.738 14.453 0"/>
        <path fill="#FFF" d="M53.926 50.908a22.876 22.876 0 0 1-1.265-1.813c4.935-.731 9.754-.738 14.454 0 0 0-.457.729-1.19 1.677a45.106 45.106 0 0 1-11.999.136"/>
        <path fill="#FBB57A" d="M44.076 190.196l-6.947-6.568-7.332-33.616 3.473-43.662-13.075-25.058S7.415 146.92 10.5 155.808c3.087 8.887 18.91 34.775 18.91 34.775l9.262 13.137c3.537-3.055 5.744-6.36 5.403-13.524"/>
        <path fill="#E78052" d="M30.79 154.564c-2.024 1.405-4.753 1.585-7.202 1.898a79.022 79.022 0 0 1-9.785.646 75.46 75.46 0 0 1-2.828-.048c-.18-.446-.34-.865-.473-1.252-3.088-8.887 9.692-74.517 9.692-74.517l13.076 25.06-3.473 43.661.993 4.552z"/>
        <path fill="#F2F2F2" d="M4.754 149.162c2.561-19.182 15.44-67.87 15.44-67.87 11.026 10.324 17.145 25.883 16.164 49.015l-3.467 19.021c-2.873 5.304-24.602 4.809-28.137-.166"/>
        <path fill="#FBB040" d="M61.056 15.743s-9.84 1.546-11.577 7.148c-1.737 5.603-5.017 9.66-10.034 9.467 0 0-6.56-19.513-.772-23.763 5.789-4.25 16.016-11.978 22.19-6.955 0 0 14.842-5.103 23.54 14.296 4.246 9.467-5.53 16.181-5.53 16.181-9.433-.47-11.14-15.613-17.817-16.374"/>
        <path fill="#FDD08C" d="M38.405 25.458c-.252-3.115-.255-6.268.262-9.358.395-2.356.876-4.718 2.734-6.377 2.4-2.142 5.297-3.942 8.04-5.61 2.26-1.374 4.493-2.181 7.078-1.315.86.288 1.718.715 2.63.811.817.086 1.506-.238 2.28-.435 1.268-.324 2.597-.262 3.896-.182 3.09.19 6.094 1.45 8.83 2.826 2.32 1.168 4.691 2.487 6.838 4.074-8.681-12.186-20.13-8.252-20.13-8.252-6.174-5.023-16.401 2.705-22.19 6.955-5.026 3.69-.743 18.882.472 22.82-.312-1.977-.579-3.96-.74-5.957"/>
    </g>
</svg>
