<svg xmlns="http://www.w3.org/2000/svg" xmlns:xlink="http://www.w3.org/1999/xlink" width="111" height="355" viewBox="0 0 111 355">
    <defs>
        <path id="a" d="M.538.01h75.586V191.26H.538z"/>
        <path id="c" d="M.418.496h41.553v17.471H.418z"/>
        <path id="e" d="M0 .471h31.975v13.855H0z"/>
        <path id="g" d="M0 .544h59.297v19.633H0z"/>
    </defs>
    <g fill="none" fill-rule="evenodd">
        <path fill="#E68052" d="M61.717 71.358a243 243 0 0 0 3.654 7.058c2.123 4.25 10.42 50.423 10.42 50.423l17.559 13.717-3.473 7.342-24.892-16.422-7.525-43.662s-3.45-14.695 4.257-18.456"/>
        <g transform="matrix(-1 0 0 1 81.478 162.98)">
            <mask id="b" fill="#fff">
                <use xlink:href="#a"/>
            </mask>
            <path fill="#0B0E24" d="M69.707.01s.903 181.494 6.417 186.401c0 0-16.08 7.355-41.226 3.951-3.657-.495 24.611-17.024 24.611-17.024S45.823 41.243 38.513 30.906c-1.084-1.53-16.092 60.645-16.092 60.645 8.826 17.781 12.533 49.719 16.895 79.843 0 0-29.428 20.835-35.391 12.984.662-1.472 13.753-16.664 18.1-22.552C23.925 159.255.409 103.193.54 91.904.669 80.616 13.898 19.26 13.898 19.26L18.055.01h51.652z" mask="url(#b)"/>
        </g>
        <path fill="#090023" d="M56.488 186.816c-14.976 1.488-30.013-.24-44.877-2.46.119-13.077.16-21.366.16-21.366h51.651l4.158 19.25s.203.944.559 2.615c-3.828.936-7.725 1.57-11.651 1.96" opacity=".2"/>
        <path fill="#E4E5E5" d="M59.38 323.608c-5.495.653-10.956 2.445-15.998 4.997l-1.22 5.77s29.428 20.835 35.391 12.984c-.663-1.472-13.754-16.664-18.101-22.552-.118-.16-.137-.572-.072-1.199"/>
        <g transform="matrix(-1 0 0 1 47.324 336.275)">
            <mask id="d" fill="#fff">
                <use xlink:href="#c"/>
            </mask>
            <path fill="#E4E5E5" d="M24.587.496c5.819 2.06 11.174 4.933 16.175 8.413.376 2.365.778 3.824 1.209 4.207 0 0-16.08 7.356-41.226 3.952C-2.554 16.62 20.104 3.14 24.587.496" mask="url(#d)"/>
        </g>
        <path fill="#C5C6C7" d="M53.355 337.121c-2.612-3.147-5.589-6.867-9.361-8.797-.202.1-.411.18-.612.281l-1.22 5.77s8.18 5.79 16.789 10.116a107.302 107.302 0 0 0-5.596-7.37M8.157 344.143c-.53.35-1.073.677-1.595 1.04-.376 2.366-.779 3.826-1.209 4.209 0 0 7.583 3.466 20.474 4.538-5.494-4.068-11.155-7.794-17.67-9.787"/>
        <path fill="#2BB673" d="M59.413 117.98c3.009 9.143 5.647 34.868 7.414 60.85-7.697 5.029-46.552 3.725-58.28-.704 3.932-22.17 10.346-35.386 10.346-48.771 0-5.91-17.584-55.266-17.584-55.266s15.53-8.663 18.92-10.354c3.69.632 7.4 1.087 11.17.972 4.225-.127 9.451.309 13.11-2.213 4.602 2.368 15.563 8.01 17.208 8.864 0 0 .232.287-.115 8.555-.229 5.411 3.389 18.35 3.534 26.233.145 7.884-5.723 11.834-5.723 11.834"/>
        <path fill="#090023" d="M30.021 119.44c-4.388.5-9.226.283-13.475-1.007-.125-.037-.25-.08-.374-.12-1.24-4.11-2.795-8.946-4.428-13.883 1.253.414 4.164-.24 3.823 1.042.038 13.981 22.287 13.242 27.921 8.181a2.959 2.959 0 0 0-.196.342.254.254 0 0 0-.17.057 25.661 25.661 0 0 1-13.101 5.388M53.737 161.67c-2.157-1.236-4.206-2.962-5.037-5.377-.7-2.034-.783-4.199-1.961-6.06-1.725-2.725-5.366-3.246-8.314-3.455-1.77-.126-18.536-2.034-21.573-2.785.937-3.93 1.634-7.634 1.909-11.292 2.862.928 5.659 2.179 8.471 3.066 5.877 1.855 11.872 3.305 17.76 5.122.184.056.36-.018.405-.217.57-2.564.351-5.064.501-7.654.166-2.848 1.642-4.662 4.014-6.145.98-.613 1.923-1.23 2.53-2.24.643-1.072.98-2.28 1.81-3.252 1.343-1.577 3.406-2.05 5.446-2.483 2.367 8.071 4.49 26.25 6.122 46.387-4.168-.669-8.406-1.508-12.083-3.615" opacity=".2"/>
        <path fill="#FAB57A" d="M35.386 79.364c-1.847-1.685-3.942-3.02-5.53-4.989-2.682-3.324-5.986-7.571-8.053-11.554 4.468-3.934-.202-17.945-.202-17.945l16.243.577 4.635 15.996 2.348 1.208c-.8 6.875-2.302 15.056-5.527 20.95-.072-.076-2.855-3.278-3.914-4.243"/>
        <path fill="#E68052" d="M21.803 62.821c.689 1.328 1.522 2.683 2.417 4.025 7.538 4.295 14.092 4.916 19.833 1.295.315-1.873.569-3.722.774-5.484l-2.348-1.209-4.635-15.994-16.243-.578s4.67 14.011.202 17.945"/>
        <path fill="#F2F2F2" d="M41.789 58.835s7.596 3.226 12.464 13.96c2.687 5.928-.546.664-.546.664l-2.025-3.55S40.033 81.976 39.253 83.613l3.134-21.763-.598-3.014zM23.325 59.105s-3.572 3.542-4.01 4.878c-.564 1.719-.156 13.024-.156 13.024l5.998-4.601 5.064 3.275 9.03 7.91S24.726 65.031 23.324 59.104"/>
        <path fill="#754C29" d="M41.919 57.317c1.881-3.284 9.67-14.724 9.67-14.724l.747 1.234c2.204 3.75 5.025 9.643 3.219 12.784-2.783 4.84-5.616 4.513-2.662 10.029 2.955 5.516 10.571 9.036 5.884 17.98-4.687 8.947-12.743 11-12.743 11s2.343-3.814 1.465-9.679c-.34-2.272-2.344-6.067-4.313-10.407l-.841-1.897s-2.307-13.035-.426-16.32"/>
        <path fill="#57301F" d="M51.59 42.593c.122 2.538-.872 5.213-2.385 7.58-2.238 3.496-5.698 6.107-6.624 10.344-.532 2.434-.377 5.118-.379 7.594-.001 1.843.044 3.686.143 5.526-2.769-6.439-4.965-13.719-1.538-18.947 0 0 5.852-4.538 7.188-7.24 1.067-2.158 2.141-7.053 2.141-7.053s.617.857 1.454 2.196"/>
        <path fill="#E78052" d="M48.048 33.438c-.958 3.227-.089 6.333 1.943 6.938 2.03.604 4.454-1.523 5.412-4.75.958-3.228.088-6.334-1.944-6.939-2.031-.604-4.454 1.523-5.411 4.75M12.042 34.98c.731 3.286 3 5.577 5.068 5.115 2.068-.46 3.152-3.499 2.42-6.785-.73-3.286-2.999-5.577-5.066-5.116-2.07.46-3.153 3.5-2.422 6.786"/>
        <path fill="#FBBE7D" d="M34.03 8.77c16.595.178 17.428 15.777 17.469 17.657a3.64 3.64 0 0 1-.01.338c-.118 1.734-1.259 17.772-2.89 20.821-1.351 2.527-11.235 10.69-15.202 10.69-3.967 0-13.469-8.457-14.767-11.013-1.564-3.083-2.359-19.141-2.441-20.878a3.843 3.843 0 0 1-.002-.337c.08-1.88 1.25-17.458 17.843-17.279"/>
        <path fill="#E78052" d="M16.242 27.45c4-5.002 5.254-10.847 5.254-10.847l27.41.253s-6.65-7.999-14.876-8.087c-16.594-.179-17.762 15.4-17.843 17.279-.005.113-.004.223.001.337.01.188.028.572.054 1.064"/>
        <path fill="#231F20" d="M26.37 31.378c1.163-.117 2.17 1.137 2.247 2.803.08 1.665-.8 3.11-1.964 3.228-1.163.117-2.169-1.137-2.247-2.802-.077-1.666.802-3.111 1.964-3.229M41.566 31.541c1.163-.117 2.17 1.138 2.247 2.804.08 1.664-.8 3.11-1.964 3.227-1.163.118-2.169-1.137-2.247-2.802-.077-1.665.801-3.11 1.964-3.229"/>
        <path fill="#E78052" d="M34.115 41.624c.28.466.263.384.072.736-.132.242-.446.471-.634.67-.412.434 1.377.339 1.694.005.264-.278.9-.734 1.031-1.108.158-.445-.16-.616-.476-.888a5.528 5.528 0 0 1-1.781-2.892c-.116-.454-.861 1.888.094 3.477"/>
        <path fill="#FFF" d="M39.265 46.131c-3.75-.602-7.594-.596-11.53 0 0 0 2.946 4.972 5.723 4.972 2.777 0 5.807-4.972 5.807-4.972"/>
        <path fill="#754C29" d="M35.578.958C18.882-3.629 17.369 9.744 17.369 9.744s-2.732 1.006-3.922 3.017c-1.192 2.012-.624 12.73 2.65 16.713 2.506-3.553 4.462-13.997 4.462-13.997 6.66-2.328 26.576-.058 26.576-.058s.89 10.978 4.383 13.567C55.415 16.654 50.69 5.111 35.578.958"/>
        <path fill="#8A603D" d="M19.379 4.695c2.214-3.21 6.802-6.318 16.199-3.737 8.688 2.388 13.937 7.22 16.093 13.237C49.289 10.411 46.13 7.17 42.158 5c-2.459-1.342-5.136-2.241-7.894-2.715-.696-.12-8.298-1.392-14.885 2.411"/>
        <path fill="#231F20" d="M30.66 25.49a3.323 3.323 0 0 1-.323-.06c-6.466-1.404-9.754 2.01-9.667 1.856-.306.26-.737.46-.99.442-.25-.02-.238-.266.059-.551.007.159 2.216-5.066 9.945-3.64.529.124 1.367 2.013.977 1.954M37.41 27.045c.098-.015.196-.036.292-.063 5.775-1.49 9.332 1.566 9.224 1.46.319.24.762.415 1.012.382.249-.033.216-.28-.102-.548.031.106-2.868-4.727-9.847-3.108-.47.129-.927 1.935-.578 1.877"/>
        <path fill="#ABACAC" d="M78.447 162.278a7.914 7.914 0 0 1 0-4.678h.577l29.025-11.591a11.212 11.212 0 0 0 0 4.677l-29.025 11.592h-.577z"/>
        <g transform="matrix(-1 0 0 1 111 143.275)">
            <mask id="f" fill="#fff">
                <use xlink:href="#e"/>
            </mask>
            <path fill="#003B1F" d="M31.818 13.996a4.766 4.766 0 0 0-.303-.57l-.897-.783L0 .47l.896 1.364c.117.176 2.055.9 2.055.9l29.024 11.59-.157-.33z" mask="url(#f)"/>
        </g>
        <path fill="#003B1F" d="M79.486 163.178c-.117-.178-.21-.374-.304-.57l-.158-.33 29.025-11.592 2.372 1.104-30.04 12.75-.895-1.362z"/>
        <path fill="#E4E5E5" d="M78.447 162.278l-26.02-7.535c-.745-1.347-.745-3.33 0-4.677l26.02 7.534a7.914 7.914 0 0 0 0 4.678"/>
        <path fill="#33865F" d="M51.59 148.037l.154-.234 28.637 8.114-.896.784c-.116.177-.21.374-.304.57l-.156.33h-.578l-26.02-7.535c-.745 1.348-.745 3.33 0 4.677l26.02 7.534h.578l.156.33c.094.197.188.393.304.57l.896 1.364-28.637-7.535-.154-.234c-.767-1.167-1.19-2.718-1.19-4.367 0-1.65.423-3.201 1.19-4.368"/>
        <g transform="matrix(-1 0 0 1 111 135.74)">
            <mask id="h" fill="#fff">
                <use xlink:href="#g"/>
            </mask>
            <path fill="#004E29" d="M0 8.006L28.678.544l30.619 11.591-28.678 8.042z" mask="url(#h)"/>
        </g>
        <path fill="#ABACAC" d="M79.023 151.88a7.53 7.53 0 0 1 0-4.449h.55l27.608-11.025a10.67 10.67 0 0 0 0 4.449L79.573 151.88h-.55z"/>
        <path fill="#BC8430" d="M79.722 147.118c.09-.188.179-.374.29-.543l.852-.745 29.123-11.577-.852 1.297c-.112.169-1.954.856-1.954.856L79.573 147.43l.149-.313zM80.011 152.736c-.11-.169-.2-.355-.289-.542l-.15-.314 27.609-11.026 2.256 1.05-28.573 12.128-.853-1.296z"/>
        <path fill="#E4E5E5" d="M79.023 151.88l-24.748-7.167c-.71-1.282-.71-3.167 0-4.448l24.748 7.166a7.53 7.53 0 0 0 0 4.449"/>
        <path fill="#FBB040" d="M53.478 138.335l.146-.223 27.24 7.719-.853.744c-.11.169-.2.356-.289.543l-.15.313h-.549l-24.748-7.166c-.71 1.281-.71 3.167 0 4.448l24.748 7.167h.55l.149.314c.09.186.179.374.29.542l.852 1.296-27.24-7.166-.146-.223c-.73-1.11-1.13-2.585-1.13-4.154 0-1.57.4-3.044 1.13-4.154"/>
        <path fill="#FCC066" d="M109.987 134.253l-27.278-7.098-29.124 11.026 27.279 7.65z"/>
        <path fill="#ABACAC" d="M75.803 143.73a7.552 7.552 0 0 1 0-4.46h.55l27.684-11.056a10.706 10.706 0 0 0 0 4.46l-27.684 11.057h-.55z"/>
        <path fill="#BE594C" d="M76.503 138.955c.09-.188.18-.375.29-.543l.855-.748 29.204-11.608-.855 1.3c-.112.168-1.96.858-1.96.858l-27.684 11.055.15-.314zM76.794 144.589c-.111-.17-.201-.357-.29-.544l-.15-.314 27.683-11.057 2.262 1.054-28.65 12.16-.855-1.3z"/>
        <path fill="#E4E5E5" d="M75.803 143.73l-24.817-7.186c-.71-1.285-.71-3.175 0-4.46l24.817 7.185a7.552 7.552 0 0 0 0 4.462"/>
        <path fill="#FD7665" d="M50.187 130.148l.147-.223 27.314 7.74-.854.746c-.111.169-.201.357-.29.544l-.15.315h-.551l-24.817-7.186c-.71 1.284-.71 3.175 0 4.46l24.817 7.187h.55l.15.314c.09.188.18.375.29.544l.855 1.3-27.314-7.187-.147-.223c-.732-1.112-1.134-2.592-1.134-4.165 0-1.574.402-3.053 1.134-4.166"/>
        <path fill="#FD9184" d="M106.851 126.056L79.5 118.938l-29.204 11.056 27.353 7.67z"/>
        <path fill="#ABACAC" d="M79.751 133.35a6.612 6.612 0 0 1-.175-3.905l.482-.022 23.801-10.77a9.385 9.385 0 0 0 .175 3.905l-23.8 10.77-.483.022z"/>
        <path fill="#526472" d="M80.177 129.142c.071-.168.142-.336.232-.488l.72-.688 25.11-11.314-.698 1.172c-.091.152-1.682.828-1.682.828l-23.8 10.77.118-.28zM80.652 134.062c-.104-.144-.189-.303-.275-.464l-.144-.27 23.802-10.77 2.022.832-24.605 11.777-.8-1.105z"/>
        <path fill="#E4E5E5" d="M79.751 133.35l-22.008-5.313c-.673-1.097-.748-2.753-.176-3.905l22.009 5.313a6.612 6.612 0 0 0 .175 3.905"/>
        <path fill="#5E7E97" d="M56.792 122.469l.12-.201 24.216 5.698-.719.688c-.09.153-.16.32-.232.488l-.119.28-.482.023-22.009-5.313c-.571 1.152-.497 2.808.176 3.905l22.008 5.313.482-.022.144.27c.086.16.171.32.276.464l.799 1.105-24.195-5.215-.138-.19c-.684-.944-1.094-2.224-1.156-3.601-.062-1.378.232-2.69.83-3.692"/>
        <path fill="#A4C8E4" d="M106.238 116.652L82.012 111.5 56.88 122.33l24.248 5.636z"/>
        <path fill="#FAB57A" d="M49.467 142.672c.312.216 2.281 5.53 2.281 5.53s.229.592.608 1.548c1.583 3.99 5.782 10.405 6.92 10.282 1.413-.153-.966-3.708-.966-3.708s4.22 5.71 5.827 5.462c1.607-.248-2.358-5.993-2.358-5.993s4.778 8.504 6.234 7.129c1.456-1.374-2.488-8.272-2.488-8.272s5.516 11.183 7.07 8.844c1.554-2.339-3.638-13.194-3.638-13.194s9.263 5.564 8.337 2.83c-.561-1.66-11.958-11.406-14.087-12.487-2.129-1.082-5.698-1.902-5.698-1.902s-8.354 3.717-8.042 3.931"/>
        <path fill="#FAB57A" d="M57.744 138.738S21.066 127.965 18.7 124.17c-2.365-3.795-2.5-27.072-5.845-33.467C9.51 84.308 1.308 74.118 1.308 74.118c-4.05 3.332 4.616 58.147 6.722 60.008 2.607 2.303 43.166 10.197 43.166 10.197 2.476-1.782 3.885-4.177 6.548-5.585"/>
    </g>
</svg>
