<svg xmlns="http://www.w3.org/2000/svg" xmlns:xlink="http://www.w3.org/1999/xlink" width="107" height="363" viewBox="0 0 107 363">
    <defs>
        <path id="a" d="M.01.466h46.982v30.252H.01z"/>
        <path id="c" d="M.357.511H18.38V14.49H.357z"/>
        <path id="e" d="M0 .19h46.992v3.867H0z"/>
        <path id="g" d="M.023.19h8.185v3.867H.023z"/>
        <path id="i" d="M.499.125h42.817V23.69H.499z"/>
        <path id="k" d="M.382.19h27.905v3.867H.382z"/>
    </defs>
    <g fill="none" fill-rule="evenodd">
        <path fill="#208956" d="M81.366 82.265s32.791 66.505 23.543 91.199c-9.25 24.694-50.448 17.959-51.29 1.964-.84-15.995 5.045-78.852 20.18-94.566l7.567 1.403z"/>
        <path fill="#FAB57A" d="M19.266 77.332c-4.957 2.482-17.78 50.362-12.486 53.376 4.982 2.837 26.637 5.197 53.24-7.374l-6.464-6.597s-30.26.732-31.876-.264c-1.616-.996-.23-10.106-.459-15.77-.578-14.33-1.955-23.37-1.955-23.37"/>
        <path fill="#F15A24" d="M29.186 64.119c2.107-16.315 1.989-42.96.875-42.961C34.181-1.23 61.57 4.74 69.451 12.794c4.147 4.236 3.878 35.449 9.668 51.423-6.407 4.326-45.834 4.326-49.933-.098"/>
        <path fill="#090023" d="M74.001 59.83c-.23-2.67-.419-5.33-.743-7.992-.562-4.613-.885-9.269-1.72-13.844-1.322-7.23-4.32-16.008-11.713-19.044-7.107-2.919-15.692-.515-20.408 5.468-5.42 6.876-6.154 16.673-6.426 25.08-.159 4.909-.152 9.823-.2 14.733-.006.493-.009.987-.012 1.481 9.113 2.304 31.664 2.31 41.95.055-.18-1.984-.558-3.945-.728-5.937" opacity=".2"/>
        <g transform="translate(0 331.395)">
            <mask id="b" fill="#fff">
                <use xlink:href="#a"/>
            </mask>
            <path fill="#999" d="M.01 30.718h46.982L44.856 1.426c-6.75-1.163-13.097-1.392-18.737 0 0 0 1.15 9.05-8.218 12.013C8.532 16.4.01 15.474.01 30.718" mask="url(#b)"/>
        </g>
        <path fill="#F1F2F2" d="M9.22 348.138c-7.643 0-9.267 5.404-9.026 13.975h26.87c-6.727-14.47-10.99-13.975-17.844-13.975"/>
        <g transform="translate(8.683 347.623)">
            <mask id="d" fill="#fff">
                <use xlink:href="#c"/>
            </mask>
            <path fill="#D1D3D4" d="M12.266 14.49h6.115C11.654.019 7.39.515.537.515c-2.013 0 13.56-.64 11.729 13.975" mask="url(#d)"/>
        </g>
        <path fill="#F2F2F2" d="M25.95 348.829c.876.826.997 2.118.273 2.888-.724.768-2.02.722-2.895-.104-.875-.827-.997-2.12-.274-2.888.724-.769 2.02-.722 2.896.104"/>
        <path fill="#1A1A1A" d="M24.928 351.333c-9.508-5.107-17.233-3.618-17.233-3.618 5.927-4.357 17.038 1.295 17.192 1.36a1.236 1.236 0 0 1 .041 2.258"/>
        <path fill="#F2F2F2" d="M30.973 346.776c.875.825.997 2.118.273 2.887-.724.769-2.02.723-2.895-.104-.875-.826-.998-2.119-.273-2.888.723-.769 2.02-.722 2.895.105M35.566 344.55c.875.826.996 2.12.273 2.887-.724.77-2.02.723-2.895-.103s-.998-2.12-.274-2.888c.725-.768 2.02-.723 2.896.105"/>
        <path fill="#1A1A1A" d="M30.08 349.142c-9.508-5.108-15.04-3.505-15.04-3.505 3.949-3.654 14.885 1.124 14.998 1.246.628.688.922.987.66 1.616-.124.295-.35.517-.619.643"/>
        <path fill="#1A1A1A" d="M34.651 344.82c-.123-.063-10.554-5.845-13.804-1.36 0 0 6.203-1.49 13.838 3.619a1.15 1.15 0 0 0 .497-.644c.21-.627-.027-1.352-.53-1.614"/>
        <g transform="translate(0 358.056)">
            <mask id="f" fill="#fff">
                <use xlink:href="#e"/>
            </mask>
            <path fill="#D1D3D4" d="M.23.19a21.235 21.235 0 0 0-.22 3.867h46.982L46.71.19H.23z" mask="url(#f)"/>
        </g>
        <g transform="translate(38.784 358.056)">
            <mask id="h" fill="#fff">
                <use xlink:href="#g"/>
            </mask>
            <path fill="#090023" d="M.063.19a117.043 117.043 0 0 0-.038 3.867h8.183L8.158.19H.063z" mask="url(#h)" opacity=".2"/>
        </g>
        <path fill="#93278F" d="M21.096 147.818s-6.514 31.406-2.409 52.212c5.454 27.642 5.963 80.942 5.117 114.611-.035 1.368 3.128 2.679 3.223 3.924.509 6.638.817 11.51.817 13.855 7.744 2.259 9.539 2.074 15.751.402 0 0-.285-5.508-.67-14.284-.078-1.777 3.536-1.57 3.452-3.596-1.55-37.185-2.67-115.113 3.612-115.113 6.402 0 6.774 78.995 10.835 115.414.154 1.388 4.513 2.646 4.651 3.903.946 8.598 1.496 13.978 1.496 13.978 7.743 3.102 5.289 2.679 12.842-.503 0 0 .127-5.126.269-13.756.035-2.11 4.844-2.043 4.519-4.526-5.212-39.735-5.352-126.792-7.844-165.713l-55.661-.808z"/>
        <path fill="#6592BF" d="M21.096 147.818s-6.514 31.406-2.409 52.212c5.454 27.642 5.963 80.942 5.117 114.611-.035 1.368 3.128 2.679 3.223 3.924.509 6.638.817 11.51.817 13.855 7.744 2.259 9.539 2.074 15.751.402 0 0-.285-5.508-.67-14.284-.078-1.777 3.536-1.57 3.452-3.596-1.55-37.185-2.67-115.113 3.612-115.113 6.402 0 6.774 78.995 10.835 115.414.154 1.388 4.513 2.646 4.651 3.903.946 8.598 1.496 13.978 1.496 13.978 7.743 3.102 5.289 2.679 12.842-.503 0 0 .127-5.126.269-13.756.035-2.11 4.844-2.043 4.519-4.526-5.212-39.735-5.352-126.792-7.844-165.713l-55.661-.808z"/>
        <path fill="#090023" d="M62.215 211.833c-2.843-.001-5.685-.016-8.527-.045-.976-7.408-2.164-11.96-3.7-11.96-1.508 0-2.59 4.506-3.341 11.854-8.757-.17-17.51-.494-26.252-1.024-.506-3.842-1.073-7.41-1.707-10.628-4.106-20.807 2.408-52.212 2.408-52.212l55.661.808c.972 15.174 1.586 37.664 2.282 61.813-5.553.977-11.172 1.395-16.824 1.394M25.121 314.59c1.943 0 11.143 2.124 12.43.218 1.437-2.128-1.328-3.013-2.83-3.422-.567-.155-1.617-.336-1.733-1.053-.167-1.036 1.124-1.539 1.89-1.751 1.624-.453 3.32-.354 4.904-.97 2.405-.934 4.4-2.381 6.176-4.112.132 4.107.274 7.954.42 11.442.083 2.026-3.53 1.82-3.453 3.596.385 8.776.67 14.284.67 14.284-6.212 1.672-8.007 1.857-15.75-.402 0-2.345-.309-7.217-.818-13.855-.078-1.017-2.202-2.079-2.958-3.18.229.133-1.028-.795 1.052-.795M66.129 308.897c.464.04.93.04 1.392.115.214.035.55.043.732.168.424.29.528 1.134.233 1.566-.412.604-1.49.803-2.109 1.19-.126.079-.17.308-.065.421 1.029 1.095 2.645 1.35 4.066 1.55 1.699.238 7.814.376 9.52.532.39.036.325 3.149.897 3.223-.42.32-.704.698-.713 1.202-.143 8.63-.27 13.757-.27 13.757-7.552 3.182-5.098 3.605-12.842.502 0 0-.549-5.378-1.495-13.977-.138-1.256-4.496-2.515-4.651-3.903-.259-2.32-.502-4.816-.734-7.45 1.992.491 4.013.926 6.039 1.104" opacity=".2"/>
        <path fill="#FFF" d="M25.586 314.655l-1.157-.03c.91-36.256.12-87.995-5.106-114.484l1.136-.224c5.244 26.582 6.039 78.422 5.127 114.738"/>
        <path fill="#F2F2F2" d="M82.896 316.502l-1.854-1.896-.025-.192c-3.3-25.161-4.568-69.222-5.685-108.095-.642-22.3-1.247-43.363-2.163-57.655l1.155-.075c.917 14.314 1.523 35.386 2.165 57.697 1.114 38.746 2.377 82.65 5.65 107.786l1.584 1.62-.827.81z"/>
        <path fill="#F2F2F2" d="M80.643 317.62l-2.016-3.074-.018-.131c-3.3-25.163-4.567-69.224-5.685-108.098-.641-22.299-1.247-43.36-2.162-57.653l1.155-.075c.917 14.313 1.523 35.386 2.164 57.695 1.115 38.778 2.379 82.722 5.659 107.848l1.871 2.852-.968.636z"/>
        <path fill="#F2F2F2" d="M76.202 314.415c-3.3-25.165-4.569-69.23-5.686-108.106-.642-22.296-1.247-43.355-2.162-57.645l1.155-.075c.916 14.312 1.522 35.38 2.164 57.686 1.117 38.85 2.384 82.883 5.676 107.989l-1.147.15z"/>
        <path fill="#FAB57A" d="M71.587 321.611c1.704-.048 3.44-.128 5.134-.343 1.076-.137 2.216-.484 3.352-.665-.138 8.306-.26 13.224-.26 13.224-7.554 3.18-5.1 3.605-12.842.501 0 0-.507-4.96-1.384-12.963 1.982.251 3.99.304 6 .246M32.624 321.058c3.485.114 6.894-.634 10.323-.82.374 8.486.648 13.79.648 13.79-6.212 1.671-8.007 1.856-15.751-.402 0-2.292-.31-6.669-.806-12.886 1.86.141 3.72.257 5.586.318"/>
        <path fill="#BCBEC0" d="M66.187 326.905c.504 4.684.784 7.424.784 7.424 7.743 3.102 5.288 2.68 12.841-.503 0 0 .061-2.434.145-6.757-1.221.88-12.695.643-13.77-.164M27.542 327.387c.192 2.778.302 4.88.302 6.239 7.743 2.258 9.538 2.073 15.75.402 0 0-.124-2.412-.319-6.572-5.655 1.118-10.848.868-15.733-.07"/>
        <path fill="#F1F2F2" d="M82.636 79.606s-18.34-10.23-21.864-11.99c-3.837.657-5.504 2.353-9.425 2.235-4.395-.134-9.828.32-13.634-2.303-4.784 2.462-16.182 8.33-17.894 9.219-2.175 1.128-.242.297.12 8.894.238 5.628-6.068 117.181-6.068 117.181s12.416 4.22 35.816 4.22C73.09 207.061 84 204.65 84 204.65L82.636 79.606z"/>
        <path fill="#CEDAE2" d="M78.028 143.728c-3.883-.018-7.763-2.169-11.12-3.938-5.35-2.821-11.368-7.055-17.691-6.663-3.007.186-5.837 1.339-8.632 2.367-2.847 1.049-5.765 1.844-8.722 2.514-4.589 1.039-9.546 1.903-14.537 2.206.317-5.895.628-11.736.918-17.286 5.093-.505 10.194-.932 15.311-1.077 7.022-.198 13.874.43 20.824 1.322 5.3.68 10.658 1.322 16.007.92 4.413-.334 8.649-1.456 12.7-3.128l.238 21.798c-1.726.562-3.482.973-5.296.965"/>
        <path fill="#FAB57A" d="M61.325 67.888c-4.645-4.09.211-18.66.211-18.66l-16.89.6-4.822 16.633-2.44 1.256s2.147 9.522 10.25 9.522c8.104 0 13.691-9.35 13.691-9.35"/>
        <path fill="#E78052" d="M50.298 65.248c3.107.12 6.2-.317 9.26-.986-1.079-5.83 1.978-15.034 1.978-15.034l-16.89.6-3.747 12.926c3.029 1.134 5.986 2.36 9.399 2.494"/>
        <path fill="#EB9756" d="M73.696 35.586c0 3.517-3.75 6.368-5.963 6.368s-2.051-2.851-2.051-6.368c0-3.516 2.498-6.367 4.711-6.367s3.303 2.85 3.303 6.367M26.854 35.586c0 3.517 3.75 6.368 5.963 6.368s2.05-2.851 2.05-6.368c0-3.516-2.498-6.367-4.71-6.367-2.213 0-3.303 2.85-3.303 6.367"/>
        <path fill="#FBBE7D" d="M49.99 8.62c-17.419.188-18.294 16.562-18.336 18.536-.002.12.001.235.01.355.124 1.82 1.32 18.655 3.033 21.855 1.418 2.652 11.91 11.221 15.958 11.221 4.05 0 14.138-8.877 15.5-11.56 1.642-3.236 2.477-20.093 2.564-21.916.005-.119.006-.234 0-.354-.083-1.973-1.31-18.324-18.73-18.137"/>
        <path fill="#E78052" d="M65.356 24.914c-1.877-.136-3.752-.243-5.634-.26-4.532-.041-9.057-.212-13.589-.296a394.854 394.854 0 0 0-14.206.006C32.762 19.117 36.159 8.77 49.99 8.62c15.459-.166 18.162 12.686 18.635 16.961-1.02-.452-2.148-.586-3.27-.667"/>
        <path fill="#231F20" d="M58.031 32.353c-1.22-.124-2.277 1.194-2.359 2.942-.083 1.748.84 3.264 2.061 3.387 1.222.124 2.277-1.192 2.36-2.94.081-1.748-.841-3.267-2.062-3.39M42.08 32.524c-1.22-.123-2.278 1.194-2.36 2.943-.082 1.748.842 3.265 2.063 3.387 1.22.124 2.276-1.193 2.359-2.941.081-1.747-.842-3.265-2.062-3.389"/>
        <path fill="#E78052" d="M49.902 43.108c-.295.489-.278.403-.077.772.14.255.47.495.667.703.432.457-1.446.357-1.779.006-.277-.292-.944-.771-1.083-1.163-.164-.468.169-.647.5-.932A5.805 5.805 0 0 0 50 39.458c.122-.477.905 1.982-.098 3.65"/>
        <path fill="#C1272D" d="M44.853 48.29c3.702-.153 7.5-.151 11.389 0 0 0-2.91 1.266-5.654 1.266-2.743 0-5.735-1.265-5.735-1.265"/>
        <path fill="#231F20" d="M53.526 28.036a3.32 3.32 0 0 0 .34-.065c6.788-1.473 10.24 2.111 10.148 1.949.322.274.775.483 1.04.463.263-.019.25-.278-.061-.577-.009.167-2.366-5.218-10.48-3.721-.554.13-1.396 2.013-.987 1.95M46.441 27.804a2.51 2.51 0 0 1-.305-.066c-6.062-1.564-9.795 1.643-9.682 1.531-.335.254-.8.438-1.063.403-.262-.036-.225-.295.108-.575-.033.11 2.928-4.711 10.254-3.012.495.136 1.054 1.78.688 1.72"/>
        <g transform="translate(28.944 .455)">
            <mask id="j" fill="#fff">
                <use xlink:href="#i"/>
            </mask>
            <path fill="#F15A24" d="M43.176 23.69s-8.777-.958-19.858-1.135l-1.877-12.221-1.874 12.194c-6.23.01-12.924.305-19.058 1.162 0 0-1.053-19.996 17.85-23.103C36.696-2.426 44.482 9.741 43.176 23.69" mask="url(#j)"/>
        </g>
        <path fill="#F47B50" d="M33.56 16.971c.964-2.729 2.607-5.289 4.519-7.444C43.509 3.406 53 .663 60.902 2.9c1.613.456 3.204 1.143 4.744 1.97C61.536 1.374 55.468-.3 47.303 1.042c-18.904 3.107-17.85 23.103-17.85 23.103a99.89 99.89 0 0 1 3.158-.382c.048-2.3.174-4.6.948-6.792"/>
        <path fill="#999" d="M81.954 335.795c-1.027-6.906-17.281-5.392-17.281.066 0 13.897-3.113 12.13-3.113 22.586 0 3.147-.288.38 11.304.38 11.593 0 15.615 3.614 15.615-.233 0-10.383-4.23-6.128-5.258-13.034l-1.267-9.765z"/>
        <path fill="gray" d="M78.1 338.978c1.778 3.552 1.096 7.961 2.31 11.693 1.109 3.403 3.826 6.918 6.887 9.619.782-.124 1.182-.567 1.182-1.696 0-10.382-4.23-6.128-5.258-13.034l-1.266-9.765c-.922-6.19-14.034-5.604-16.757-1.491 4.94-.227 10.412-.294 12.902 4.674"/>
        <path fill="#F2F2F2" d="M65.591 341.904c-.203 1.081.283 2.129 1.085 2.34.802.21 1.617-.495 1.82-1.576.203-1.081-.283-2.128-1.084-2.34-.802-.21-1.616.496-1.82 1.576M82.11 341.904c.204 1.081-.282 2.129-1.084 2.34-.802.21-1.617-.495-1.82-1.576-.204-1.081.282-2.128 1.083-2.34.803-.21 1.618.496 1.821 1.576"/>
        <path fill="#1A1A1A" d="M80.1 343.165a.618.618 0 0 1-.274-.066c-4.102-2.102-8.805-2.102-12.907 0-.345.174-.753-.013-.904-.423-.15-.413.011-.892.357-1.07 4.45-2.279 9.551-2.279 14.001 0 .346.178.508.657.358 1.07-.113.306-.366.489-.631.489"/>
        <path fill="#F2F2F2" d="M65.398 348.827c-.204 1.081.282 2.128 1.084 2.34.802.21 1.617-.494 1.82-1.576.203-1.08-.282-2.128-1.084-2.34-.802-.21-1.617.495-1.82 1.576M82.304 348.827c.204 1.081-.282 2.128-1.084 2.34-.802.21-1.617-.494-1.82-1.576-.204-1.08.282-2.128 1.084-2.34.801-.21 1.617.495 1.82 1.576"/>
        <path fill="#1A1A1A" d="M80.1 349.667a.618.618 0 0 1-.274-.066c-4.102-2.102-8.805-2.102-12.907 0-.345.172-.753-.013-.904-.423-.15-.413.011-.892.357-1.07 4.45-2.28 9.551-2.28 14.001 0 .346.178.508.657.358 1.07-.113.305-.366.49-.631.49"/>
        <path fill="#F2F2F2" d="M65.656 345.308c-.203 1.081.283 2.128 1.084 2.34.802.21 1.618-.495 1.822-1.576.202-1.081-.284-2.128-1.085-2.34-.802-.21-1.617.495-1.82 1.576M82.046 345.308c.204 1.081-.283 2.128-1.085 2.34-.802.21-1.617-.495-1.82-1.576-.204-1.081.282-2.128 1.084-2.34.802-.21 1.617.495 1.821 1.576"/>
        <path fill="#1A1A1A" d="M80.1 346.416a.61.61 0 0 1-.274-.067c-4.102-2.101-8.805-2.101-12.907 0-.345.175-.753-.012-.904-.421-.15-.414.011-.893.357-1.07 4.45-2.28 9.551-2.28 14.001 0 .346.177.508.656.358 1.07-.113.304-.366.488-.631.488"/>
        <path fill="#F2F2F2" d="M85.34 349.984c-7.228-2.397-15.56-1.921-22.832.526-.529 1.92-.948 4.107-.948 7.937 0 3.147-.288.38 11.304.38 11.593 0 15.615 3.614 15.615-.233 0-6.485-1.65-7.26-3.14-8.61"/>
        <g transform="translate(60.781 358.056)">
            <mask id="l" fill="#fff">
                <use xlink:href="#k"/>
            </mask>
            <path fill="#D1D3D4" d="M.52.19a35.417 35.417 0 0 0-.132 3.867h27.899L28.12.19H.52z" mask="url(#l)"/>
        </g>
        <path fill="#F1F2F2" d="M19.266 77.332c-4.957 2.482-17.78 50.362-12.486 53.376 4.982 2.837 16.516-13.24 14.9-14.235-1.616-.996-.23-10.106-.459-15.77-.578-14.33-1.955-23.37-1.955-23.37"/>
        <path fill="#CEDAE2" d="M21.221 100.703c-.06-1.483-.128-2.905-.203-4.268-.465 3.28-.858 6.573-1.454 9.833-.686 3.744-2.001 7.302-2.76 11.022a55.732 55.732 0 0 0-1.065 8.795c3.766-4.006 6.826-9.067 5.941-9.612-1.616-.996-.23-10.106-.459-15.77"/>
        <path fill="#FAB57A" d="M21.65 116.448c.01.008.02.018.03.025 1.616.996 31.876.265 31.876.265l6.463 6.596c-26.602 12.57-48.257 10.211-53.239 7.374-1.761-1.003-1.58-6.975-.373-14.588.266-.883 12.604-.593 15.243.328"/>
        <path fill="#E78052" d="M29.335 119.72c-5.82-.1-10.635-2.11-11.839-3.817.599.095 3.82.43 4.154.545.01.008.02.019.03.025 1.616.996 31.876.265 31.876.265l6.464 6.596a108.4 108.4 0 0 1-12.681 5.052c-5.48-4.245-11.227-8.549-18.004-8.666"/>
        <path fill="#E78052" d="M53.556 116.738s14.414-3.244 20.059-2.19c5.645 1.055-4.665 8.89-4.665 8.89l-8.93-.104-6.464-6.596z"/>
        <path fill="#2BB673" d="M82.783 79.39s-7.576-7.21-12.34-6.93c-4.765.28-12.002 49.789 5.936 65.783 0 0 4.343-.981 7.146-5.752 2.803-4.77-11.953-7.36-.742-53.1"/>
        <path fill="#FAB57A" d="M33.845 110.122c9.423 1.579 32.023 6.696 36.158 8.947 0 0 9.218-41.45 13.012-39.425 13.173 7.03 4.746 51.478-1.123 56.903-4.307 3.98-22.062-6.105-39.648-14.084-5.024-2.279-9.088-3.662-12.305-4.491.87-2.836 2.086-5.53 3.906-7.85"/>
        <path fill="#F1F2F2" d="M77.967 133.465c-3.452-2.354-6.851-5.188-9.19-8.693-1.493-2.24-2.386-4.791-3.245-7.354 2.06.631 3.642 1.199 4.471 1.65 0 0 9.218-41.45 13.013-39.424 12.892 6.88 9.531 52.01 3.692 58.912-1.465-.84-7.342-4.137-8.74-5.091"/>
        <path fill="#FAB57A" d="M33.845 110.122s-6.065-2.426-8.197-1.714c-2.133.712-8.252 7.395-8.252 7.395s1.818 3.014 12.543 2.169l3.906-7.85z"/>
    </g>
</svg>
