<svg xmlns="http://www.w3.org/2000/svg" xmlns:xlink="http://www.w3.org/1999/xlink" width="113" height="377" viewBox="0 0 113 377">
    <defs>
        <path id="a" d="M.004.295h44.547V28.98H.004z"/>
        <path id="c" d="M.003.295h19.792V28.98H.003z"/>
        <path id="e" d="M.376.076h17.09V13.33H.375z"/>
        <path id="g" d="M.004.39h44.557v3.667H.004z"/>
        <path id="i" d="M.004.39h7.76v3.667H.005z"/>
        <path id="k" d="M.412.39H26.87v3.667H.412z"/>
        <path id="m" d="M.46.305h16.907v9.412H.459z"/>
        <path id="o" d="M.28.04h37.208v42.35H.28z"/>
    </defs>
    <g fill="none" fill-rule="evenodd">
        <path fill="#000" d="M37.095 195.119h12.327c16.603 0 30.186-13.6 30.186-30.223v-41.174c0-16.623-13.583-30.222-30.186-30.222H37.095c-16.602 0-30.186 13.6-30.186 30.222v41.174c0 16.623 13.584 30.223 30.186 30.223"/>
        <path fill="#333" d="M12.378 107.14c2.556 1.342 4.024 3.327 5.045 6.142 1.765 4.87 1.466 63.094 7.439 65.619 3.755 1.587 43.97-2.236 52.288-2.539-4.527 11.014-14.817 18.757-26.719 18.757H36.086c-16.047 0-29.177-14.07-29.177-31.268v-39.084c0-6.584 1.93-12.705 5.204-17.758.088.045.178.086.265.132"/>
        <path fill="#1A1A1A" d="M15.807 152.278c.515 1.233.562 3.119.727 4.446.347 2.778 1.848 17.696 1.586 18.59-.468 1.597-2.332.846-3.246.284-2.252-1.381-3.12-3.841-3.87-6.384-.917-3.106-1.621-6.5-1.874-9.753-.207-2.67 6.082-8.61 6.677-7.183"/>
        <g transform="translate(54.993 347.442)">
            <mask id="b" fill="#fff">
                <use xlink:href="#a"/>
            </mask>
            <path fill="#FD7665" d="M44.551 28.98H.004L2.03 1.204c6.4-1.102 12.418-1.319 17.765 0 0 0-1.09 8.583 7.792 11.39 8.884 2.81 16.964 1.93 16.964 16.384" mask="url(#b)"/>
        </g>
        <g transform="translate(54.993 347.442)">
            <mask id="d" fill="#fff">
                <use xlink:href="#c"/>
            </mask>
            <path fill="#BE594C" d="M19.769 2.658c-5.379.395-11.928.586-14.083 6.114-1.244 3.192-.752 7.038-.565 10.36.185 3.286.126 6.568.216 9.847H.003L2.03 1.205c6.401-1.102 12.42-1.319 17.766 0 0 0-.069.568-.026 1.453" mask="url(#d)"/>
        </g>
        <path fill="#F1F2F2" d="M90.811 363.17c7.248 0 8.787 5.125 8.559 13.251H73.893c6.378-13.72 10.42-13.25 16.918-13.25"/>
        <g transform="translate(73.517 363.091)">
            <mask id="f" fill="#fff">
                <use xlink:href="#e"/>
            </mask>
            <path fill="#D1D3D4" d="M6.173 13.33H.376C6.754-.39 10.796.08 17.294.08c1.909 0-12.857-.606-11.12 13.25" mask="url(#f)"/>
        </g>
        <path fill="#F1F2F2" d="M74.949 363.826c-.831.783-.946 2.01-.26 2.739.687.727 1.916.683 2.745-.1.83-.783.946-2.01.26-2.738-.687-.728-1.915-.684-2.745.1"/>
        <path fill="#000" d="M75.917 366.2c9.015-4.842 16.34-3.43 16.34-3.43-5.62-4.131-16.155 1.228-16.3 1.29a1.17 1.17 0 0 0-.04 2.14"/>
        <path fill="#F1F2F2" d="M70.186 361.88c-.83.782-.945 2.008-.258 2.737.686.729 1.915.685 2.744-.098.83-.784.946-2.01.259-2.74-.686-.728-1.915-.684-2.745.1M65.83 359.77c-.829.782-.944 2.009-.259 2.737.687.728 1.916.684 2.746-.098.83-.784.946-2.01.26-2.74-.687-.727-1.916-.684-2.746.1"/>
        <path fill="#000" d="M71.033 364.122c9.014-4.843 14.26-3.323 14.26-3.323-3.744-3.464-14.114 1.066-14.22 1.182-.596.652-.875.936-.626 1.532.117.28.331.49.586.61"/>
        <path fill="#000" d="M66.698 360.025c.117-.06 10.007-5.542 13.089-1.29 0 0-5.882-1.412-13.12 3.43a1.087 1.087 0 0 1-.472-.608c-.2-.596.025-1.282.503-1.532"/>
        <g transform="translate(54.993 372.364)">
            <mask id="h" fill="#fff">
                <use xlink:href="#g"/>
            </mask>
            <path fill="#D1D3D4" d="M44.342.39c.172 1.103.247 2.32.21 3.667H.003L.271.39h44.07z" mask="url(#h)"/>
        </g>
        <g transform="translate(54.993 372.364)">
            <mask id="j" fill="#fff">
                <use xlink:href="#i"/>
            </mask>
            <path fill="#090023" d="M7.726.39c.03 1.103.044 2.32.037 3.667H.004L.051.39h7.675z" mask="url(#j)" opacity=".2"/>
        </g>
        <path fill="#FD7665" d="M34.597 351.468c-.974-6.548-16.386-5.113-16.386.062 0 13.177-2.951 11.501-2.951 21.416 0 2.984-.273.36 10.718.36 10.992 0 14.806 3.427 14.806-.22 0-9.846-4.011-5.811-4.986-12.36l-1.201-9.258z"/>
        <path fill="#BE594C" d="M30.943 354.486c1.686 3.368 1.039 7.548 2.19 11.087 1.051 3.226 3.628 6.56 6.53 9.12.742-.117 1.12-.537 1.12-1.607 0-9.846-4.01-5.811-4.985-12.36l-1.2-9.258c-.874-5.868-13.306-5.314-15.888-1.414 4.682-.216 9.872-.28 12.233 4.432"/>
        <path fill="#F1F2F2" d="M19.082 357.26c-.193 1.026.268 2.018 1.029 2.218.76.2 1.533-.468 1.725-1.494.193-1.025-.268-2.017-1.028-2.217-.76-.2-1.533.468-1.726 1.493M34.745 357.26c.192 1.026-.268 2.018-1.028 2.218-.76.2-1.533-.468-1.727-1.494-.192-1.025.269-2.017 1.029-2.217.76-.2 1.533.468 1.726 1.493"/>
        <path fill="#000" d="M32.839 358.456a.586.586 0 0 1-.26-.062c-3.89-1.994-8.348-1.994-12.237 0-.328.165-.715-.013-.858-.402-.142-.391.01-.846.339-1.014 4.219-2.162 9.055-2.162 13.275 0 .328.168.48.623.339 1.014-.107.29-.347.464-.598.464"/>
        <path fill="#F1F2F2" d="M18.899 363.824c-.193 1.026.267 2.018 1.028 2.219.76.2 1.533-.47 1.725-1.494.193-1.026-.267-2.018-1.027-2.218-.76-.201-1.534.467-1.726 1.493M34.929 363.824c.193 1.026-.268 2.018-1.028 2.219-.76.2-1.533-.47-1.726-1.494-.193-1.026.268-2.018 1.028-2.218.76-.201 1.533.467 1.726 1.493"/>
        <path fill="#000" d="M32.839 364.621a.587.587 0 0 1-.26-.063c-3.89-1.993-8.348-1.993-12.237 0-.328.163-.715-.012-.858-.401-.142-.391.01-.846.339-1.014 4.219-2.162 9.055-2.162 13.275 0 .328.168.48.623.339 1.014-.107.29-.347.464-.598.464"/>
        <path fill="#F1F2F2" d="M19.144 360.488c-.193 1.025.268 2.017 1.028 2.218.76.2 1.533-.469 1.726-1.493.193-1.026-.268-2.02-1.028-2.219-.76-.2-1.533.469-1.726 1.494M34.684 360.488c.193 1.025-.268 2.017-1.029 2.218-.76.2-1.533-.469-1.726-1.493-.192-1.026.268-2.02 1.029-2.219.76-.2 1.533.469 1.726 1.494"/>
        <path fill="#000" d="M32.839 361.539a.58.58 0 0 1-.26-.064c-3.89-1.993-8.348-1.993-12.237 0-.328.166-.715-.012-.858-.4-.142-.392.01-.846.339-1.015 4.219-2.16 9.055-2.16 13.275 0 .328.169.48.623.339 1.016-.107.288-.347.463-.598.463"/>
        <path fill="#F1F2F2" d="M37.807 364.921c-6.853-2.272-14.754-1.822-21.648.5-.502 1.82-.899 3.893-.899 7.525 0 2.984-.273.36 10.718.36 10.992 0 14.806 3.427 14.806-.22 0-6.15-1.565-6.884-2.977-8.165"/>
        <g transform="translate(14.472 372.364)">
            <mask id="l" fill="#fff">
                <use xlink:href="#k"/>
            </mask>
            <path fill="#D1D3D4" d="M.543.39a33.463 33.463 0 0 0-.125 3.667H26.87L26.712.39H.542z" mask="url(#l)"/>
        </g>
        <path fill="#BCBEC0" d="M85.56 164.73s2.765 51.04-7.645 104.858c-.504 2.603-2.853 43.862-2.86 68.107 0 1.274 1.428 2.886 1.441 4.058.015 1.33-1.382 2.207-1.349 3.383.039 1.3 1.576 3.65 1.639 4.73.108 1.85-1.232 2.208-1.04 3.294-6.262 1.958-12.77 1.826-19.48 0 0 0-2.192-1.287-2.538-3.776-.206-1.476 1.513-3.45 1.245-5.626-.15-1.218-1.377-1.953-1.535-3.358-.112-.992.848-2.61.736-3.686-1.89-18.091-3.707-47.416 1.118-68.693l2.87-37.857 3.267-24.79s-11.657 59.032-16.203 69.072c-2.947 6.513-5.97 38.004-7.731 59.33-.12 1.456-.235 2.862-.343 4.211-.084 1.05 1.311 2.405 1.235 3.379-.119 1.522-1.703 2.604-1.802 3.907-.13 1.72 1.556 4.543 1.464 5.8-.19 2.621-2.092 2.827-2.092 2.827-6.791 1.963-13.014 2.003-18.651.063 0 0-2.46-1.061-2.749-6.415-.061-1.14 2.008-4.41 1.954-5.748-.047-1.168-1.243-1.878-1.278-3.187-.027-.962 1.103-2.492 1.084-3.524-.31-17.35.669-44.362 7.481-71.083 0 0 6.106-82.481 9.352-98.144l52.41-1.132z"/>
        <path fill="#090023" d="M70.06 216.297c-3.322.29-6.696.189-10.062-.066l1.431-10.857s-.852 4.313-2.183 10.799c-2.819-.232-5.63-.56-8.397-.846a3250.62 3250.62 0 0 1-18.39-1.947c-1.505-.164-3.01-.32-4.516-.471 1.779-20.141 3.772-40.123 5.207-47.047l52.409-1.132s1.111 20.531-.73 49.279c-4.934.668-9.799 1.855-14.769 2.288" opacity=".2"/>
        <path fill="#ADADAD" d="M63.081 348.172c-2.682 1.654-6.167 1.465-9.327 1.353-.008-.048-.02-.092-.027-.141-.195-1.408 1.354-3.27 1.267-5.326 2.661 1.44 5.57 2.42 8.087 4.114M69.947 347.007c.46-.56 1.646-.874 2.3-1.131a50.82 50.82 0 0 1 2.922-1.022 1.513 1.513 0 0 0-.021.282c.032 1.118 1.17 3.01 1.53 4.206-1.991-.077-3.989-.18-5.816-.954-.613-.26-1.474-.701-.915-1.38M28.26 343.794c1.146-1.412 3.844-1.91 5.451-2.321 1.414-.361 2.969-.774 4.49-.928.126.29.206.57.186.821-.112 1.434-1.524 2.478-1.77 3.684-.511.037-1.024.07-1.537.088-2.145.07-5.088.196-6.82-1.344M19.623 354.638a25.932 25.932 0 0 1-2.318-.675s-2.46-1.06-2.748-6.414c-.003-.06.002-.13.01-.202 2.898 2.894 7.346 3.506 11.164 5.246-1.727 1.375-3.871 1.886-6.108 2.045"/>
        <g fill="#E6E6E6">
            <path d="M68.335 225.017c.196-.788.399-1.578.609-2.363 3.8-.13 7.602-.16 11.393.058.012.719.017 1.44.018 2.16-4.013-.047-8.029-.084-12.02.145M67.445 228.819c.242-1.105.504-2.23.78-3.361 4.028-.24 8.08-.205 12.128-.157-.004 1.39-.029 2.775-.074 4.123-4.269-.29-8.55-.472-12.834-.605M66.826 231.819c.162-.839.338-1.698.527-2.574 4.31.134 8.616.317 12.91.61-.043 1.21-.104 2.385-.179 3.507-4.436-.393-8.842-1-13.258-1.543M65.611 240.807c.044-.77.106-1.555.188-2.354 4.624-.265 9.248-.537 13.88-.683a54.24 54.24 0 0 1-.42 2.781 229.97 229.97 0 0 1-13.648.256M74.176 246.179c-2.872-.298-5.738-.707-8.618-1.007a45.178 45.178 0 0 1 .028-3.937 231.08 231.08 0 0 0 13.593-.247 47.696 47.696 0 0 1-1.36 5.524c-1.23-.09-2.45-.21-3.643-.333M65.927 249.095a33.153 33.153 0 0 1-.347-3.486c3.14.33 6.264.782 9.401 1.086.89.087 1.794.167 2.704.234-.229.704-.47 1.38-.723 2.024-3.679.051-7.357.114-11.035.142M65.847 238.017l.051-.46c.188-1.565.479-3.373.846-5.312 4.435.543 8.857 1.15 13.312 1.544a79.406 79.406 0 0 1-.325 3.548c-4.633.144-9.259.414-13.884.68"/>
        </g>
        <path fill="#E6E6E6" d="M35.104 273.189c1.974.067 4.221.01 6.27.014a13.841 13.841 0 0 1-.302 1.805c-5.06.372-10.114.142-15.106-.597.355-.61.743-1.283 1.15-2.001 2.588.499 5.346.697 7.988.779M41.427 269.204c.022.362.037.722.046 1.077-4.378.401-8.742.298-13.095-.135.277-.505.56-1.022.84-1.542 3.974.672 8.075.887 12.21.6"/>
        <path fill="#E6E6E6" d="M41.48 270.52c.013.85-.012 1.673-.082 2.444-1.64.007-3.37.042-4.952.015-3.033-.045-6.235-.215-9.204-.79.327-.58.668-1.191 1.013-1.817 4.395.441 8.803.552 13.224.148M25.837 274.633c5.013.75 10.086.988 15.17.62-.019.071-.038.145-.058.213-.186.632-.419 1.253-.686 1.86-3.04.007-6.245-.018-9.225-.414a56.725 56.725 0 0 1-5.884-1.1c.073-.13.143-.261.221-.393.146-.246.302-.51.462-.786"/>
        <path fill="#E6E6E6" d="M30.485 277.083c3.113.453 6.485.487 9.668.49-.28.61-.599 1.206-.955 1.779-5.114.174-10.166-.29-15.199-1.108.27-.716.616-1.458 1.033-2.216a59.03 59.03 0 0 0 5.453 1.055"/>
        <path fill="#E78052" d="M3.173 151.844l9.454-68.982 14.665 35.366-5.017 33.809zM92.13 80.714l16.398 73.448-13.508 4.256-7.332-31.496z"/>
        <path fill="#E6E6E6" d="M84.428 136.452l-3.54-27.371L92.13 80.714c7.16 7.162 13.625 33.161 16.35 52.82-7.955 1.514-15.955 2.701-24.05 2.918"/>
        <path fill="#F2F2F2" d="M92.13 80.714c-1.199-1.11-28.78-13.878-28.78-13.878l-3.694 8.634L41.7 65.486S14.095 81.391 12.627 82.862c-.936.936 6.44 20.741 11.835 35 3.074 8.127.515 85.758.515 85.758 9.454 7.92 59.045 7.34 64.062 2.318 0 0 4.29-124.114 3.09-125.224"/>
        <path fill="#CEDAE2" d="M72.734 154.162c-5.21.58-25.343-7.353-25.343-7.353s-14.738 12.073-21.465 12.005c.06-6.5.071-12.947.004-18.761 2.954-1.675 15.882-9.916 18.005-12.552 2.349-2.915 6.223-18.836 6.223-18.836s22.854 10.68 26.542 11.658c4.992 1.322 10.286.123 15.043-2.002a6976.8 6976.8 0 0 1-.803 28.57c-2.509 1.042-12.996 6.692-18.206 7.271"/>
        <path fill="#FBB57A" d="M63.46 66.887c-1.212-4.999-1.565-9.471-1.565-9.471l-19.42-5.521s-.01 6.882-.895 13.66c-.59.34-4.8 2.77-9.873 5.731 0 0 4.084 3.288 10.859 5.634.802.3 1.641.56 2.523.775 3.199.89 6.826 1.533 10.879 1.533 14.54 0 15.96-8.393 15.96-8.393-4.611-2.16-8.175-3.812-8.468-3.948"/>
        <path fill="#E78052" d="M63.235 65.888c-1.024-4.576-1.34-8.472-1.34-8.472l-19.42-5.521s-.018 6.284-.79 12.754c6.736 3.019 15.029 9.443 21.55 1.24"/>
        <path fill="#F2F2F2" d="M27.53 138.787c-9.33-.094-18.544-.68-27.53-3.557 4.647-22.197 12.626-52.368 12.626-52.368 11.027 10.324 17.145 25.883 16.164 49.016l-1.26 6.91z"/>
        <g transform="translate(42.836 .274)">
            <mask id="n" fill="#fff">
                <use xlink:href="#m"/>
            </mask>
            <path fill="#000" d="M4.567 1.177L6.02 3.68 5.398.862c2.44-.799 5.102-.736 7.511.175l-.812 3.512 1.868-3.054a11.228 11.228 0 0 1 3.402 2.626l-6.34 5.596a2.815 2.815 0 0 0-4.227 0L.46 4.121a11.205 11.205 0 0 1 4.107-2.944" mask="url(#n)"/>
        </g>
        <path fill="#EB9756" d="M38.385 39.811c0 3.381.155 6.123-1.972 6.123-2.128 0-5.735-2.742-5.735-6.123 0-3.382 1.048-6.123 3.176-6.123 2.127 0 4.53 2.741 4.53 6.123M74.481 39.811c0 3.381-3.607 6.123-5.734 6.123-2.129 0-1.972-2.742-1.972-6.123 0-3.382 2.401-6.123 4.53-6.123 2.128 0 3.176 2.741 3.176 6.123"/>
        <path fill="#FBB57A" d="M52.579 14.13c-16.666 0-17.67 15.657-17.732 17.545-.005.115-.002.225.005.339.1 1.743 2.23 17.861 3.835 20.94 1.33 2.554 8.717 10.9 13.796 10.9 5.082 0 12.658-8.346 13.989-10.9 1.604-3.079 3.735-19.197 3.835-20.94a3.31 3.31 0 0 0 .005-.339c-.06-1.888-1.066-17.545-17.733-17.545"/>
        <path fill="#E78052" d="M70.166 33.402c-.564-.812-1.192-1.575-1.766-2.384-1.137-1.603-1.397-4.869-1.397-4.869s-.228-3.52-1.668-4.716c-2.31-1.92-5.856-1.17-8.531-.695-2.562.454-4.86 1.183-7.443.396-2.06-.627-6.23-1.264-6.23-1.264s-3.455.174-4.336 1.491c-1.01 1.51-.06 3.824-.256 5.502-.345 2.928-1.878 5.43-3.373 7.942-.18-1.401-.293-2.421-.314-2.791a3.475 3.475 0 0 1-.005-.338c.061-1.889 1.066-17.546 17.732-17.546 16.667 0 17.673 15.657 17.733 17.546.004.114.002.224-.005.338-.013.23-.063.718-.141 1.388"/>
        <path fill="#000" d="M44.774 34.382c1.166-.16 2.19 1.366 2.286 3.407.096 2.042-.77 3.825-1.937 3.984-1.167.16-2.19-1.365-2.287-3.405-.096-2.042.771-3.826 1.938-3.986M60.036 34.382c1.166-.16 2.19 1.366 2.288 3.407.096 2.042-.772 3.825-1.939 3.984-1.167.16-2.19-1.365-2.287-3.405-.097-2.042.771-3.826 1.938-3.986M66.506 28.514c-.293-.105-5.112-2.354-11.145-.208-.418.147-.656 2.462-.319 2.462.099 0 .2-.016.298-.05 5.61-1.89 10.316-.762 10.418-.724.487.133 1.07-.093 1.28-.504.21-.411-.037-.847-.532-.976M38.642 30.28c.282-.13 4.893-2.781 11.086-1.157.429.11.864 2.398.526 2.426a.95.95 0 0 1-.3-.023c-5.749-1.406-10.343.117-10.442.165-.474.174-1.074-.003-1.318-.395s-.035-.846.448-1.017"/>
        <path fill="#E88252" d="M52.023 44.256c-.29.644-.275.53-.065 1.031.143.347.48.682.682.967.442.629-1.452.42-1.794-.062-.282-.402-.963-1.068-1.108-1.6-.173-.63.16-.858.489-1.227.943-1.055 1.547-2.393 1.837-3.988.114-.632.943 2.687-.041 4.88"/>
        <path fill="#E78052" d="M59.37 50.828c-4.892.803-9.62.78-14.199 0 0 0 2.97 1.639 7.062 1.639 4.093 0 7.137-1.64 7.137-1.64"/>
        <path fill="#000" d="M51.605 16.415s-8.828-.21-13.459 4.878c-2.397 2.635-2.237 6.966-2.17 12.896l-1.448-.399S30.331 7.6 53.052 7.6c19.284 0 18.199 23.655 17.656 26.154l-1.412.399s1.611-8.77-3.292-14.019c-2.609-2.792-7.928-3.719-14.4-3.719"/>
        <path fill="#000" d="M67.596 20.352l.29 7.027 1.664 6.593s1.23-8.839-1.954-13.62M37.511 20.352l-.29 7.027-1.663 6.593s-1.23-8.839 1.953-13.62M66.15 18.685s-5.283-.386-14.11 1.667c0 0-9.745-2.101-15.534-1.667 0 0 15.099-9.128 29.643 0"/>
        <path fill="#333" d="M45.04 14.325l-.867-1.706-.313-.617.645-.005a22.69 22.69 0 0 1 4.094.354l.26-2.622.11-1.113.778.734c.925.872 1.789 1.828 2.603 2.837a33.271 33.271 0 0 1 2.133-2.901l.937-1.146.038 1.558c.02.842.034 1.684.045 2.526a21.65 21.65 0 0 1 2.982-.395 22.79 22.79 0 0 1 3.63.053l.714.072-.462.603c-.53.693-1.066 1.385-1.608 2.073 1.166.106 2.325.288 3.456.599-1.316-.119-2.63-.183-3.936-.115l-.464.024.282-.447c.42-.669.857-1.328 1.29-1.988-.946.015-1.89.067-2.828.186-1.166.152-2.325.353-3.464.659l-.612.164-.034-.75c-.023-.527-.038-1.056-.057-1.584a42.09 42.09 0 0 0-1.524 2.224l-.43.678-.47-.628a30.344 30.344 0 0 0-2.184-2.59l-.257 1.999-.08.625-.51-.13a25.696 25.696 0 0 0-3.835-.66l.649 1.544.2.477-.44-.007c-1.626-.025-3.252.167-4.876.442 1.426-.516 2.908-.826 4.404-1.027"/>
        <path fill="#000" d="M36.94 124.024s5.789 24.342-12.156 45.207l-1.158-5.796s11.964-12.557 9.07-38.252l4.244-1.16z"/>
        <path fill="#333" d="M29.52 71.978s-6.814.758-11.734 7.2c0 0 10.65 40.454 11.532 52.96 0 0 5.48.903 10.275.145 0 0-3.039-39.846-10.074-60.305M77.884 73.604c-1.893-1.934 10.172 1.432 11.733 3.602 1.562 2.17 5.11 40.214.568 43.05l-6.245-.356s-4.163-44.362-6.056-46.296"/>
        <path fill="#E6E7E8" d="M110.158 108.198s-6.023-1.374-14.01 1.373c-7.987 2.748-10.988 7.557-10.988 7.557l24.998-8.93zM57.698 108.06s9.13-1.373 17.907 1.374c8.777 2.748 9.324 7.556 9.324 7.556l-27.23-8.93z"/>
        <g transform="translate(74.674 106.337)">
            <mask id="p" fill="#fff">
                <use xlink:href="#o"/>
            </mask>
            <path fill="#A4C8E4" d="M37.488.04l-23.9 9.377L.28 42.39l20.81-8.037z" mask="url(#p)"/>
        </g>
        <path fill="#5E7E97" d="M84.082 115.96l-27.383-9.273-10.433 35.652 24.444 6.8z"/>
        <path fill="#7E98AC" d="M88.262 115.754l-4.18.206-13.372 33.18 4.244-.413z"/>
        <path fill="#FBB57A" d="M69.743 123.251s-11.964-5.796-18.331-2.125l-5.403 13.524s19.103 4.443 24.505-.58c5.404-5.023-.771-10.819-.771-10.819"/>
        <path fill="#FBB57A" d="M46.009 134.65s-26.097 26.032-36.228 23.859c-10.13-2.173-7.38-11.447-5.065-15.07 2.316-3.622 46.696-22.313 46.696-22.313l-5.403 13.523zM108.334 127.115s5.403 31.539-.193 34.961c-5.596 3.423-10.227-.724-13.121-3.658s6.56-34.974 6.56-34.974l6.754 3.67z"/>
        <path fill="#E78052" d="M97.5 138.655a374.052 374.052 0 0 1 4.08-15.21l6.754 3.67s.525 3.064 1.078 7.386c-3.199 2.796-7.503 3.806-11.913 4.154"/>
        <path fill="#FBB57A" d="M106.984 119.387s-12.543 3.67-13.507 6.569c-.965 2.898 1.93 11.205 6.174 10.046 4.245-1.159 13.121-.966 7.333-16.615"/>
    </g>
</svg>
