<svg xmlns="http://www.w3.org/2000/svg" xmlns:xlink="http://www.w3.org/1999/xlink" width="125" height="366" viewBox="0 0 125 366">
    <defs>
        <path id="a" d="M.555.467h45.181v29.092H.556z"/>
        <path id="c" d="M.039.467H17.37V13.91H.039z"/>
        <path id="e" d="M.555.338h45.19v3.72H.556z"/>
        <path id="g" d="M.556.338h7.87v3.72H.557z"/>
        <path id="i" d="M.035.338h26.834v3.72H.035z"/>
        <path id="k" d="M.576.357h54.229v59.534H.576z"/>
        <path id="m" d="M0 .329h18.043v42.454H0z"/>
    </defs>
    <g fill="none" fill-rule="evenodd">
        <path fill="#B3B3B3" d="M19.544 189.661l2.768.849C34.655 150.16 75.21 81.66 75.618 80.974l-2.488-1.481c-.41.69-41.14 69.485-53.586 110.168"/>
        <path fill="#E78052" d="M87.843 78.003s11.872 40.078 15.584 43.795c3.712 3.717 17.549 15.711 17.549 15.711l-5.231 9.124s-20.586-8.786-26.66-18.077c-6.075-9.292-8.944-30.41-8.944-30.41s-10.605-19.29 7.702-20.143"/>
        <path fill="#CCC" d="M99.564 123.566c1.437-.447 2.875-.892 4.316-1.323a40.096 40.096 0 0 1-.453-.445c-3.712-3.717-15.584-43.795-15.584-43.795-18.307.853-7.701 20.143-7.701 20.143s2.51 18.473 7.804 28.466c3.783-1.257 7.83-1.868 11.618-3.046"/>
        <path fill="#E78052" d="M25.209 80.189s-17.456 42.623-15.263 62.22c0 0 8.084 11.459 13.331 2.704.506-.845 9.787-35.31 9.787-35.31s10.508-37.585-7.855-29.614"/>
        <path fill="#E6E7E8" d="M8.14 139.511c3.356-.992 9.36-3.135 13.833-3.135 4.474 0 7.792 1.733 9.057 1.783 2.905-10.454 2.034-28.356 2.034-28.356s10.508-37.585-7.855-29.614c-5.253.278-17.818 51.051-17.07 59.322"/>
        <path fill="#CCC" d="M35.938 93.536c-5.248 5.121-6.447 13.82-6.397 20.982.034 4.974.256 9.83-.596 14.756-.378 2.188-.78 4.44-1.55 6.526-.15.409-.327.818-.511 1.23 1.963.496 3.407 1.1 4.146 1.129 2.905-10.454 2.034-28.356 2.034-28.356s2.319-8.296 2.874-16.267"/>
        <g transform="translate(57.887 335.564)">
            <mask id="b" fill="#fff">
                <use xlink:href="#a"/>
            </mask>
            <path fill="#FBB040" d="M45.736 29.559H.556L2.61 1.389C9.1.272 15.205.052 20.628 1.39c0 0-1.106 8.705 7.903 11.553 9.01 2.849 17.205 1.957 17.205 16.617" mask="url(#b)"/>
        </g>
        <path fill="#090023" d="M63.852 365.122h-5.41l2.056-28.169c3.245-.558 6.394-.893 9.41-.92 3.015-.028 5.896.251 8.608.92 0 0-.02.234-.03.55v.14c-.014 1.196.154 3.785 1.69 6.244-5.145-.077-10.288-.161-15.432-.242-.183.325-.395.613-.538.984-1.261 3.237-.762 7.137-.573 10.507.187 3.332.127 6.662.22 9.986" opacity=".2"/>
        <path fill="#F1F2F2" d="M94.766 351.684c7.35 0 8.912 5.197 8.68 13.438h-25.84c6.47-13.915 10.57-13.438 17.16-13.438"/>
        <g transform="translate(77.569 351.212)">
            <mask id="d" fill="#fff">
                <use xlink:href="#c"/>
            </mask>
            <path fill="#D1D3D4" d="M5.918 13.91H.038C6.509-.006 10.609.471 17.199.471c1.935 0-13.04-.615-11.28 13.44" mask="url(#d)"/>
        </g>
        <path fill="#F2F2F2" d="M78.678 352.348c-.842.794-.959 2.038-.263 2.777.697.739 1.943.694 2.784-.1.842-.795.96-2.038.264-2.777-.697-.74-1.943-.694-2.785.1"/>
        <path fill="#D1D3D4" d="M79.66 354.756c9.144-4.911 16.573-3.48 16.573-3.48-5.7-4.189-16.385 1.247-16.532 1.31a1.187 1.187 0 0 0-.04 2.17"/>
        <path fill="#F2F2F2" d="M73.848 350.373c-.841.794-.959 2.038-.263 2.777.697.739 1.943.695 2.784-.1.842-.795.96-2.037.263-2.777-.696-.739-1.942-.694-2.784.1M69.43 348.233c-.841.795-.958 2.039-.262 2.777.696.739 1.943.694 2.784-.1.842-.794.96-2.037.264-2.777-.697-.738-1.943-.694-2.786.1"/>
        <path fill="#D1D3D4" d="M74.707 352.649c9.143-4.912 14.464-3.37 14.464-3.37-3.798-3.514-14.316 1.08-14.424 1.198-.604.661-.888.95-.635 1.554.119.284.336.497.595.618"/>
        <path fill="#D1D3D4" d="M70.31 348.493c.119-.061 10.15-5.621 13.275-1.309 0 0-5.965-1.432-13.307 3.48a1.105 1.105 0 0 1-.478-.618c-.202-.604.026-1.3.51-1.553"/>
        <g transform="translate(57.887 361.065)">
            <mask id="f" fill="#fff">
                <use xlink:href="#e"/>
            </mask>
            <path fill="#D1D3D4" d="M45.524.338c.174 1.118.25 2.352.212 3.72H.556l.27-3.72h44.698z" mask="url(#f)"/>
        </g>
        <g transform="translate(57.887 361.065)">
            <mask id="h" fill="#fff">
                <use xlink:href="#g"/>
            </mask>
            <path fill="#090023" d="M8.388.338c.03 1.118.044 2.352.037 3.72H.555L.604.337h7.785z" mask="url(#h)" opacity=".2"/>
        </g>
        <path fill="#FBB040" d="M24.821 339.814c.989-6.641 16.619-5.185 16.619.063 0 13.365 2.993 11.665 2.993 21.72 0 3.027.277.366-10.87.366-11.149 0-15.017 3.475-15.017-.224 0-9.985 4.068-5.893 5.057-12.535l1.218-9.39z"/>
        <path fill="#FBB040" d="M23.603 349.204l.732-5.648.485-3.742c.989-6.641 16.62-5.185 16.62.063 0 1.329.029 2.508.083 3.566.184 3.69-11.996-5.372-17.92 5.76"/>
        <path fill="#090023" d="M28.528 342.875c-1.711 3.416-1.054 7.656-2.223 11.244-1.065 3.273-3.678 6.654-6.622 9.25-.752-.119-1.137-.544-1.137-1.63 0-9.985 4.068-5.893 5.057-12.534l1.218-9.39c.886-5.953 13.495-5.39 16.113-1.435-4.749-.219-10.013-.283-12.406 4.495" opacity=".2"/>
        <path fill="#F2F2F2" d="M40.557 345.689c.195 1.04-.272 2.046-1.044 2.25-.77.202-1.554-.476-1.75-1.516-.195-1.039.272-2.047 1.042-2.249.772-.203 1.555.475 1.752 1.515M24.671 345.689c-.195 1.04.271 2.046 1.043 2.25.77.202 1.555-.476 1.75-1.516.196-1.039-.271-2.047-1.042-2.249-.772-.203-1.555.475-1.751 1.515"/>
        <path fill="#D1D3D4" d="M26.605 346.902c.088 0 .177-.021.263-.064 3.944-2.022 8.467-2.022 12.412 0 .332.168.724-.013.87-.407.143-.397-.011-.857-.344-1.028-4.28-2.193-9.185-2.193-13.465 0-.333.17-.487.631-.343 1.028.108.294.351.47.607.47"/>
        <path fill="#F2F2F2" d="M40.743 352.346c.195 1.04-.272 2.047-1.043 2.25-.771.203-1.555-.475-1.75-1.515-.196-1.04.271-2.047 1.042-2.25.772-.203 1.555.475 1.75 1.515M24.484 352.346c-.195 1.04.272 2.047 1.043 2.25.771.203 1.555-.475 1.75-1.515.196-1.04-.271-2.047-1.042-2.25-.77-.203-1.555.475-1.75 1.515"/>
        <path fill="#D1D3D4" d="M26.605 353.154c.088 0 .177-.02.263-.063 3.944-2.022 8.467-2.022 12.412 0 .332.164.724-.013.87-.408.143-.396-.011-.857-.344-1.028-4.28-2.192-9.185-2.192-13.465 0-.333.171-.487.632-.343 1.028.108.294.351.471.607.471"/>
        <path fill="#F2F2F2" d="M40.494 348.963c.195 1.039-.272 2.046-1.042 2.25-.772.201-1.556-.476-1.751-1.515-.195-1.04.272-2.048 1.042-2.25.772-.204 1.555.475 1.751 1.515M24.733 348.963c-.196 1.039.272 2.046 1.044 2.25.77.201 1.554-.476 1.75-1.515.195-1.04-.271-2.048-1.043-2.25-.771-.204-1.555.475-1.751 1.515"/>
        <path fill="#D1D3D4" d="M26.605 350.028a.588.588 0 0 0 .263-.064c3.944-2.021 8.467-2.021 12.412 0 .332.168.724-.012.87-.406.143-.397-.011-.858-.344-1.03-4.28-2.19-9.185-2.19-13.465 0-.333.172-.487.633-.343 1.03.108.293.351.47.607.47"/>
        <path fill="#FBB040" d="M21.565 353.459c6.952-2.305 14.964-1.848 21.957.506.508 1.847.911 3.95.911 7.632 0 3.027.277.366-10.87.366-11.149 0-15.017 3.475-15.017-.224 0-6.237 1.587-6.982 3.02-8.28"/>
        <g transform="translate(17.945 361.065)">
            <mask id="j" fill="#fff">
                <use xlink:href="#i"/>
            </mask>
            <path fill="#D1D3D4" d="M26.737.338c.104 1.118.15 2.352.126 3.72H.035l.16-3.72h26.542z" mask="url(#j)"/>
        </g>
        <path fill="#231F20" d="M80 78.751c-1.093-14.937-2.714-54.647-1.83-54.648-3.96-21.528-30.299-15.788-37.879-8.042-3.256 3.327-10.854 52.473-13.934 68.293 3.855.178 52.536-5.427 53.643-5.603"/>
        <path fill="#FAB57A" d="M86.82 160.204s-.085 15.942-.085 36.338c0 33.991-9.878 128.156-9.878 141.186-7.448 2.171-9.173 1.994-15.147.386 0 0 6.633-128.118-1.363-128.118S39.23 338.403 39.23 338.403c-7.446 2.985-5.086 2.578-12.35-.482 0 0-3.155-126.954 4.676-176.94l55.263-.777z"/>
        <path fill="#E78052" d="M62.806 313.52c2.063.049 4.145.085 6.157-.353 2.098-.457 3.868-1.401 6.025-1.594 1.232-.11 2.469-.153 3.707-.162 2.858-34.06 8.04-90.247 8.04-114.87 0-20.394.084-36.338.084-36.338l-55.263.778c-5.71 36.448-5.58 113.816-5.089 153.052 1.189.38 2.367.68 3.764.708 1.643.034 3.291-.01 4.934-.066 2.23-.076 4.459-.196 6.688-.289 4.24-37.168 12.709-104.39 18.494-104.39 5.753 0 3.933 66.314 2.46 103.523"/>
        <path fill="#F2F2F2" d="M34.79 326.174c-1.639-.047-3.308-.123-4.937-.33-1.034-.132-2.13-.466-3.223-.64.133 7.988.25 12.717.25 12.717 7.264 3.06 4.904 3.467 12.35.483 0 0 .488-4.77 1.331-12.467-1.907.241-3.838.292-5.77.237M72.26 325.642c-3.351.11-6.63-.61-9.927-.788-.36 8.16-.624 13.26-.624 13.26 5.975 1.608 7.7 1.786 15.147-.386 0-2.203.299-6.413.776-12.392-1.789.136-3.578.247-5.372.306"/>
        <path fill="#E6E7E8" d="M35.647 136.11c-.719-5.177-9.964-56.053-9.964-56.053s17.888-9.977 21.325-11.694c3.743.642 5.368 2.294 9.193 2.18 4.286-.13 9.585.312 13.297-2.246 4.667 2.402 15.783 8.124 17.452 8.99 2.122 1.102.236.291-.117 8.677-.231 5.488 2.28 12.145 2.426 20.14.148 7.996-1.25 18.468-1.25 18.468-1.794 19.866.133 52.732.133 54.62-.015 5.177-28.664 5.84-29.713 5.817-13.858-.302-32.37-5.924-30.99-7.304 0-11.473 8.926-36.42 8.208-41.596"/>
        <path fill="#E36B5B" d="M86.987 174.48s7.333 106.255 6.175 131.371c0 0-54.8 5.41-69.08-1.546-14.278-6.955 8.491-131.757 8.491-131.757l54.414 1.931z"/>
        <path fill="#FD7665" d="M35.647 136.11c-.441-3.178-3.02-12.81-5.776-28.089-1.733-9.613 15.34-18.716 15.34-18.716l19.007 17.943s8.637-15.603 12.35-18.16c4.666 2.402 12.544 9.02 12.691 17.017.148 7.995-1.25 18.467-1.25 18.467-1.794 19.866.133 52.732.133 54.62-.015 5.177-18.266 130.313-19.293 130.522-14.827 3.036-41.679 3.092-57.502-2.318 12.35-76.89 12.736-139.098 24.3-171.287"/>
        <path fill="#BE594C" d="M27.308 224.143a71.068 71.068 0 0 0 8.092-1.176c1.83-.377 3.684-.948 5.562-.987 3.013-.063 4.886 2.031 6.616 4.238 2.16 2.754 5.316 6.314 9.045 6.641 4.69.411 5.836-4.454 5.775-8.12-.059-3.47-.83-6.864-2.148-10.063-3.179-7.713-8.403-14.786-14.829-20.097-5.56-4.594-12.38-7.902-19.594-7.867-1.372 11.497-2.645 24.112-4.05 37.688a68.528 68.528 0 0 0 5.53-.257"/>
        <path fill="#E36B5B" d="M87.844 126.59c-2.465-.334-4.897-.905-7.227-1.777-3.654-1.368-7.07-3.58-10.948-4.296-3.21-.59-7.611-.03-8.694 3.583-.699 2.331-.247 4.85-.845 7.209-1.294 5.107-7.492 6.59-12.03 7.074-4.411.471-8.898.103-13.33.307-1.39 4.268-2.613 9.007-3.712 14.19 1.801-.585 3.553-1.346 5.238-2.142 3.953-1.865 27.135-12.425 29.318-13.389 1.415-.625 2.904-1.37 4.413-1.745 2.404-.599 4.475 1.76 5.124 3.89.858 2.817-.255 6.017-1.064 8.715-.992 3.308-1.725 6.378-1.77 9.844-.05 4.013 14.378 5.805 15.234 5.944-.346-11.054-.565-25.988.293-37.408"/>
        <path fill="#FD7665" d="M43.685 90.418l-6.578-16.737 1.4-.773 6.88 17.168zM77.667 90.177l3.707-16.061-1.616-.845-3.794 16.563z"/>
        <path fill="#F2F2F2" d="M44.657 190.614l-2.557-1.358C61.856 151.978 81.53 74.823 81.725 74.049l2.806.712c-.198.779-19.955 78.267-39.874 115.853"/>
        <path fill="#FAB57A" d="M44.568 131.22s1.968.116 7.469-8.234c5.502-8.349 4.56-7.93 5.508-8.124.949-.194 7.047-.862 7.047-.862s4.771.041 5.346.588c.576.547 6.345 4.381 6.92 4.928.577.546.724 1.89-.282 2.03-1.006.14-3.97-1.58-3.97-1.58l2.585 2.235-.447 2.203s-1.606.772-1.915-.286c-.309-1.06-3.191-1.825-3.191-1.825l-5.216.082s4.473 1.51 5.281 2.388c.81.877.115 2.188.115 2.188l-.876.81s1.314.92 1.205 1.035c-.108.115.448 2.067-1.292 2.057-1.74-.01-3.763-.18-3.763-.18s-2.862 4.369-5.2 5.105c-2.336.736-4.45 1.275-4.45 1.275l-5.522 1.667-5.352-7.5z"/>
        <path fill="#FAB57A" d="M44.568 131.22s-29.728 3.925-33.272 7.98c-3.543 4.054.253 10.896 5.063 11.15 4.808.253 33.56-11.63 33.56-11.63l-5.35-7.5z"/>
        <path fill="#F0F1F1" d="M70.084 152.624l15.408-49.465a1.149 1.149 0 0 1 1.337-.783l36.53 7.766c.03.006.671.473.7.481-.12-.383-1.035-1.151-1.46-1.241l-36.53-7.766a1.15 1.15 0 0 0-1.336.783l-15.409 49.465c-.192.618.687 1.931 1.296 2.11-.066-.213-.609-1.118-.536-1.35"/>
        <g transform="translate(69.465 101.993)">
            <mask id="l" fill="#fff">
                <use xlink:href="#k"/>
            </mask>
            <path fill="#E6E7E8" d="M53.973 8.184c-.028-.008-.049-.03-.079-.036L17.364.383a1.15 1.15 0 0 0-1.336.783L.619 50.631c-.072.232-.045.459.02.673.12.384.413.705.839.796l36.53 7.765a1.15 1.15 0 0 0 1.337-.783L54.753 9.617a1.142 1.142 0 0 0-.78-1.433" mask="url(#l)"/>
        </g>
        <path fill="#4D4D4D" d="M90.202 106.307a.888.888 0 0 0 0 1.775.888.888 0 0 0 0-1.775"/>
        <path fill="#CCC" d="M90.202 108.082a.888.888 0 0 1 0-1.775.888.888 0 0 1 0 1.775m0-2.281a1.395 1.395 0 0 0 0 2.787 1.395 1.395 0 0 0 0-2.787"/>
        <path fill="#FAB57A" d="M119.292 130.04s-14.03 2.675-14.92 7.58c-.89 4.905-.445 10.701 2.673 11.37 3.117.67 10.91 1.561 14.028-3.567 3.118-5.128 2.005-12.931-1.781-15.383"/>
        <g transform="translate(0 186.032)">
            <mask id="n" fill="#fff">
                <use xlink:href="#m"/>
            </mask>
            <path fill="#CEDAE2" d="M13.711.329C9.874 1.163-4.969 22.594 1.7 42.783c0 0 12.735-7.825 16.208-33.906 0 0 1.303-5.795-4.197-8.548" mask="url(#n)"/>
        </g>
        <path fill="#F2F2F2" d="M45.111 214.752c-4.16 4.58-32.753 4.373-35.976 0-3.223-4.373.727-26.234 4.679-30.086 3.951-3.852 25.474-3.748 29.425 1.249 3.952 4.997 6.031 24.257 1.872 28.837"/>
        <path fill="#000" d="M19.325 201.947a1.145 1.145 0 1 0 .001 2.29 1.145 1.145 0 0 0-.001-2.29M31.594 201.947a1.145 1.145 0 1 0 .002 2.29 1.145 1.145 0 0 0-.002-2.29"/>
        <path fill="#FD7665" d="M25.76 209.785c-.405 0-.772-.16-1.046-.417-.273.257-.64.417-1.044.417-.468 0-.881-.214-1.162-.544v2.69c0 1.094.893 1.988 1.985 1.988h.444a1.992 1.992 0 0 0 1.984-1.987v-2.691c-.28.33-.695.544-1.162.544"/>
        <path fill="#000" d="M23.67 209.785c.405 0 .771-.16 1.044-.417.274.257.64.417 1.045.417.467 0 .881-.214 1.162-.544.226-.266.367-.604.367-.978a.467.467 0 1 0-.936 0 .59.59 0 0 1-.593.585.591.591 0 0 1-.574-.446c.004-.047.014-.092.014-.14a.469.469 0 0 0-.468-.468l-.017.001-.016-.001a.469.469 0 0 0-.468.469c0 .047.01.092.014.139a.591.591 0 0 1-.574.446.59.59 0 0 1-.593-.585.469.469 0 1 0-.936 0c0 .374.142.712.367.978.281.33.694.544 1.162.544"/>
        <path fill="#000" d="M25.017 208.154h-.506a.861.861 0 0 1-.858-.858c0-.473.386-.86.858-.86h.506c.472 0 .858.387.858.86a.861.861 0 0 1-.858.858"/>
        <path fill="#FD7665" d="M20.143 208.369c0 1.51-1.998 2.733-4.464 2.733s-4.465-1.224-4.465-2.733c0-1.51 2-2.733 4.465-2.733 2.466 0 4.464 1.224 4.464 2.733M39.6 208.369c0 1.51-1.998 2.733-4.464 2.733s-4.465-1.224-4.465-2.733c0-1.51 2-2.733 4.465-2.733 2.466 0 4.464 1.224 4.464 2.733"/>
        <path fill="#CEDAE2" d="M44.494 188.11c-.588 1.19-1.162 2.387-1.659 3.62-1.257 3.121-1.876 6.438-2.14 9.784-.248 3.133-.277 6.336.028 9.467.18 1.862.537 3.751 1.347 5.413 1.4-.455 2.46-1.002 3.041-1.642 3.691-4.065 2.467-19.684-.617-26.642"/>
        <path fill="#000" d="M19.325 201.947a1.145 1.145 0 1 0 .001 2.29 1.145 1.145 0 0 0-.001-2.29M31.594 201.947a1.145 1.145 0 1 0 .002 2.29 1.145 1.145 0 0 0-.002-2.29"/>
        <path fill="#FD7665" d="M25.76 209.785c-.405 0-.772-.16-1.046-.417-.273.257-.64.417-1.044.417-.468 0-.881-.214-1.162-.544v2.69c0 1.094.893 1.988 1.985 1.988h.444a1.992 1.992 0 0 0 1.984-1.987v-2.691c-.28.33-.695.544-1.162.544"/>
        <path fill="#000" d="M23.67 209.785c.405 0 .771-.16 1.044-.417.274.257.64.417 1.045.417.467 0 .881-.214 1.162-.544.226-.266.367-.604.367-.978a.467.467 0 1 0-.936 0 .59.59 0 0 1-.593.585.591.591 0 0 1-.574-.446c.004-.047.014-.092.014-.14a.469.469 0 0 0-.468-.468l-.017.001-.016-.001a.469.469 0 0 0-.468.469c0 .047.01.092.014.139a.591.591 0 0 1-.574.446.59.59 0 0 1-.593-.585.469.469 0 1 0-.936 0c0 .374.142.712.367.978.281.33.694.544 1.162.544"/>
        <path fill="#000" d="M25.017 208.154h-.506a.861.861 0 0 1-.858-.858c0-.473.386-.86.858-.86h.506c.472 0 .858.387.858.86a.861.861 0 0 1-.858.858"/>
        <path fill="#F2F2F2" d="M43.116 185.588c4.074.435 18.68 22.266 12.011 42.454 0 0-12.735-7.824-16.208-33.905 0 0 .123-8.983 4.197-8.549"/>
        <path fill="#CEDAE2" d="M38.13 190.764c-.308.43-.684.805-1.012 1.213a15.882 15.882 0 0 1-2.262 2.127c-.83.59-1.737 1.064-2.682 1.211-.47.079-.942.056-1.388-.047a2.911 2.911 0 0 1-1.18-.557l-.369-.31-.351.32c-.766.698-1.55 1.371-2.38 1.956-.828.572-1.718 1.08-2.624 1.288-.906.23-1.788.066-2.42-.559-.634-.605-1.067-1.568-1.26-2.479l-.14-.655-.575.272c-.823.39-1.705.7-2.532.62-.828-.06-1.515-.635-1.932-1.441-.419-.803-.638-1.745-.768-2.688a18.17 18.17 0 0 1-.15-2.889c-.178.958-.26 1.935-.238 2.92.038.981.146 1.987.556 2.944.207.475.495.94.909 1.314.413.375.957.62 1.505.702.887.132 1.73-.05 2.505-.332.093.355.203.7.356 1.043.234.525.55 1.039.99 1.47a3.405 3.405 0 0 0 1.629.906c.618.146 1.247.106 1.82-.024.581-.124 1.112-.35 1.608-.611a10.98 10.98 0 0 0 1.411-.878c.776-.553 1.478-1.177 2.15-1.826.408.242.821.38 1.27.472.146.037.294.056.443.062.149.009.297.03.445.022.293-.032.594-.023.873-.108 1.14-.253 2.129-.848 2.96-1.56.211-.176.395-.378.592-.565.192-.193.398-.373.562-.588.332-.427.71-.815.994-1.27.296-.448.618-.876.875-1.344l.773-1.396-.963 1.265z"/>
        <path fill="#B3366D" d="M38.458 44.823S16.943.292 54.57.002c37.627-.29 31.356 32.94 19.489 42.792-11.867 9.853-31.26 9.563-35.6 2.029"/>
        <path fill="#862952" d="M39.673 45.17S19.51 3.439 54.77 3.167c35.262-.271 29.385 30.868 18.264 40.102-11.12 9.233-29.294 8.962-33.362 1.9"/>
        <path fill="#FAB57A" d="M46.474 68.637l-.006-.008c4.531-3.99-.204-18.2-.204-18.2l16.472.585 4.703 16.223 2.382 1.225 9.747 5.02c-5.164 9.293-16.15 15.823-26.436 10.66-5.26-2.641-10.421-6.596-15.195-10.877 3.535-1.945 6.874-3.766 8.537-4.628"/>
        <path fill="#E78052" d="M59.606 67.835c-3.03.12-8.43-2.09-11.415-2.743 1.053-5.687-1.928-14.663-1.928-14.663l16.473.585 3.655 12.607c-.634 2.265-3.456 4.085-6.785 4.214"/>
        <path fill="#EB9756" d="M35.63 38.655c0 3.382 3.608 6.123 5.735 6.123 2.129 0 1.972-2.741 1.972-6.123 0-3.381-2.402-6.123-4.53-6.123s-3.176 2.742-3.176 6.123M80.677 38.655c0 3.382-3.607 6.123-5.734 6.123-2.128 0-1.972-2.741-1.972-6.123 0-3.381 2.402-6.123 4.53-6.123s3.176 2.742 3.176 6.123"/>
        <path fill="#FBBE7D" d="M58.428 12.723c16.75.18 17.592 15.926 17.633 17.825.002.114-.002.226-.01.341-.119 1.75-1.27 17.94-2.916 21.017-1.365 2.551-11.453 10.791-15.347 10.791-3.893 0-13.596-8.537-14.905-11.116-1.58-3.112-2.382-19.322-2.466-21.076a3.704 3.704 0 0 1-.001-.34c.081-1.897 1.261-17.623 18.012-17.442"/>
        <path fill="#231F20" d="M50.695 35.545c1.175-.118 2.19 1.148 2.269 2.83.08 1.68-.809 3.139-1.982 3.258-1.175.118-2.19-1.148-2.269-2.829-.079-1.681.809-3.14 1.982-3.259M66.035 35.71c1.174-.118 2.19 1.148 2.268 2.83.08 1.681-.809 3.14-1.983 3.258-1.173.118-2.19-1.148-2.268-2.829-.079-1.68.809-3.14 1.983-3.259"/>
        <path fill="#E78052" d="M58.513 45.888c.283.47.266.388.074.742-.135.246-.452.477-.641.677-.416.439 1.39.343 1.71.005.266-.28.908-.741 1.04-1.118.16-.45-.16-.622-.48-.896a5.585 5.585 0 0 1-1.798-2.92c-.117-.458-.87 1.906.095 3.51"/>
        <path fill="#FFF" d="M63.368 50.411c-3.56-.572-7.212-.567-10.951 0 0 0 2.797 4.722 5.435 4.722 2.639 0 5.516-4.722 5.516-4.722"/>
        <path fill="#231F20" d="M55.027 31.394a3.371 3.371 0 0 1-.327-.062c-6.527-1.417-9.847 2.03-9.758 1.874-.31.264-.745.465-1 .446-.253-.019-.24-.268.059-.555.008.16 2.275-5.019 10.077-3.579.533.125 1.343 1.935.949 1.876M61.84 31.171c.099-.015.197-.036.294-.063 5.83-1.504 9.42 1.58 9.31 1.472.323.245.77.421 1.023.387.251-.034.217-.283-.103-.553.03.107-2.817-4.53-9.86-2.896-.477.131-1.015 1.712-.664 1.653M68.326 13.742s8.393 3.767 8.683 16.952c0 0-3.329-10.287-10.565-13.475l1.882-3.477z"/>
        <path fill="#231F20" d="M74.018 12.293s-16.97-15.951-32.996 1.352c-9.84 10.626-.386 18.546-.386 18.546s24.892-6.375 33.382-19.898"/>
    </g>
</svg>
