<svg xmlns="http://www.w3.org/2000/svg" xmlns:xlink="http://www.w3.org/1999/xlink" width="118" height="376" viewBox="0 0 118 376">
    <defs>
        <path id="a" d="M0 .458h28.959v76.956H0z"/>
        <path id="c" d="M.509.295h44.546V28.98H.51z"/>
        <path id="e" d="M.373.295h19.792V28.98H.373z"/>
        <path id="g" d="M.387.076h17.09V13.33H.387z"/>
        <path id="i" d="M.5.39h44.556v3.667H.499z"/>
        <path id="k" d="M.247.39h7.76v3.667H.248z"/>
        <path id="m" d="M.5.295h44.546V28.98H.5z"/>
        <path id="o" d="M.499.295H20.29V28.98H.5z"/>
        <path id="q" d="M.292.076h17.09V13.33H.292z"/>
        <path id="s" d="M.5.39h44.556v3.667H.5z"/>
        <path id="u" d="M.5.39h7.76v3.667H.5z"/>
    </defs>
    <g fill="none" fill-rule="evenodd">
        <path fill="#EB9756" d="M17.718 79.821s-12.3 66.62-10.37 78.597c1.93 11.978 20.453 47.525 20.453 47.525l4.245-18.16-10.033-25.887 6.946-53.708-11.241-28.367z"/>
        <path fill="#B07141" d="M7.482 159.152c4.842 1.047 9.848.884 14.826.458l6.651-51.422L17.72 79.82s-12.3 66.619-10.37 78.597c.037.235.083.482.133.734"/>
        <g transform="translate(0 79.364)">
            <mask id="b" fill="#fff">
                <use xlink:href="#a"/>
            </mask>
            <path fill="#E6E6E6" d="M22.748 76.846l6.21-48.021L17.719.458C7.37 10.808-1.529 60.508.221 73.54c8.875 3.357 18.86 4.753 22.527 3.306" mask="url(#b)"/>
        </g>
        <g transform="translate(10.42 346.55)">
            <mask id="d" fill="#fff">
                <use xlink:href="#c"/>
            </mask>
            <path fill="#6592BF" d="M.509 28.98h44.546L43.031 1.204c-6.402-1.102-12.42-1.319-17.767 0 0 0 1.091 8.583-7.792 11.39C8.59 15.405.51 14.525.51 28.98" mask="url(#d)"/>
        </g>
        <g transform="translate(35.311 346.55)">
            <mask id="f" fill="#fff">
                <use xlink:href="#e"/>
            </mask>
            <path fill="#090023" d="M.4 2.658c5.378.395 11.927.586 14.082 6.114 1.245 3.192.753 7.038.565 10.36-.185 3.286-.125 6.568-.216 9.847h5.334L18.139 1.205C11.74.103 5.72-.114.373 1.205c0 0 .07.568.027 1.453" mask="url(#f)" opacity=".2"/>
        </g>
        <path fill="#F1F2F2" d="M19.66 362.278c-7.247 0-8.786 5.124-8.557 13.25H36.58c-6.378-13.72-10.42-13.25-16.92-13.25"/>
        <g transform="translate(19.103 362.198)">
            <mask id="h" fill="#fff">
                <use xlink:href="#g"/>
            </mask>
            <path fill="#D1D3D4" d="M11.68 13.33h5.797C11.1-.39 7.057.08.558.08-1.35.08 13.416-.526 11.68 13.33" mask="url(#h)"/>
        </g>
        <path fill="#F1F2F2" d="M35.524 362.934c.83.783.946 2.009.259 2.738-.686.728-1.915.684-2.745-.1-.83-.783-.946-2.009-.26-2.737.687-.729 1.916-.685 2.746.099"/>
        <path fill="#0B0E24" d="M34.555 365.308c-9.015-4.842-16.34-3.43-16.34-3.43 5.62-4.132 16.155 1.228 16.3 1.29a1.17 1.17 0 0 1 .04 2.14"/>
        <path fill="#F1F2F2" d="M40.286 360.987c.83.783.946 2.009.259 2.738-.686.728-1.915.684-2.745-.099-.83-.784-.946-2.01-.259-2.739.686-.728 1.915-.684 2.745.1M44.642 358.877c.83.783.944 2.01.258 2.738-.686.728-1.915.684-2.745-.098-.83-.784-.945-2.01-.26-2.74.687-.728 1.916-.684 2.747.1"/>
        <path fill="#0B0E24" d="M39.44 363.23c-9.015-4.843-14.262-3.323-14.262-3.323 3.745-3.465 14.115 1.065 14.222 1.182.595.651.875.935.626 1.532-.117.28-.332.49-.587.609"/>
        <path fill="#0B0E24" d="M43.774 359.133c-.116-.06-10.007-5.543-13.089-1.291 0 0 5.882-1.411 13.121 3.431.205-.118.377-.328.47-.609.2-.595-.025-1.282-.502-1.531"/>
        <g transform="translate(10.42 371.472)">
            <mask id="j" fill="#fff">
                <use xlink:href="#i"/>
            </mask>
            <path fill="#D1D3D4" d="M.718.39A19.99 19.99 0 0 0 .51 4.057h44.547L44.789.39H.719z" mask="url(#j)"/>
        </g>
        <g transform="translate(47.467 371.472)">
            <mask id="l" fill="#fff">
                <use xlink:href="#k"/>
            </mask>
            <path fill="#090023" d="M.286.39C.256 1.493.242 2.71.249 4.057h7.759L7.96.39H.286z" mask="url(#l)" opacity=".2"/>
        </g>
        <g transform="translate(72.359 346.55)">
            <mask id="n" fill="#fff">
                <use xlink:href="#m"/>
            </mask>
            <path fill="#6592BF" d="M45.046 28.98H.5L2.525 1.204c6.401-1.102 12.419-1.319 17.766 0 0 0-1.09 8.583 7.792 11.39 8.883 2.81 16.963 1.93 16.963 16.384" mask="url(#n)"/>
        </g>
        <g transform="translate(72.359 346.55)">
            <mask id="p" fill="#fff">
                <use xlink:href="#o"/>
            </mask>
            <path fill="#090023" d="M20.264 2.658c-5.378.395-11.927.586-14.082 6.114-1.245 3.192-.753 7.038-.565 10.36.185 3.286.125 6.568.216 9.847H.5L2.525 1.205c6.4-1.102 12.42-1.319 17.766 0 0 0-.07.568-.027 1.453" mask="url(#p)" opacity=".2"/>
        </g>
        <path fill="#F1F2F2" d="M108.673 362.278c7.248 0 8.787 5.124 8.558 13.25H91.754c6.378-13.72 10.42-13.25 16.92-13.25"/>
        <g transform="translate(91.462 362.198)">
            <mask id="r" fill="#fff">
                <use xlink:href="#q"/>
            </mask>
            <path fill="#D1D3D4" d="M6.09 13.33H.292C6.671-.39 10.713.08 17.212.08 19.12.08 4.353-.526 6.09 13.33" mask="url(#r)"/>
        </g>
        <path fill="#F1F2F2" d="M92.81 362.934c-.83.783-.946 2.009-.259 2.738.686.728 1.915.684 2.745-.1.83-.783.946-2.009.26-2.737-.687-.729-1.916-.685-2.746.099"/>
        <path fill="#0B0E24" d="M93.779 365.308c9.015-4.842 16.34-3.43 16.34-3.43-5.62-4.132-16.155 1.228-16.3 1.29a1.17 1.17 0 0 0-.04 2.14"/>
        <path fill="#F1F2F2" d="M88.048 360.987c-.83.783-.946 2.009-.259 2.738.686.728 1.915.684 2.745-.099.83-.784.946-2.01.259-2.739-.686-.728-1.915-.684-2.745.1M83.692 358.877c-.83.783-.944 2.01-.258 2.738.686.728 1.915.684 2.745-.098.83-.784.945-2.01.26-2.74-.687-.728-1.916-.684-2.747.1"/>
        <path fill="#0B0E24" d="M88.895 363.23c9.014-4.843 14.26-3.323 14.26-3.323-3.744-3.465-14.114 1.065-14.22 1.182-.596.651-.876.935-.627 1.532.117.28.332.49.587.609"/>
        <path fill="#0B0E24" d="M84.56 359.133c.116-.06 10.007-5.543 13.089-1.291 0 0-5.882-1.411-13.121 3.431a1.088 1.088 0 0 1-.471-.609c-.2-.595.025-1.282.503-1.531"/>
        <g transform="translate(72.359 371.472)">
            <mask id="t" fill="#fff">
                <use xlink:href="#s"/>
            </mask>
            <path fill="#D1D3D4" d="M44.837.39a20.04 20.04 0 0 1 .21 3.667H.5L.767.39h44.07z" mask="url(#t)"/>
        </g>
        <g transform="translate(72.359 371.472)">
            <mask id="v" fill="#fff">
                <use xlink:href="#u"/>
            </mask>
            <path fill="#090023" d="M8.222.39c.03 1.103.043 2.32.036 3.667H.5L.547.39h7.675z" mask="url(#v)" opacity=".2"/>
        </g>
        <path fill="#CCC" d="M77.322 164.97l-52.409-1.133s-2.765 51.04 7.645 104.86c.323 1.667 1.404 19.222 2.14 37.997.102 2.595.197 5.212.282 7.815.079 2.391-2.367 9.845-2.306 12.18.129 4.98 2.727 4.687 2.74 8.984.008 2.39-4.294 5.351-4.332 7.39-.084 4.426 4.001 7.183 3.643 9.205 6.263 1.957 12.772 1.825 19.48 0 0 0 3.927-2.4 4.518-6.018.458-2.807-2.478-6.22-1.974-10.604.252-2.201 2.629-4.283 2.842-6.783.246-2.886-1.681-6.235-1.537-9.422.56-12.483.132-26.887-2.873-40.14l-2.69-47.662h2.168c3.64 16.939 8.303 42.94 8.272 48.87-.044 7.938-.653 22.316.953 33.816.372 2.662 2.538 2.424 2.949 5.045.452 2.892-2.845 6.715-2.37 9.444.57 3.27 4.916 5.4 5.48 8.254.686 3.482-2.612 7.571-2.007 10.1 1.235 5.158 1.737 4.25 6.578 5.84 6.793 1.962 13.016 2.003 18.653.062 0 0 3.67-2.615 3.327-7.254-.226-3.053-4.379-6.99-4.723-11.606-.237-3.172-.204-6.94-.487-10.708-.233-3.1-2.924-14.532-3.184-17.967-3.925-51.858-8.527-129.704-10.778-140.565"/>
        <path fill="#090023" d="M95.656 348.232c-2.523 2.865-21.932-4.106-23.09-5.7-.07-.097.492-5.312.58-5.41.718-.794 7.587-.218 8.49-.773.614-.376-9.908-5.361-11.77-7.341-.113-.12.868-4.762.975-4.862.851-.795 1.73-1.551 2.65-2.265.502-.389 1.175-.76 1.585-1.25.866-1.032-1.57-2.4-2.278-2.987-1.454-1.21-3.079-2.36-3.891-4.13-.666-1.452-.682-3.073-.555-4.636.375-4.656 1.007-9.14.752-13.835-.257-4.704-1.007-9.363-1.908-13.98-1.787-9.162-4.135-18.263-4.51-27.633-.195-4.916-.04-9.85-.115-14.77-.042-2.711-.093-5.425-.227-8.134-.064-1.299.015-2.871-.482-4.102-.456-1.132-5.663-1.848-7.164-1.833-3.464.035-7.68.24-10.704 2.165 2.48 2.285 5.338 15.513 5.079 19.034-.685 9.32-2.144 31.63-2.277 33.458-.142 1.936.717 3.64 1.584 5.322.772 1.5 3.287 8.073 3.425 9.936.32 4.324-.093 8.659-.068 12.987.012 2.101-.126 4.794.73 6.76.66 1.516 1.808 2.784 2.565 4.25 1.324 2.565-.027 4.355-1.67 6.395-.532.66-2.957 3.754-2.685 4.349.271.595 5.25 1.078 6.194 1.212.172.023.326.217.24.394-2.35 4.751-7.413 6.566-11.102 10.008 2.355 1.655 5.66 1.556 7.584 3.903.122.148.059.364-.106.446-6.928 3.452-14.959.597-22.305-.874.597 3.692 3.866 6.112 3.543 7.932 6.263 1.957 12.772 1.825 19.481 0 0 0 3.926-2.4 4.517-6.017.458-2.807-2.478-6.222-1.974-10.605.253-2.202 2.629-4.283 2.842-6.783.246-2.886-1.681-6.235-1.538-9.422.561-12.482.133-26.887-2.872-40.141l-2.69-47.661h2.168c3.64 16.939 8.303 42.94 8.271 48.87-.042 7.938-.652 22.317.954 33.816.372 2.663 2.538 2.424 2.949 5.045.452 2.891-2.846 6.715-2.37 9.444.57 3.271 4.916 5.4 5.48 8.254.686 3.482-2.612 7.571-2.007 10.1 1.235 5.158 1.737 4.25 6.579 5.84 6.792 1.962 13.015 2.002 18.652.062 0 0 3.113-2.229 3.33-6.213a4.88 4.88 0 0 1-.841 1.375" opacity=".2"/>
        <path fill="#CCC" d="M44.28 331.163c-2.364-1.178-5.05-1.377-7.632-1.74-1.27-.178-2.522-.398-3.74-.726.654 2.953 2.453 3.362 2.502 6.869 3.163-.566 7.188-1.44 8.87-4.403"/>
        <path fill="#C1272D" d="M90.776 353.779l-1.007-1.417.503.708-.505-.706c.133-.097 3.268-2.411 2.967-6.484-.087-1.171-.95-2.668-1.863-4.254-1.245-2.16-2.656-4.609-2.86-7.352-.115-1.532-.166-3.177-.22-4.92-.06-1.885-.12-3.835-.267-5.787-.11-1.46-.823-5.03-1.513-8.484-.754-3.77-1.534-7.67-1.67-9.482-1.297-17.13-2.673-37.166-4.003-56.543-2.707-39.44-5.265-76.695-6.76-83.912l1.7-.353c1.52 7.332 4.08 44.644 6.792 84.146 1.33 19.373 2.706 39.406 4.002 56.53.13 1.706.898 5.553 1.641 9.273.733 3.666 1.425 7.13 1.543 8.695.15 1.99.21 3.959.27 5.864.054 1.722.105 3.35.217 4.843.175 2.349 1.48 4.614 2.633 6.613 1.015 1.762 1.974 3.427 2.09 4.995.374 5.07-3.524 7.908-3.69 8.027M37.896 352.42l-1.71-.304c.093-.525-.525-1.458-1.18-2.447-1.127-1.703-2.53-3.823-2.477-6.623.024-1.278 1.099-2.563 2.236-3.923.984-1.18 2.1-2.513 2.097-3.447-.006-1.845-.533-2.702-1.144-3.694-.714-1.161-1.525-2.478-1.597-5.27-.033-1.268.548-3.666 1.162-6.204.554-2.287 1.181-4.878 1.145-5.97-.085-2.601-.18-5.217-.282-7.81-.73-18.611-1.808-36.228-2.125-37.866-10.312-53.307-7.688-104.56-7.66-105.071l1.735.093c-.028.51-2.639 51.557 7.63 104.648.365 1.886 1.453 20.216 2.155 38.128.102 2.596.197 5.216.283 7.82.044 1.329-.557 3.81-1.193 6.437-.56 2.318-1.14 4.712-1.114 5.75.06 2.324.682 3.334 1.34 4.404.686 1.113 1.395 2.265 1.402 4.6.005 1.567-1.27 3.092-2.502 4.567-.853 1.02-1.82 2.176-1.831 2.841-.044 2.258 1.142 4.05 2.188 5.63.889 1.342 1.657 2.501 1.442 3.71"/>
        <path fill="#090023" d="M28.296 217.183c5.775-.556 11.447-1.915 16.927-3.8 5.493-1.889 11.063-4.16 16.129-7.022 7.51-4.241 13.233-10.576 18.746-17.073-1.17-12.385-2.148-21.288-2.776-24.319l-52.41-1.132s-1.22 22.573 1.021 53.521c.788-.044 1.576-.1 2.363-.175" opacity=".2"/>
        <path fill="#F2F2F2" d="M17.718 79.821c1.198-1.11 28.78-13.878 28.78-13.878l3.693 8.634 17.957-9.983S95.753 80.499 97.221 81.97c.936.936-6.44 20.74-11.835 35-3.075 8.126-3.074 62.506-3.074 62.506-16.246 25.148-64.778 51.155-62.229 16.035 0 0-3.565-114.58-2.365-115.69"/>
        <path fill="#CEDAE2" d="M35.976 207.7c4.258-.296 8.72-1.176 12.587-3.034 3.296-1.582 5.402-4.15 6.603-7.505-6.788 3.45-14.254 7.784-22.11 7.036-6.011-.572-9.478-4.801-12.985-9.054l.012.368c-.308 4.243.136 7.587 1.172 10.155 4.711 1.584 9.644 2.388 14.721 2.034"/>
        <path fill="#CEDAE2" d="M89.537 104.55a.279.279 0 0 1-.11.063c-5.613 11.06-11.193 22.68-11.383 35.308-.041 2.759-.157 5.609.14 8.354.237 2.193.673 4.37.71 6.581.032 1.905-.253 3.773-1.433 5.318-1.12 1.465-2.983 2.564-3.657 4.33-1.42 3.716 5.335 5.367 3.362 9.028-.754 1.4-2.43 2.1-3.655 2.998-1.959 1.439-2.124 4.037-2.859 6.199-.806 2.372-2.36 4.5-3.741 6.567-1.423 2.129-2.941 4.235-4.597 6.19-2.984 3.52-6.499 6.56-10.225 9.263-2.82 2.048-5.762 3.905-8.773 5.65 14.024-5.05 30.709-18.095 38.996-30.923 0 0 0-54.38 3.073-62.507 1.574-4.158 3.314-8.786 4.97-13.282a9.72 9.72 0 0 1-.818.862"/>
        <path fill="#EB9756" d="M46.387 65.994c1.212-4.998 1.566-9.47 1.566-9.47l19.42-5.522s.01 6.882.894 13.66c.59.341 4.8 2.77 9.874 5.732 0 0-4.085 3.287-10.86 5.633-.802.301-1.641.56-2.523.775-3.198.89-6.826 1.534-10.878 1.534-14.54 0-15.96-8.394-15.96-8.394 4.61-2.16 8.174-3.811 8.467-3.948"/>
        <path fill="#B07141" d="M46.612 64.996c1.024-4.576 1.34-8.473 1.34-8.473l19.42-5.52s.018 6.283.79 12.754c-6.736 3.018-9.038 7.723-21.55 1.239"/>
        <path fill="#EB9756" d="M73.34 190.875l6.946-6.569 7.332-33.615-3.473-43.662 13.076-25.06s12.78 65.63 9.693 74.517c-3.088 8.887-18.91 34.775-18.91 34.775l-9.262 13.137c-3.537-3.055-5.744-6.36-5.403-13.523"/>
        <path fill="#090023" d="M86.625 155.242c2.024 1.405 4.754 1.585 7.202 1.899 3.244.416 6.514.634 9.784.645a75.44 75.44 0 0 0 2.829-.047c.18-.447.339-.866.474-1.253C110 147.6 97.22 81.97 97.22 81.97l-13.076 25.059 3.473 43.661-.993 4.552z" opacity=".2"/>
        <path fill="#F2F2F2" d="M112.661 149.84c-2.562-19.182-15.44-67.87-15.44-67.87-11.027 10.324-17.145 25.883-16.164 49.015l3.467 19.021c2.874 5.304 24.603 4.809 28.137-.166"/>
        <path fill="#EB9756" d="M42.027 38.919c0 3.38.156 6.123-1.972 6.123S34.32 42.3 34.32 38.919c0-3.382 1.047-6.124 3.176-6.124 2.127 0 4.53 2.742 4.53 6.124M78.123 38.919c0 3.38-3.606 6.123-5.733 6.123-2.129 0-1.973-2.742-1.973-6.123 0-3.382 2.402-6.124 4.53-6.124s3.176 2.742 3.176 6.124"/>
        <path fill="#EB9756" d="M56.221 13.238c-16.666 0-17.67 15.657-17.732 17.544-.004.115-.001.225.005.34.101 1.742 1.073 17.86 2.678 20.94 1.33 2.553 9.875 10.9 14.954 10.9 5.081 0 13.815-8.347 15.146-10.9 1.605-3.08 2.577-19.198 2.678-20.94.007-.115.01-.225.005-.34-.06-1.887-1.067-17.544-17.734-17.544"/>
        <path fill="#E78052" d="M38.593 32.71c1.515-1.018 2.861-2.077 4.168-3.435 1.287-1.337 2.868-2.266 4.577-2.962 3.705-1.509 7.941-2.453 11.939-1.907 4.286.585 7.74 3.034 11.25 5.38 1.144.764 2.226 1.614 3.359 2.386l.064-1.05c.007-.115.01-.225.005-.34-.06-1.887-1.067-17.544-17.734-17.544-16.666 0-17.67 15.657-17.732 17.545-.004.114-.001.224.005.338.014.253.048.815.099 1.588"/>
        <path fill="#3C2415" d="M48.416 33.49c1.167-.16 2.191 1.366 2.287 3.406.096 2.042-.77 3.826-1.937 3.985-1.168.16-2.191-1.366-2.288-3.406-.096-2.042.772-3.825 1.938-3.985M63.679 33.49c1.166-.16 2.19 1.366 2.286 3.406.097 2.042-.77 3.826-1.937 3.985-1.167.16-2.19-1.366-2.287-3.406-.097-2.042.77-3.825 1.938-3.985M70.16 28.098c-.282-.13-4.893-2.78-11.086-1.156-.43.11-.864 2.397-.527 2.426.098.008.2 0 .301-.024 5.75-1.406 10.342.118 10.442.165.473.173 1.073-.003 1.317-.395.245-.39.036-.845-.447-1.016M42.284 29.387c.283-.13 4.894-2.78 11.087-1.156.428.11.864 2.397.526 2.426a.954.954 0 0 1-.3-.024c-5.75-1.406-10.344.117-10.443.165-.474.174-1.073-.002-1.317-.394s-.035-.847.447-1.017"/>
        <path fill="#E88252" d="M55.665 43.364c-.29.644-.274.53-.064 1.03.143.347.48.683.681.968.442.628-1.452.42-1.793-.062-.283-.403-.963-1.069-1.108-1.6-.174-.631.159-.859.488-1.227.943-1.055 1.547-2.394 1.837-3.989.115-.632.943 2.687-.04 4.88"/>
        <path fill="#E78052" d="M63.013 49.935c-4.892.803-9.62.78-14.2 0 0 0 2.971 1.64 7.063 1.64 4.093 0 7.137-1.64 7.137-1.64"/>
        <path fill="#6592BF" d="M38.548 32.843c9.783-13.36 25.646-13.36 35.43 0V21.66c-9.784-13.36-25.647-13.36-35.43 0v11.183z"/>
        <path fill="#4C6E8F" d="M41.373 21.747c.706-.438 1.29-.775 2.143-.856 1.095-.105 2.24.215 3.168-.547.602-.494.928-1.281 1.575-1.73 1.108-.765 2.52.118 3.725.176 1.088.052 2.164-.204 3.244-.16.724.028 1.287.358 1.938.636 1.944.826 4.224.721 6.252.273.8-.177 1.374-.422 2.163-.14.956.339 1.654.892 2.728 1.018.886.103 1.74.087 2.527.558.782.469 1.33 1.206 2.137 1.651.325.18.662.323 1.004.45V21.66C64.194 8.3 48.331 8.3 38.547 21.66v.782c.977-.04 1.87-.102 2.826-.694"/>
        <path fill="#3C2415" d="M76.79 12.777c-.235-3.254-2.939-5.822-6.249-5.822-.046 0-.09.006-.135.006a4.631 4.631 0 0 0-4.592-4.063 4.6 4.6 0 0 0-2.731.898A5.307 5.307 0 0 0 57.999 0c-1.649 0-3.122.752-4.095 1.934A6.228 6.228 0 0 0 50.57.966a6.268 6.268 0 0 0-5.527 3.313 4.729 4.729 0 0 0-9.903 9.247 4.537 4.537 0 0 0 2.792 8.112c1.71 0 3.197-.95 3.97-2.348a4.73 4.73 0 0 0 6.067-3.575 6.234 6.234 0 0 0 3.663 1.19 6.234 6.234 0 0 0 3.905-1.372 5.301 5.301 0 0 0 4.778 3.014 5.298 5.298 0 0 0 4.568-2.62 6.264 6.264 0 0 0 6.294 3.553 4.723 4.723 0 0 0 4.188 2.544 4.73 4.73 0 0 0 4.727-4.733 4.733 4.733 0 0 0-3.303-4.514"/>
        <path fill="#66371A" d="M35.937 14.034c.735-.565 1.288-1.108 1.444-2.073.053-.322.013-.652.103-.97.163-.572.583-1.096 1.08-1.419.911-.593 2.057-.44 2.922-1.13.75-.6.831-1.532 1.475-2.195.578-.596 1.292-.615 2.056-.77 1.297-.264 1.82-1.045 2.83-1.718 1.501-1.003 3.112-.22 4.642.25 1.438.442 2.523.177 3.859-.422.694-.312 1.38-.61 2.154-.628 2.024-.049 2.45 1.495 3.916 2.438 1.533.984 3.558-1.227 5.16-1.434a4.65 4.65 0 0 1 1.183.003 4.598 4.598 0 0 0-5.678-.17A5.307 5.307 0 0 0 58 0a5.293 5.293 0 0 0-4.095 1.934A6.228 6.228 0 0 0 50.57.966a6.269 6.269 0 0 0-5.527 3.313 4.729 4.729 0 0 0-9.903 9.247 4.53 4.53 0 0 0-1.743 3.572c0 .11.009.218.017.327.525-1.325 1.387-2.516 2.523-3.391"/>
        <path fill="#3C2415" d="M49.501 51.321a28.058 28.058 0 0 1 13.04 0c.42.1.838-.212.933-.707.094-.494-.189-.997-.631-1.102a29.36 29.36 0 0 0-13.644 0c-.441.105-.724.608-.63 1.102.094.495.512.806.932.707M48.833 59.576c0 2.135 3.32 6.013 7.417 6.013 4.097 0 7.417-3.878 7.417-6.013-4.863 2.462-9.81 2.383-14.834 0"/>
    </g>
</svg>
