<svg xmlns="http://www.w3.org/2000/svg" width="100" height="100" viewBox="0 0 100 100">
    <defs>
        <filter id="a" width="140%" height="132%" x="-20%" y="-16%" filterUnits="objectBoundingBox">
            <feOffset dy="2" in="SourceAlpha" result="shadowOffsetOuter1"/>
            <feGaussianBlur in="shadowOffsetOuter1" result="shadowBlurOuter1" stdDeviation="2"/>
            <feColorMatrix in="shadowBlurOuter1" result="shadowMatrixOuter1" values="0 0 0 0 0.701960784 0 0 0 0 0.325490196 0 0 0 0 0 0 0 0 0.3 0"/>
            <feMerge>
                <feMergeNode in="shadowMatrixOuter1"/>
                <feMergeNode in="SourceGraphic"/>
            </feMerge>
        </filter>
        <linearGradient id="b" x1="100%" x2="0%" y1="0%" y2="100%">
            <stop offset="0%" stop-color="#FFAF00"/>
            <stop offset="100%" stop-color="#F70"/>
        </linearGradient>
    </defs>
    <g fill="none" fill-rule="evenodd">
        <circle cx="50" cy="50" r="50" fill="#FFF6EF"/>
        <g filter="url(#a)" transform="rotate(-6 207.73 -161.352)">
            <g transform="translate(.588 .428)">
                <path fill="url(#b)" d="M41.667 9A8.333 8.333 0 0 1 50 17.333v33.334A8.333 8.333 0 0 1 41.667 59H8.333A8.333 8.333 0 0 1 0 50.667V17.333A8.333 8.333 0 0 1 8.333 9h33.334z"/>
                <rect width="42" height="42" x="4" y="13" fill="#FFF" rx="5"/>
                <path stroke="#B4B8BF" stroke-linecap="round" stroke-linejoin="round" stroke-width="2" d="M15 36.5h20M15 27.5h20M15 45.5h14"/>
                <path fill="#FC3A52" d="M18.228 4.787a7.184 7.184 0 0 1 13.545 0h5.632c1.106 0 2.118.888 2.259 1.982l1.34 10.398c.14 1.095-.648 1.982-1.754 1.982h-28.5c-1.11 0-1.895-.887-1.754-1.982l1.34-10.398c.141-1.094 1.15-1.982 2.259-1.982h5.633z"/>
                <circle cx="24.889" cy="7.889" r="2.889" fill="#FFF"/>
            </g>
            <path fill="#FC3A52" d="M33.495 66.386l5.673 1.953 17.58-51.058-5.672-1.953z"/>
            <path fill="#FFF" d="M50.68 16.478l5.673 1.953.325-.945-5.673-1.954z"/>
            <path fill="#434446" d="M50.953 15.683l5.674 1.953 2.977-8.646a.856.856 0 0 0-.531-1.088l-4.055-1.396a.856.856 0 0 0-1.088.531l-2.977 8.646z"/>
            <path fill="#000" d="M55.02 6.516l.402.139L34.71 66.807l-1.216-.419L53.926 7.05a.86.86 0 0 1 1.093-.534z" opacity=".2"/>
            <path fill="#FFF" d="M58.664 7.771l.402.139a.86.86 0 0 1 .533 1.093L39.167 68.341l-1.215-.418L58.664 7.77z" opacity=".2"/>
            <path fill="#FCDEBA" d="M34.546 72.548l4.622-4.209-5.673-1.953z"/>
            <path fill="#595A5E" d="M34.54 72.546l2.382-2.17-2.924-1.007z"/>
            <path fill="#000" d="M34.546 72.548l.165-5.744-1.216-.418z" opacity=".2"/>
            <path fill="#FFF" d="M34.546 72.548l3.406-4.627 1.216.418z" opacity=".2"/>
        </g>
    </g>
</svg>
