<svg xmlns="http://www.w3.org/2000/svg" xmlns:xlink="http://www.w3.org/1999/xlink" width="100" height="100" viewBox="0 0 100 100">
    <defs>
        <circle id="a" cx="50" cy="50" r="50"/>
        <filter id="b" width="142.9%" height="130.8%" x="-21.4%" y="-15.4%" filterUnits="objectBoundingBox">
            <feOffset dy="2" in="SourceAlpha" result="shadowOffsetOuter1"/>
            <feGaussianBlur in="shadowOffsetOuter1" result="shadowBlurOuter1" stdDeviation="2"/>
            <feColorMatrix in="shadowBlurOuter1" result="shadowMatrixOuter1" values="0 0 0 0 0.701960784 0 0 0 0 0.325490196 0 0 0 0 0 0 0 0 0.3 0"/>
            <feMerge>
                <feMergeNode in="shadowMatrixOuter1"/>
                <feMergeNode in="SourceGraphic"/>
            </feMerge>
        </filter>
        <linearGradient id="d" x1="100%" x2="0%" y1="0%" y2="100%">
            <stop offset="0%" stop-color="#FFAF00"/>
            <stop offset="100%" stop-color="#F70"/>
        </linearGradient>
    </defs>
    <g fill="none" fill-rule="evenodd">
        <mask id="c" fill="#fff">
            <use xlink:href="#a"/>
        </mask>
        <use fill="#FFF6EF" xlink:href="#a"/>
        <g filter="url(#b)" mask="url(#c)">
            <g transform="translate(22 23)">
                <rect width="56" height="38" fill="url(#d)" rx="6"/>
                <path fill="#FFF" d="M23.727 26.852c-.844 0-1.505-.739-1.505-1.682V13.725c0-.946.66-1.688 1.505-1.688.28 0 .562.085.818.245l9.216 5.72a1.696 1.696 0 0 1 0 2.889l-9.216 5.722a1.561 1.561 0 0 1-.818.239z"/>
            </g>
            <g transform="translate(22 66)">
                <rect width="56" height="15" fill="#FFF" rx="3"/>
                <path stroke="#FC3A52" stroke-linecap="round" stroke-linejoin="round" stroke-width="2" d="M19 7.5h27"/>
                <path fill="#FC3A52" d="M7.61 11c-.343 0-.61-.3-.61-.681V5.684C7 5.3 7.267 5 7.61 5c.113 0 .227.034.33.1l3.733 2.316a.687.687 0 0 1 0 1.17l-3.732 2.317A.632.632 0 0 1 7.61 11z"/>
            </g>
            <g transform="translate(22 86)">
                <rect width="56" height="15" fill="#FFF" rx="3"/>
                <path fill="#FC3A52" d="M7.61 11c-.343 0-.61-.3-.61-.681V5.684C7 5.3 7.267 5 7.61 5c.113 0 .227.034.33.1l3.733 2.316a.687.687 0 0 1 0 1.17l-3.732 2.317A.632.632 0 0 1 7.61 11z"/>
            </g>
        </g>
    </g>
</svg>
